<?xml version="1.0" encoding="utf-8"?>
<!-- Generator: Adobe Illustrator 15.1.0, SVG Export Plug-In . SVG Version: 6.00 Build 0)  -->
<!DOCTYPE svg PUBLIC "-//W3C//DTD SVG 1.1//EN" "http://www.w3.org/Graphics/SVG/1.1/DTD/svg11.dtd">
<svg version="1.1" xmlns="http://www.w3.org/2000/svg" xmlns:xlink="http://www.w3.org/1999/xlink" x="0px" y="0px" width="100px"
	 height="100px" viewBox="0 0 100 100" enable-background="new 0 0 100 100" xml:space="preserve">
<g id="Calque_2">
	<rect fill="#1B1464" stroke="#1B1464" stroke-miterlimit="10" width="100" height="100"/>
</g>
<g id="Calque_5">
	<rect x="21.125" y="11.761" fill="none" width="75.529" height="75.53"/>
	<g>
		<polygon fill="#FFFFFF" points="24.639,13.443 25,11 25.468,13.568 27.936,13.781 25.446,14.409 25.154,16.717 24.606,14.387 
			22.219,13.936 		"/>
		<polygon fill="none" stroke="#1B1464" stroke-miterlimit="10" points="24.883,13.8 21.132,9.522 25.021,13.72 28.98,10.013 
			25.168,13.839 28.468,17.513 25.025,14.008 21.033,17.465 		"/>
		<polygon fill="#FFFFFF" points="24.82,13.8 21.07,9.522 24.958,13.72 28.917,10.013 25.106,13.839 28.405,17.513 24.963,14.008 
			20.97,17.465 		"/>
		<circle fill="#1B1464" cx="25.025" cy="13.755" r="0.438"/>
	</g>
	<g>
		<polygon fill="#FFFFFF" points="90.702,21.614 90.98,19.395 91.342,21.728 93.245,21.921 91.325,22.491 91.1,24.588 
			90.677,22.472 88.836,22.062 		"/>
		<polygon fill="none" stroke="#1B1464" stroke-width="0.837" stroke-miterlimit="10" points="90.891,21.938 87.998,18.052 
			90.996,21.866 94.051,18.498 91.11,21.974 93.655,25.311 91,22.127 87.921,25.268 		"/>
		<polygon fill="#FFFFFF" points="90.842,21.938 87.95,18.052 90.948,21.866 94.003,18.498 91.062,21.974 93.607,25.311 
			90.952,22.127 87.873,25.268 		"/>
		<ellipse fill="#1B1464" cx="91" cy="21.897" rx="0.337" ry="0.397"/>
	</g>
	<g>
		<polygon fill="#FFFFFF" points="33.51,88.566 33.714,86.886 33.977,88.651 35.367,88.798 33.965,89.229 33.801,90.816 
			33.492,89.215 32.148,88.904 		"/>
		<polygon fill="none" stroke="#1B1464" stroke-width="0.6222" stroke-miterlimit="10" points="33.648,88.811 31.536,85.87 
			33.725,88.755 35.955,86.207 33.808,88.838 35.666,91.363 33.728,88.954 31.48,91.331 		"/>
		<polygon fill="#FFFFFF" points="33.613,88.811 31.501,85.87 33.69,88.755 35.919,86.207 33.773,88.838 35.631,91.363 
			33.693,88.954 31.445,91.331 		"/>
		<ellipse fill="#1B1464" cx="33.728" cy="88.779" rx="0.246" ry="0.301"/>
	</g>
	<g>
		<polygon fill="#FFFFFF" points="88.946,74.46 89.308,72.017 89.775,74.584 92.243,74.798 89.754,75.425 89.462,77.733 
			88.913,75.403 86.526,74.952 		"/>
		<polygon fill="none" stroke="#1B1464" stroke-miterlimit="10" points="89.19,74.815 85.44,70.538 89.328,74.735 93.288,71.028 
			89.476,74.855 92.775,78.528 89.333,75.024 85.341,78.481 		"/>
		<polygon fill="#FFFFFF" points="89.128,74.815 85.378,70.538 89.266,74.735 93.226,71.028 89.413,74.855 92.713,78.528 
			89.271,75.024 85.278,78.481 		"/>
		<circle fill="#1B1464" cx="89.333" cy="74.771" r="0.438"/>
	</g>
	<g>
		<polygon fill="#FFFFFF" points="12.217,53.689 12.579,51.246 13.046,53.813 15.514,54.027 13.025,54.654 12.733,56.963 
			12.184,54.633 9.797,54.182 		"/>
		<polygon fill="none" stroke="#1B1464" stroke-miterlimit="10" points="12.461,54.045 8.711,49.768 12.599,53.965 16.559,50.258 
			12.747,54.085 16.046,57.758 12.604,54.254 8.612,57.711 		"/>
		<polygon fill="#FFFFFF" points="12.399,54.045 8.649,49.768 12.537,53.965 16.497,50.258 12.684,54.085 15.984,57.758 
			12.542,54.254 8.549,57.711 		"/>
		<circle fill="#1B1464" cx="12.604" cy="54" r="0.438"/>
	</g>
	<g>
		<polygon fill="#FFFFFF" points="69.613,46.752 69.975,44.309 70.442,46.876 72.91,47.09 70.421,47.717 70.129,50.025 
			69.58,47.695 67.193,47.244 		"/>
		<polygon fill="none" stroke="#1B1464" stroke-miterlimit="10" points="69.857,47.107 66.107,42.83 69.995,47.027 73.955,43.32 
			70.143,47.147 73.442,50.82 70,47.316 66.008,50.773 		"/>
		<polygon fill="#FFFFFF" points="69.795,47.107 66.045,42.83 69.933,47.027 73.893,43.32 70.08,47.147 73.38,50.82 69.938,47.316 
			65.945,50.773 		"/>
		<circle fill="#1B1464" cx="70" cy="47.062" r="0.438"/>
	</g>
	<path fill="#FFFFFF" stroke="#000000" stroke-miterlimit="10" d="M51.501,50.252c0-17.025,11.172-31.437,26.583-36.313
		c-3.629-1.148-7.49-1.771-11.5-1.771c-21.033,0-38.083,17.05-38.083,38.084c0,21.032,17.05,38.083,38.083,38.083
		c4.01,0,7.871-0.623,11.5-1.771C62.673,81.686,51.501,67.273,51.501,50.252z"/>
</g>
</svg>
