<?xml version="1.0" encoding="utf-8"?>
<!-- Generator: Adobe Illustrator 15.1.0, SVG Export Plug-In . SVG Version: 6.00 Build 0)  -->
<!DOCTYPE svg PUBLIC "-//W3C//DTD SVG 1.1//EN" "http://www.w3.org/Graphics/SVG/1.1/DTD/svg11.dtd">
<svg version="1.1" xmlns="http://www.w3.org/2000/svg" xmlns:xlink="http://www.w3.org/1999/xlink" x="0px" y="0px" width="100px"
	 height="100px" viewBox="0 0 100 100" enable-background="new 0 0 100 100" xml:space="preserve">
<g id="Calque_1">
	<polygon fill="#C69C6D" stroke="#C69C6D" stroke-width="0.2578" stroke-miterlimit="10" points="-8.833,5.833 -8.833,5.833 
		-9.167,5.833 -9.167,5.833 -9.167,5.833 -9.167,5.833 -8.833,5.833 -8.833,5.833 	"/>
	<rect x="10.443" y="10.471" fill="#009245" stroke="#009245" stroke-miterlimit="10" width="80" height="80"/>
	<g>
		<path fill="none" stroke="#00FF00" stroke-width="3.4168" stroke-miterlimit="10" d="M20.039,29.307c0,0,8.768-4.114,12.882,4.654
			c4.114,8.768,4.114,8.768,4.114,8.768"/>
		<path fill="none" stroke="#00FF00" stroke-width="3.4168" stroke-miterlimit="10" d="M46.475,20.5c0,0-9.681-0.285-9.965,9.396
			c-0.285,9.681-0.285,9.681-0.285,9.681"/>
		<path fill="none" stroke="#00FF00" stroke-width="3.4168" stroke-miterlimit="10" d="M52.83,29.076c0,0-9.007-3.561-12.567,5.446
			c-3.56,9.007-3.56,9.007-3.56,9.007"/>
	</g>
	<g>
		<path fill="none" stroke="#00FF00" stroke-width="3.2605" stroke-miterlimit="10" d="M51.039,63.904c0,0,8.367-3.926,12.292,4.441
			c3.927,8.366,3.927,8.366,3.927,8.366"/>
		<path fill="none" stroke="#00FF00" stroke-width="3.2605" stroke-miterlimit="10" d="M76.266,55.5c0,0-9.238-0.271-9.51,8.967
			s-0.271,9.238-0.271,9.238"/>
		<path fill="none" stroke="#00FF00" stroke-width="3.2605" stroke-miterlimit="10" d="M82.33,63.684c0,0-8.595-3.397-11.992,5.197
			c-3.397,8.596-3.397,8.596-3.397,8.596"/>
	</g>
	<g>
		<path fill="none" stroke="#00FF00" stroke-width="2" stroke-miterlimit="10" d="M65.789,27.289c0,0,3.195-1.499,4.693,1.695
			c1.499,3.195,1.499,3.195,1.499,3.195"/>
		<path fill="none" stroke="#00FF00" stroke-width="2" stroke-miterlimit="10" d="M75.421,24.08c0,0-3.527-0.104-3.631,3.424
			c-0.104,3.527-0.104,3.527-0.104,3.527"/>
		<path fill="none" stroke="#00FF00" stroke-width="2" stroke-miterlimit="10" d="M77.736,27.204c0,0-3.281-1.297-4.578,1.984
			C71.86,32.47,71.86,32.47,71.86,32.47"/>
	</g>
	<g>
		<path fill="none" stroke="#00FF00" stroke-width="2" stroke-miterlimit="10" d="M22.789,70.789c0,0,3.195-1.5,4.693,1.695
			c1.499,3.194,1.499,3.194,1.499,3.194"/>
		<path fill="none" stroke="#00FF00" stroke-width="2" stroke-miterlimit="10" d="M32.421,67.58c0,0-3.527-0.104-3.631,3.424
			c-0.104,3.526-0.104,3.526-0.104,3.526"/>
		<path fill="none" stroke="#00FF00" stroke-width="2" stroke-miterlimit="10" d="M34.736,70.704c0,0-3.282-1.297-4.579,1.984
			c-1.297,3.282-1.297,3.282-1.297,3.282"/>
	</g>
	<path fill="#0000FF" d="M24.25,32.877c-0.088-0.017-0.175-0.035-0.263-0.054"/>
</g>
<g id="Calque_4">
</g>
<g id="Calque_6">
</g>
<g id="Calque_5">
</g>
</svg>
