<?xml version="1.0" encoding="utf-8"?>
<!-- Generator: Adobe Illustrator 15.1.0, SVG Export Plug-In . SVG Version: 6.00 Build 0)  -->
<!DOCTYPE svg PUBLIC "-//W3C//DTD SVG 1.1//EN" "http://www.w3.org/Graphics/SVG/1.1/DTD/svg11.dtd">
<svg version="1.1" xmlns="http://www.w3.org/2000/svg" xmlns:xlink="http://www.w3.org/1999/xlink" x="0px" y="0px" width="100px"
	 height="100px" viewBox="0 0 100 100" enable-background="new 0 0 100 100" xml:space="preserve">
<g id="Calque_1">
	<polygon fill="#C69C6D" stroke="#C69C6D" stroke-width="0.2578" stroke-miterlimit="10" points="-8.833,5.833 -8.833,5.833 
		-9.167,5.833 -9.167,5.833 -9.167,5.833 -9.167,5.833 -8.833,5.833 -8.833,5.833 	"/>
	<rect x="11.025" y="10.054" fill="#603813" stroke="#603813" stroke-miterlimit="10" width="80" height="80"/>
	<path fill="#A67C52" stroke="#603813" stroke-width="5.4414" stroke-miterlimit="10" d="M78.937,17.897
		c2.536,2.447,6.454,3.408,8.413,6.291c1.225,2.883,1.225,5.345,0.413,7.478c-0.812,2.133-2.435,3.936-4.458,5.5
		C65.803,48.212,38.38,53.017,23.689,36.68c-4.897-3.844-2.938-12.492,1.959-17.297c2.938-1.922,4.896-4.805,8.814-4.805
		c9.794-0.961,20.568,3.844,24.485,12.492c0.979,1.922,1.959,3.844,0,5.766c-7.835,4.805-21.546,5.766-25.464-3.844
		c0-1.922,0.979-3.844,2.938-4.805c4.897-1.922,13.711-0.961,12.732,4.805c0,1.922-7.835,3.844-10.12-0.83"/>
	<path fill="#A67C52" stroke="#603813" stroke-width="7.3235" stroke-miterlimit="10" d="M66.107,44.84
		c-16.691,7.076-46.691-2.924-50.917,20.724c-0.149,2.57,0.226,5.352,1.226,8.352c0.5,2,2,3.5,3.875,4.75s4.125,2.25,6.127,3.252
		c19.998,4.998,45.998,9.998,59.998-11.002c2-4,1-10-2-10c-14-1-33-3-41,8c-4,7,14,9,22,8c4-1,12-3,9-7c-3-5-13-2-19,1
		c2,3,6,3,8.732,2.719"/>
</g>
<g id="Calque_4">
</g>
<g id="Calque_6">
</g>
<g id="Calque_5">
</g>
</svg>
