<?xml version="1.0" encoding="utf-8"?>
<!-- Generator: Adobe Illustrator 15.1.0, SVG Export Plug-In . SVG Version: 6.00 Build 0)  -->
<!DOCTYPE svg PUBLIC "-//W3C//DTD SVG 1.1//EN" "http://www.w3.org/Graphics/SVG/1.1/DTD/svg11.dtd">
<svg version="1.1" xmlns="http://www.w3.org/2000/svg" xmlns:xlink="http://www.w3.org/1999/xlink" x="0px" y="0px" width="100px"
	 height="100px" viewBox="0 0 100 100" enable-background="new 0 0 100 100" xml:space="preserve">
<g id="Calque_1">
	
		<rect x="11.629" y="9.722" fill="#009245" stroke="#009245" stroke-width="1.0017" stroke-miterlimit="10" width="80.14" height="80.14"/>
	<polyline fill="#E6E6E6" points="92.162,45.387 92.503,84.707 11.256,85.412 10.792,31.912 92.039,31.208 92.162,45.387 	"/>
	<g>
		<g>
			<polyline fill="#E6E6E6" points="92.601,29.153 88.093,29.153 87.828,11.934 80.799,12.092 73.905,12.092 73.771,28.995 
				59.451,28.995 59.584,11.934 44.998,12.092 44.998,29.153 30.81,29.153 30.944,12.253 16.49,12.092 16.621,29.153 11.394,29.35 
							"/>
			<polyline fill="none" stroke="#000000" stroke-width="3.0046" stroke-miterlimit="10" points="66.691,26.557 59.034,26.557 
				59.167,12.434 44.58,12.565 44.58,26.688 30.392,26.688 30.527,12.698 16.072,12.565 16.203,26.688 10.977,26.851 			"/>
		</g>
		<polyline fill="none" stroke="#000000" stroke-width="3.0046" stroke-miterlimit="10" points="92.267,26.687 87.655,26.687 
			87.385,12.517 80.193,12.648 73.143,12.648 73.005,26.557 66.189,26.557 		"/>
	</g>
</g>
<g id="Calque_3">
	<rect x="11.083" y="27.125" fill="#CCCCCC" width="81.346" height="23.48"/>
	<rect x="11.125" y="53.375" fill="#CCCCCC" width="81.054" height="7.98"/>
	<line fill="none" stroke="#000000" stroke-width="4.1198" stroke-miterlimit="10" x1="11" y1="86" x2="92.25" y2="86"/>
</g>
<g id="Calque_4">
	<g>
		<g>
			<g>
				<rect x="30.5" y="28.389" fill="#B3B3B3" width="8" height="5.5"/>
				<rect x="40.5" y="28.389" fill="#B3B3B3" width="8" height="5.5"/>
				<rect x="49.5" y="28.389" fill="#B3B3B3" width="8" height="5.5"/>
				<rect x="58.25" y="28.389" fill="#B3B3B3" width="8" height="5.5"/>
				<rect x="67.5" y="28.389" fill="#B3B3B3" width="8" height="5.5"/>
				<rect x="76.5" y="28.389" fill="#B3B3B3" width="8" height="5.5"/>
				<rect x="85.75" y="28.389" fill="#B3B3B3" width="6.5" height="5.5"/>
				<rect x="20.75" y="28.389" fill="#B3B3B3" width="8" height="5.5"/>
				<rect x="11.5" y="28.389" fill="#B3B3B3" width="8" height="5.5"/>
			</g>
			<rect x="34.25" y="34.639" fill="#B3B3B3" width="8" height="5.5"/>
			<rect x="44.25" y="34.639" fill="#B3B3B3" width="8" height="5.5"/>
			<rect x="53.25" y="34.639" fill="#B3B3B3" width="8" height="5.5"/>
			<rect x="62" y="34.639" fill="#B3B3B3" width="8" height="5.5"/>
			<rect x="71.25" y="34.639" fill="#B3B3B3" width="8" height="5.5"/>
			<rect x="80.25" y="34.639" fill="#B3B3B3" width="8" height="5.5"/>
			<rect x="89.5" y="34.639" fill="#B3B3B3" width="3" height="5.5"/>
			<rect x="11.125" y="34.764" fill="#B3B3B3" width="3" height="5.5"/>
			<rect x="24.5" y="34.639" fill="#B3B3B3" width="8" height="5.5"/>
			<rect x="15.25" y="34.639" fill="#B3B3B3" width="8" height="5.5"/>
		</g>
		<g>
			<g>
				<rect x="30.375" y="40.764" fill="#B3B3B3" width="8" height="5.5"/>
				<rect x="40.375" y="40.764" fill="#B3B3B3" width="8" height="5.5"/>
				<rect x="49.375" y="40.764" fill="#B3B3B3" width="8" height="5.5"/>
				<rect x="58.125" y="40.764" fill="#B3B3B3" width="8" height="5.5"/>
				<rect x="67.375" y="40.764" fill="#B3B3B3" width="8" height="5.5"/>
				<rect x="76.375" y="40.764" fill="#B3B3B3" width="8" height="5.5"/>
				<rect x="85.625" y="40.764" fill="#B3B3B3" width="6.5" height="5.5"/>
				<rect x="20.625" y="40.764" fill="#B3B3B3" width="8" height="5.5"/>
				<rect x="11.375" y="40.764" fill="#B3B3B3" width="8" height="5.5"/>
			</g>
			<rect x="34.125" y="47.014" fill="#B3B3B3" width="8" height="5.5"/>
			<rect x="44.125" y="47.014" fill="#B3B3B3" width="8" height="5.5"/>
			<rect x="53.125" y="47.014" fill="#B3B3B3" width="8" height="5.5"/>
			<rect x="61.875" y="47.014" fill="#B3B3B3" width="8" height="5.5"/>
			<rect x="71.125" y="47.014" fill="#B3B3B3" width="8" height="5.5"/>
			<rect x="80.125" y="47.014" fill="#B3B3B3" width="8" height="5.5"/>
			<rect x="89.375" y="47.014" fill="#B3B3B3" width="3" height="5.5"/>
			<rect x="11" y="47.139" fill="#B3B3B3" width="3" height="5.5"/>
			<rect x="24.375" y="47.014" fill="#B3B3B3" width="8" height="5.5"/>
			<rect x="15.125" y="47.014" fill="#B3B3B3" width="8" height="5.5"/>
		</g>
	</g>
</g>
<g id="Calque_5">
	<g>
		<g>
			<g>
				<rect x="30.5" y="56.389" fill="#B3B3B3" width="8" height="5.5"/>
				<rect x="40.5" y="56.389" fill="#B3B3B3" width="8" height="5.5"/>
				<rect x="49.5" y="56.389" fill="#B3B3B3" width="8" height="5.5"/>
				<rect x="58.25" y="56.389" fill="#B3B3B3" width="8" height="5.5"/>
				<rect x="67.5" y="56.389" fill="#B3B3B3" width="8" height="5.5"/>
				<rect x="76.5" y="56.389" fill="#B3B3B3" width="8" height="5.5"/>
				<rect x="85.75" y="56.389" fill="#B3B3B3" width="6.5" height="5.5"/>
				<rect x="20.75" y="56.389" fill="#B3B3B3" width="8" height="5.5"/>
				<rect x="11.5" y="56.389" fill="#B3B3B3" width="8" height="5.5"/>
			</g>
			<rect x="34.25" y="62.639" fill="#B3B3B3" width="8" height="5.5"/>
			<rect x="44.25" y="62.639" fill="#B3B3B3" width="8" height="5.5"/>
			<rect x="53.25" y="62.639" fill="#B3B3B3" width="8" height="5.5"/>
			<rect x="62" y="62.639" fill="#B3B3B3" width="8" height="5.5"/>
			<rect x="71.25" y="62.639" fill="#B3B3B3" width="8" height="5.5"/>
			<rect x="80.25" y="62.639" fill="#B3B3B3" width="8" height="5.5"/>
			<rect x="89.5" y="62.639" fill="#B3B3B3" width="3" height="5.5"/>
			<rect x="11.125" y="62.764" fill="#B3B3B3" width="3" height="5.5"/>
			<rect x="24.5" y="62.639" fill="#B3B3B3" width="8" height="5.5"/>
			<rect x="15.25" y="62.639" fill="#B3B3B3" width="8" height="5.5"/>
		</g>
		<g>
			<g>
				<rect x="30.375" y="68.764" fill="#B3B3B3" width="8" height="5.5"/>
				<rect x="40.375" y="68.764" fill="#B3B3B3" width="8" height="5.5"/>
				<rect x="49.375" y="68.764" fill="#B3B3B3" width="8" height="5.5"/>
				<rect x="58.125" y="68.764" fill="#B3B3B3" width="8" height="5.5"/>
				<rect x="67.375" y="68.764" fill="#B3B3B3" width="8" height="5.5"/>
				<rect x="76.375" y="68.764" fill="#B3B3B3" width="8" height="5.5"/>
				<rect x="85.625" y="68.764" fill="#B3B3B3" width="6.5" height="5.5"/>
				<rect x="20.625" y="68.764" fill="#B3B3B3" width="8" height="5.5"/>
				<rect x="11.375" y="68.764" fill="#B3B3B3" width="8" height="5.5"/>
			</g>
			<rect x="34.125" y="75.014" fill="#B3B3B3" width="8" height="5.5"/>
			<rect x="44.125" y="75.014" fill="#B3B3B3" width="8" height="5.5"/>
			<rect x="53.125" y="75.014" fill="#B3B3B3" width="8" height="5.5"/>
			<rect x="61.875" y="75.014" fill="#B3B3B3" width="8" height="5.5"/>
			<rect x="71.125" y="75.014" fill="#B3B3B3" width="8" height="5.5"/>
			<rect x="80.125" y="75.014" fill="#B3B3B3" width="8" height="5.5"/>
			<rect x="89.375" y="75.014" fill="#B3B3B3" width="3" height="5.5"/>
			<rect x="11" y="75.139" fill="#B3B3B3" width="3" height="5.5"/>
			<rect x="24.375" y="75.014" fill="#B3B3B3" width="8" height="5.5"/>
			<rect x="15.125" y="75.014" fill="#B3B3B3" width="8" height="5.5"/>
		</g>
	</g>
</g>
<g id="Calque_6">
	<rect x="31.625" y="38.25" fill="#E6E6E6" width="12.25" height="15.625"/>
	<rect x="59.875" y="38.25" fill="#E6E6E6" width="12.25" height="15.625"/>
	<rect x="11.042" y="38.125" fill="#E6E6E6" width="4.208" height="15.75"/>
	<rect x="88" y="38.375" fill="#E6E6E6" width="4.338" height="15.75"/>
	<rect x="16.328" y="36.5" fill="#808080" width="3.094" height="14.5"/>
	<rect x="44.078" y="36.75" fill="#808080" width="3.594" height="14.5"/>
	<rect x="73.078" y="36.75" fill="#808080" width="3.094" height="14.5"/>
</g>
<g id="Calque_8">
	<rect x="31.93" y="11.546" fill="#4D4D4D" width="1.309" height="13.667"/>
	<rect x="33.161" y="24.119" fill="#4D4D4D" width="9.922" height="1.094"/>
	<rect x="60.514" y="11.379" fill="#4D4D4D" width="1.309" height="13.667"/>
	<rect x="61.744" y="23.953" fill="#4D4D4D" width="9.922" height="1.094"/>
	<rect x="88.848" y="11.379" fill="#4D4D4D" width="1.309" height="13.667"/>
	<rect x="90.078" y="23.953" fill="#4D4D4D" width="2.172" height="1.094"/>
	<rect x="11.204" y="24.245" fill="#4D4D4D" width="3.462" height="1.094"/>
</g>
<g id="Calque_2">
	<polyline fill="none" stroke="#000000" stroke-width="3.0086" stroke-miterlimit="10" points="92.348,38.514 87.714,38.514 
		87.714,52.688 73.294,52.688 73.294,38.092 59.42,38.092 59.42,52.68 44.795,52.68 44.795,38.092 31.122,38.092 31.122,52.511 
		16.367,52.511 16.367,37.84 11.109,37.84 	"/>
</g>
<g id="Calque_7">
	<rect x="19.453" y="49.87" fill="#4D4D4D" width="10.13" height="1.094"/>
	<rect x="47.828" y="50.078" fill="#4D4D4D" width="10.13" height="1.094"/>
	<rect x="76.078" y="50.078" fill="#4D4D4D" width="10.13" height="1.094"/>
</g>
</svg>
