<?xml version="1.0" encoding="utf-8"?>
<!-- Generator: Adobe Illustrator 15.1.0, SVG Export Plug-In . SVG Version: 6.00 Build 0)  -->
<!DOCTYPE svg PUBLIC "-//W3C//DTD SVG 1.1//EN" "http://www.w3.org/Graphics/SVG/1.1/DTD/svg11.dtd">
<svg version="1.1" xmlns="http://www.w3.org/2000/svg" xmlns:xlink="http://www.w3.org/1999/xlink" x="0px" y="0px" width="100px"
	 height="100px" viewBox="0 0 100 100" enable-background="new 0 0 100 100" xml:space="preserve">
<g id="Calque_1">
	<polygon fill="#C69C6D" stroke="#C69C6D" stroke-width="0.2578" stroke-miterlimit="10" points="-8.833,5.833 -8.833,5.833 
		-9.167,5.833 -9.167,5.833 -9.167,5.833 -9.167,5.833 -8.833,5.833 -8.833,5.833 	"/>
</g>
<g id="Calque_4">
</g>
<g id="Calque_6">
</g>
<g id="Calque_5">
	<rect x="9.958" y="10.125" fill="#29ABE2" stroke="#000000" stroke-miterlimit="10" width="81.166" height="81.167"/>
	<polygon fill="#FFFF00" stroke="#000000" stroke-width="0.7277" stroke-miterlimit="10" points="50.541,32.517 55.29,14.636 
		55.249,33.137 64.466,17.095 59.638,34.954 72.69,21.844 63.405,37.845 79.407,28.56 66.296,41.612 84.157,36.785 68.114,46 
		86.614,45.959 68.731,50.708 86.614,55.457 68.114,55.416 84.157,64.631 66.296,59.803 79.407,72.857 63.405,63.572 72.69,79.574 
		59.638,66.463 64.466,84.322 55.249,68.279 55.29,86.779 50.541,68.9 45.792,86.779 45.833,68.279 36.618,84.322 41.445,66.463 
		28.392,79.574 37.678,63.572 21.676,72.857 34.787,59.803 16.927,64.631 32.97,55.416 14.469,55.457 32.349,50.708 14.469,45.959 
		32.97,46 16.927,36.785 34.787,41.612 21.676,28.56 37.678,37.845 28.392,21.844 41.445,34.954 36.618,17.095 45.833,33.137 
		45.792,14.636 	"/>
	<g>
		
			<radialGradient id="SVGID_1_" cx="48.7466" cy="50.7725" r="40.0012" gradientTransform="matrix(0.9947 0 0 0.9057 0.5337 0.5981)" gradientUnits="userSpaceOnUse">
			<stop  offset="0.1" style="stop-color:#000000"/>
			<stop  offset="0.108" style="stop-color:#050401"/>
			<stop  offset="0.1576" style="stop-color:#201908"/>
			<stop  offset="0.2146" style="stop-color:#362A0E"/>
			<stop  offset="0.2812" style="stop-color:#473712"/>
			<stop  offset="0.3636" style="stop-color:#524015"/>
			<stop  offset="0.4792" style="stop-color:#594617"/>
			<stop  offset="0.8" style="stop-color:#5B4717"/>
			<stop  offset="1" style="stop-color:#000000"/>
		</radialGradient>
		<ellipse opacity="0.25" fill="url(#SVGID_1_)" cx="49.02" cy="46.582" rx="39.788" ry="36.228"/>
		
			<radialGradient id="SVGID_2_" cx="64.9248" cy="65.1016" r="1.3325" gradientTransform="matrix(0.9947 0 0 0.9057 0.5337 0.5981)" gradientUnits="userSpaceOnUse">
			<stop  offset="0" style="stop-color:#D4E092"/>
			<stop  offset="0.0582" style="stop-color:#B0BA79"/>
			<stop  offset="0.1353" style="stop-color:#878F5D"/>
			<stop  offset="0.2184" style="stop-color:#636844"/>
			<stop  offset="0.3066" style="stop-color:#44482F"/>
			<stop  offset="0.4013" style="stop-color:#2B2E1E"/>
			<stop  offset="0.5049" style="stop-color:#181910"/>
			<stop  offset="0.622" style="stop-color:#0A0B07"/>
			<stop  offset="0.764" style="stop-color:#020302"/>
			<stop  offset="1" style="stop-color:#000000"/>
		</radialGradient>
		<ellipse fill="url(#SVGID_2_)" cx="65.112" cy="59.559" rx="1.326" ry="1.208"/>
		
			<radialGradient id="SVGID_3_" cx="63.3301" cy="63.6904" r="1.3335" gradientTransform="matrix(0.9947 0 0 0.9057 0.5337 0.5981)" gradientUnits="userSpaceOnUse">
			<stop  offset="0" style="stop-color:#D4E092"/>
			<stop  offset="0.0582" style="stop-color:#B0BA79"/>
			<stop  offset="0.1353" style="stop-color:#878F5D"/>
			<stop  offset="0.2184" style="stop-color:#636844"/>
			<stop  offset="0.3066" style="stop-color:#44482F"/>
			<stop  offset="0.4013" style="stop-color:#2B2E1E"/>
			<stop  offset="0.5049" style="stop-color:#181910"/>
			<stop  offset="0.622" style="stop-color:#0A0B07"/>
			<stop  offset="0.764" style="stop-color:#020302"/>
			<stop  offset="1" style="stop-color:#000000"/>
		</radialGradient>
		<ellipse fill="url(#SVGID_3_)" cx="63.526" cy="58.28" rx="1.327" ry="1.208"/>
		
			<radialGradient id="SVGID_4_" cx="62.7461" cy="63.1738" r="10" gradientTransform="matrix(0.9947 0 0 0.9057 0.5337 0.5981)" gradientUnits="userSpaceOnUse">
			<stop  offset="0.05" style="stop-color:#000000"/>
			<stop  offset="0.0801" style="stop-color:#030702"/>
			<stop  offset="0.2895" style="stop-color:#15310F"/>
			<stop  offset="0.4784" style="stop-color:#235019"/>
			<stop  offset="0.6383" style="stop-color:#2B631F"/>
			<stop  offset="0.75" style="stop-color:#2E6A21"/>
			<stop  offset="0.7896" style="stop-color:#516D13"/>
			<stop  offset="0.8353" style="stop-color:#736F05"/>
			<stop  offset="0.86" style="stop-color:#807000"/>
			<stop  offset="0.8874" style="stop-color:#7C6D00"/>
			<stop  offset="0.9119" style="stop-color:#726300"/>
			<stop  offset="0.9353" style="stop-color:#5F5300"/>
			<stop  offset="0.9579" style="stop-color:#463D00"/>
			<stop  offset="0.9799" style="stop-color:#252000"/>
			<stop  offset="1" style="stop-color:#000000"/>
		</radialGradient>
		<ellipse opacity="0.2" fill="url(#SVGID_4_)" cx="62.945" cy="57.812" rx="9.947" ry="9.058"/>
		<line fill="none" x1="51.921" y1="48.92" x2="63.525" y2="58.28"/>
		
			<radialGradient id="SVGID_5_" cx="51.6631" cy="53.3555" r="26.6675" gradientTransform="matrix(0.9947 0 0 0.9057 0.5337 0.5981)" gradientUnits="userSpaceOnUse">
			<stop  offset="0" style="stop-color:#220504"/>
			<stop  offset="0.73" style="stop-color:#974026"/>
			<stop  offset="1" style="stop-color:#220504"/>
		</radialGradient>
		<ellipse opacity="0.15" fill="url(#SVGID_5_)" cx="51.921" cy="48.92" rx="26.524" ry="24.153"/>
		
			<radialGradient id="SVGID_6_" cx="51.6621" cy="53.3555" r="13.334" gradientTransform="matrix(0.9947 0 0 0.9057 0.5337 0.5981)" gradientUnits="userSpaceOnUse">
			<stop  offset="0.15" style="stop-color:#FFFFFF"/>
			<stop  offset="0.2114" style="stop-color:#E3D1D1"/>
			<stop  offset="0.2918" style="stop-color:#C39A9B"/>
			<stop  offset="0.3613" style="stop-color:#AB7274"/>
			<stop  offset="0.4163" style="stop-color:#9C5A5C"/>
			<stop  offset="0.45" style="stop-color:#975153"/>
			<stop  offset="0.5685" style="stop-color:#6B3435"/>
			<stop  offset="0.6916" style="stop-color:#431B1A"/>
			<stop  offset="0.7898" style="stop-color:#2B0B0A"/>
			<stop  offset="0.85" style="stop-color:#220504"/>
			<stop  offset="0.8573" style="stop-color:#260705"/>
			<stop  offset="0.8648" style="stop-color:#330C08"/>
			<stop  offset="0.8725" style="stop-color:#47150C"/>
			<stop  offset="0.8802" style="stop-color:#642112"/>
			<stop  offset="0.888" style="stop-color:#8A311A"/>
			<stop  offset="0.8958" style="stop-color:#B74424"/>
			<stop  offset="0.9" style="stop-color:#D3502A"/>
			<stop  offset="0.9025" style="stop-color:#C84B28"/>
			<stop  offset="0.9142" style="stop-color:#9C391E"/>
			<stop  offset="0.9263" style="stop-color:#772916"/>
			<stop  offset="0.9389" style="stop-color:#581C10"/>
			<stop  offset="0.952" style="stop-color:#40120A"/>
			<stop  offset="0.9659" style="stop-color:#2F0B07"/>
			<stop  offset="0.9811" style="stop-color:#250605"/>
			<stop  offset="1" style="stop-color:#220504"/>
		</radialGradient>
		<ellipse opacity="0.5" fill="url(#SVGID_6_)" cx="51.92" cy="48.92" rx="13.262" ry="12.077"/>
		
			<radialGradient id="SVGID_7_" cx="51.6641" cy="53.3555" r="11.1113" gradientTransform="matrix(0.9947 0 0 0.9057 0.5337 0.5981)" gradientUnits="userSpaceOnUse">
			<stop  offset="0.15" style="stop-color:#FFFFFF"/>
			<stop  offset="0.2824" style="stop-color:#C2C2C2"/>
			<stop  offset="0.4253" style="stop-color:#888888"/>
			<stop  offset="0.5636" style="stop-color:#575757"/>
			<stop  offset="0.6936" style="stop-color:#313131"/>
			<stop  offset="0.8134" style="stop-color:#161616"/>
			<stop  offset="0.9192" style="stop-color:#060606"/>
			<stop  offset="1" style="stop-color:#000000"/>
		</radialGradient>
		<ellipse fill="url(#SVGID_7_)" cx="51.921" cy="48.92" rx="11.052" ry="10.064"/>
		<polyline opacity="0.03" fill="none" stroke="#FFFFFF" stroke-width="3.7965" stroke-miterlimit="10" points="51.921,48.92 
			40.906,59.994 51.921,48.92 62.937,37.848 51.921,48.92 39.76,38.891 51.921,48.92 64.083,58.95 51.921,48.92 59.141,55.729 
			51.921,48.92 44.7,42.113 51.921,48.92 44.444,55.495 51.921,48.92 59.397,42.346 51.921,48.92 89.857,91.334 51.921,48.92 
			13.984,6.509 51.921,48.92 5.343,83.464 51.921,48.92 98.5,14.377 51.921,48.92 33.6,70.463 51.921,48.92 70.241,27.381 
			51.921,48.92 28.265,32.239 51.921,48.92 75.578,65.604 51.921,48.92 48.337,70.662 51.921,48.92 55.504,27.181 51.921,48.92 
			28.045,45.658 51.921,48.92 75.798,52.185 51.921,48.92 60.087,70.372 51.921,48.92 43.755,27.471 51.921,48.92 28.364,56.357 
			51.921,48.92 75.479,41.485 51.921,48.92 50.814,65.312 51.921,48.92 53.027,32.531 51.921,48.92 33.921,47.914 51.921,48.92 
			69.921,49.929 51.921,48.92 52.095,73.42 51.921,48.92 51.747,24.422 51.921,48.92 25.016,49.08 51.921,48.92 78.826,48.763 
			51.921,48.92 18.04,84.042 51.921,48.92 85.803,13.8 51.921,48.92 13.35,18.071 51.921,48.92 90.492,79.772 51.921,48.92 
			27.488,90.939 51.921,48.92 76.355,6.904 51.921,48.92 5.776,26.673 51.921,48.92 98.066,71.17 51.921,48.92 28.381,80.158 
			51.921,48.92 75.46,17.685 51.921,48.92 17.616,27.487 51.921,48.92 86.226,70.354 51.921,48.92 22.197,83.048 51.921,48.92 
			81.646,14.795 51.921,48.92 14.442,21.855 51.921,48.92 89.4,75.986 51.921,48.92 54.011,55.758 51.921,48.92 49.831,42.084 
			51.921,48.92 44.413,50.824 51.921,48.92 59.429,47.019 51.921,48.92 42.846,73.275 51.921,48.92 60.996,24.568 51.921,48.92 
			25.176,40.657 51.921,48.92 78.667,57.185 51.921,48.92 49.272,90.722 51.921,48.92 54.569,7.121 51.921,48.92 6.014,46.509 
			51.921,48.92 97.828,51.333 		"/>
		
			<radialGradient id="SVGID_8_" cx="63.3301" cy="63.6904" r="20.0005" gradientTransform="matrix(0.9947 0 0 0.9057 0.5337 0.5981)" gradientUnits="userSpaceOnUse">
			<stop  offset="0.64" style="stop-color:#000000"/>
			<stop  offset="0.718" style="stop-color:#000201"/>
			<stop  offset="0.7461" style="stop-color:#020902"/>
			<stop  offset="0.7661" style="stop-color:#041405"/>
			<stop  offset="0.7823" style="stop-color:#07250A"/>
			<stop  offset="0.796" style="stop-color:#0B3B10"/>
			<stop  offset="0.8" style="stop-color:#0C4312"/>
			<stop  offset="0.8114" style="stop-color:#1B300E"/>
			<stop  offset="0.8287" style="stop-color:#2D1A0A"/>
			<stop  offset="0.8452" style="stop-color:#370D08"/>
			<stop  offset="0.86" style="stop-color:#3B0807"/>
			<stop  offset="0.8724" style="stop-color:#250504"/>
			<stop  offset="0.8868" style="stop-color:#140302"/>
			<stop  offset="0.9048" style="stop-color:#090101"/>
			<stop  offset="0.93" style="stop-color:#020000"/>
			<stop  offset="1" style="stop-color:#000000"/>
		</radialGradient>
		<ellipse opacity="0.5" fill="url(#SVGID_8_)" cx="63.526" cy="58.28" rx="19.893" ry="18.115"/>
		
			<radialGradient id="SVGID_9_" cx="62.7383" cy="63.165" r="3.6899" gradientTransform="matrix(0.9947 0 0 0.9057 0.5337 0.5981)" gradientUnits="userSpaceOnUse">
			<stop  offset="0.1" style="stop-color:#000000"/>
			<stop  offset="0.1856" style="stop-color:#161113"/>
			<stop  offset="0.3404" style="stop-color:#382C30"/>
			<stop  offset="0.4985" style="stop-color:#534146"/>
			<stop  offset="0.6592" style="stop-color:#665056"/>
			<stop  offset="0.8243" style="stop-color:#715960"/>
			<stop  offset="1" style="stop-color:#755C63"/>
		</radialGradient>
		<ellipse fill="url(#SVGID_9_)" cx="62.937" cy="57.806" rx="3.669" ry="3.342"/>
		
			<radialGradient id="SVGID_10_" cx="59.2031" cy="60.0332" r="6.3477" gradientTransform="matrix(0.9947 0 0 0.9057 0.5337 0.5981)" gradientUnits="userSpaceOnUse">
			<stop  offset="0.1" style="stop-color:#748197"/>
			<stop  offset="0.1414" style="stop-color:#697589"/>
			<stop  offset="0.2768" style="stop-color:#49515F"/>
			<stop  offset="0.4154" style="stop-color:#2F343D"/>
			<stop  offset="0.5555" style="stop-color:#1A1D22"/>
			<stop  offset="0.698" style="stop-color:#0C0D0F"/>
			<stop  offset="0.8443" style="stop-color:#030304"/>
			<stop  offset="1" style="stop-color:#000000"/>
		</radialGradient>
		<ellipse fill="url(#SVGID_10_)" cx="59.42" cy="54.969" rx="6.314" ry="5.75"/>
		
			<radialGradient id="SVGID_11_" cx="56.0762" cy="57.2646" r="1.7554" gradientTransform="matrix(0.9947 0 0 0.9057 0.5337 0.5981)" gradientUnits="userSpaceOnUse">
			<stop  offset="0.1" style="stop-color:#004229"/>
			<stop  offset="0.1363" style="stop-color:#003D26"/>
			<stop  offset="0.3424" style="stop-color:#002215"/>
			<stop  offset="0.5532" style="stop-color:#000F09"/>
			<stop  offset="0.7695" style="stop-color:#000402"/>
			<stop  offset="1" style="stop-color:#000000"/>
		</radialGradient>
		<ellipse fill="url(#SVGID_11_)" cx="56.31" cy="52.46" rx="1.747" ry="1.591"/>
		
			<radialGradient id="SVGID_12_" cx="59.0352" cy="59.8848" r="4.0488" gradientTransform="matrix(0.9947 0 0 0.9057 0.5337 0.5981)" gradientUnits="userSpaceOnUse">
			<stop  offset="0.1" style="stop-color:#755C63"/>
			<stop  offset="0.1856" style="stop-color:#5F4B50"/>
			<stop  offset="0.3404" style="stop-color:#3D3033"/>
			<stop  offset="0.4985" style="stop-color:#221B1D"/>
			<stop  offset="0.6592" style="stop-color:#0F0C0D"/>
			<stop  offset="0.8243" style="stop-color:#040303"/>
			<stop  offset="1" style="stop-color:#000000"/>
		</radialGradient>
		<ellipse fill="url(#SVGID_12_)" cx="59.254" cy="54.834" rx="4.027" ry="3.667"/>
		
			<radialGradient id="SVGID_13_" cx="63.2949" cy="63.6582" r="6.0771" gradientTransform="matrix(0.9947 0 0 0.9057 0.5337 0.5981)" gradientUnits="userSpaceOnUse">
			<stop  offset="0.1" style="stop-color:#0E270C"/>
			<stop  offset="0.1571" style="stop-color:#0C220A"/>
			<stop  offset="0.4267" style="stop-color:#050F05"/>
			<stop  offset="0.7042" style="stop-color:#010401"/>
			<stop  offset="1" style="stop-color:#000000"/>
		</radialGradient>
		<ellipse fill="url(#SVGID_13_)" cx="63.491" cy="58.252" rx="6.043" ry="5.505"/>
	</g>
</g>
</svg>
