<?xml version="1.0" encoding="utf-8"?>
<!-- Generator: Adobe Illustrator 15.1.0, SVG Export Plug-In . SVG Version: 6.00 Build 0)  -->
<!DOCTYPE svg PUBLIC "-//W3C//DTD SVG 1.1//EN" "http://www.w3.org/Graphics/SVG/1.1/DTD/svg11.dtd">
<svg version="1.1" xmlns="http://www.w3.org/2000/svg" xmlns:xlink="http://www.w3.org/1999/xlink" x="0px" y="0px" width="100px"
	 height="100px" viewBox="0 0 100 100" enable-background="new 0 0 100 100" xml:space="preserve">
<g id="Calque_1">
	
		<rect x="11.629" y="9.722" fill="#009245" stroke="#009245" stroke-width="1.0017" stroke-miterlimit="10" width="80.14" height="80.14"/>
	<polyline fill="#E6E6E6" points="92.48,42.238 92.837,83.398 11.092,84.107 10.606,28.104 92.352,27.395 92.48,42.238 	"/>
	<path fill="#B3B3B3" d="M29.5,42.557c-0.015,1.76-1.455,3.175-3.215,3.16l-7-0.059c-1.76-0.015-3.175-1.454-3.161-3.214l0,0
		c0.015-1.76,1.455-3.175,3.215-3.16l7,0.059C28.1,39.357,29.515,40.796,29.5,42.557L29.5,42.557z"/>
	<path fill="#B3B3B3" d="M92.5,47.292h-5.646c-1.645,0-2.979-1.512-2.979-3.375l0,0c0-1.864,1.334-3.375,2.979-3.375h5.313"/>
	<path fill="#B3B3B3" d="M11.333,74.209h1.229c1.645,0,2.979,1.511,2.979,3.375l0,0c0,1.863-1.334,3.375-2.979,3.375h-0.896"/>
	<path fill="#B3B3B3" d="M34.208,75.583c0,1.864-1.334,3.375-2.979,3.375h-6.542c-1.645,0-2.979-1.511-2.979-3.375l0,0
		c0-1.863,1.334-3.375,2.979-3.375h6.542C32.874,72.208,34.208,73.72,34.208,75.583L34.208,75.583z"/>
	<path fill="#B3B3B3" d="M91.375,58.25c0,1.863-1.334,3.375-2.979,3.375h-6.542c-1.646,0-2.979-1.512-2.979-3.375l0,0
		c0-1.864,1.334-3.375,2.979-3.375h6.542C90.041,54.875,91.375,56.386,91.375,58.25L91.375,58.25z"/>
	<path fill="#B3B3B3" d="M92.5,74.624h-7.606c-2.611,0-4.728-1.362-4.728-3.042c0.293-0.581-1.71-2.571,4.728-3.041h7.773"/>
	<path fill="#B3B3B3" d="M11.167,49.041h2.606c2.609,0,4.727,1.361,4.727,3.041l0,0c0,1.68-2.117,3.042-4.727,3.042H11"/>
	<path fill="#B3B3B3" d="M29.417,62.438c0,1.76-1.427,3.188-3.188,3.188h-7c-1.76,0-3.188-1.428-3.188-3.188l0,0
		c0-1.76,1.427-3.188,3.188-3.188h7C27.989,59.25,29.417,60.678,29.417,62.438L29.417,62.438z"/>
	<path fill="#B3B3B3" d="M56.875,70.229c0,1.483-1.067,2.688-2.383,2.688h-5.234c-1.315,0-2.383-1.204-2.383-2.688l0,0
		c0-1.483,1.067-2.688,2.383-2.688h5.234C55.808,67.541,56.875,68.745,56.875,70.229L56.875,70.229z"/>
	<path fill="#B3B3B3" d="M73.979,46.666c0,1.276-1.133,2.312-2.531,2.312h-5.562c-1.397,0-2.532-1.036-2.532-2.312l0,0
		c0-1.276,1.135-2.312,2.532-2.312h5.562C72.847,44.354,73.979,45.39,73.979,46.666L73.979,46.666z"/>
	<path fill="#B3B3B3" d="M51.5,44.75c0,2.109-1.428,3.818-3.187,3.818h-7.001c-1.759,0-3.187-1.709-3.187-3.818l0,0
		c0-2.109,1.428-3.818,3.187-3.818h7.001C50.072,40.932,51.5,42.641,51.5,44.75L51.5,44.75z"/>
	<polygon fill="#C69C6D" stroke="#C69C6D" stroke-width="0.2578" stroke-miterlimit="10" points="-8.833,5.833 -8.833,5.833 
		-9.167,5.833 -9.167,5.833 -9.167,5.833 -9.167,5.833 -8.833,5.833 -8.833,5.833 	"/>
	<rect x="11.166" y="27" fill="#B3B3B3" width="81.001" height="9"/>
	<g>
		<polygon fill="#8C6239" stroke="#534741" stroke-width="0.8588" stroke-miterlimit="10" points="21.373,12.256 20.488,21.085 
			22.362,33.876 27,32.998 24.859,20.257 		"/>
		<polygon fill="#C69C6D" stroke="#C69C6D" stroke-width="0.2214" stroke-miterlimit="10" points="21.406,12.25 21.557,15.723 
			22.314,20.894 23.077,20.749 22.276,15.587 		"/>
		<path fill="#C69C6D" stroke="#534741" stroke-width="0.2573" stroke-miterlimit="10" d="M25.451,20.223
			c0.03,0.208-0.145,0.414-0.394,0.46l-4.469,0.847c-0.248,0.048-0.472-0.083-0.503-0.291l0,0c-0.03-0.208,0.145-0.415,0.393-0.462
			l4.469-0.847C25.195,19.883,25.42,20.015,25.451,20.223L25.451,20.223z"/>
		
			<line fill="none" stroke="#534741" stroke-width="0.8588" stroke-miterlimit="10" x1="22.696" y1="21.286" x2="24.483" y2="33.475"/>
		<path fill="#C69C6D" stroke="#534741" stroke-width="0.2557" stroke-miterlimit="10" d="M26.415,27.155
			c0.031,0.208-0.142,0.414-0.387,0.46l-4.415,0.835c-0.244,0.046-0.467-0.085-0.497-0.292l0,0c-0.03-0.208,0.143-0.414,0.387-0.46
			l4.416-0.834C26.162,26.816,26.385,26.947,26.415,27.155L26.415,27.155z"/>
	</g>
	<g>
		<polygon fill="#8C6239" stroke="#534741" stroke-width="0.8659" stroke-miterlimit="10" points="40.637,13.5 38.583,21.526 
			39.026,33.586 44.157,33.41 43.421,21.36 		"/>
		<polygon fill="#C69C6D" stroke="#C69C6D" stroke-width="0.2232" stroke-miterlimit="10" points="40.673,13.499 40.406,16.724 
			40.585,21.6 41.429,21.57 41.202,16.698 		"/>
		<path fill="#C69C6D" stroke="#534741" stroke-width="0.2594" stroke-miterlimit="10" d="M44.066,21.408
			c0.007,0.195-0.209,0.363-0.484,0.372l-4.946,0.173c-0.274,0.009-0.501-0.143-0.508-0.338l0,0
			c-0.007-0.195,0.208-0.362,0.482-0.372l4.946-0.171C43.831,21.061,44.058,21.212,44.066,21.408L44.066,21.408z"/>
		
			<line fill="none" stroke="#534741" stroke-width="0.8659" stroke-miterlimit="10" x1="40.949" y1="22.013" x2="41.372" y2="33.505"/>
		<path fill="#C69C6D" stroke="#534741" stroke-width="0.2578" stroke-miterlimit="10" d="M44.25,27.937
			c0.007,0.195-0.206,0.362-0.478,0.371l-4.885,0.169c-0.271,0.009-0.495-0.143-0.502-0.338l0,0
			c-0.007-0.196,0.206-0.363,0.476-0.371l4.886-0.168C44.019,27.59,44.242,27.74,44.25,27.937L44.25,27.937z"/>
	</g>
	<g>
		<polygon fill="#8C6239" stroke="#534741" stroke-width="0.8804" stroke-miterlimit="10" points="84.395,11.492 81.554,20.214 
			80.515,33.712 85.231,34.082 86.002,20.563 		"/>
		<polygon fill="#C69C6D" stroke="#C69C6D" stroke-width="0.227" stroke-miterlimit="10" points="84.428,11.495 83.798,15.062 
			83.376,20.519 84.152,20.579 84.529,15.12 		"/>
		<path fill="#C69C6D" stroke="#534741" stroke-width="0.2637" stroke-miterlimit="10" d="M86.587,20.688
			c-0.018,0.219-0.235,0.381-0.487,0.361l-4.549-0.352c-0.253-0.021-0.441-0.215-0.425-0.434l0,0
			c0.017-0.219,0.233-0.381,0.486-0.361l4.548,0.354C86.412,20.275,86.603,20.469,86.587,20.688L86.587,20.688z"/>
		
			<line fill="none" stroke="#534741" stroke-width="0.8804" stroke-miterlimit="10" x1="83.66" y1="21.02" x2="82.671" y2="33.881"/>
		<path fill="#C69C6D" stroke="#534741" stroke-width="0.2621" stroke-miterlimit="10" d="M85.972,27.989
			c-0.017,0.219-0.23,0.382-0.481,0.362L81,28c-0.248-0.02-0.437-0.213-0.419-0.432l0,0c0.016-0.22,0.231-0.382,0.48-0.361
			l4.491,0.351C85.803,27.577,85.988,27.769,85.972,27.989L85.972,27.989z"/>
	</g>
	<line fill="none" stroke="#736357" stroke-width="2" stroke-miterlimit="10" x1="11" y1="36" x2="92.167" y2="35.667"/>
	<g>
		<polygon fill="#8C6239" stroke="#534741" stroke-width="0.8116" stroke-miterlimit="10" points="55.143,16.522 52.926,23.056 
			53.404,32.873 58.941,32.729 58.148,22.921 		"/>
		<polygon fill="#C69C6D" stroke="#C69C6D" stroke-width="0.2093" stroke-miterlimit="10" points="55.182,16.521 54.895,19.146 
			55.087,23.116 55.998,23.092 55.752,19.125 		"/>
		<path fill="#C69C6D" stroke="#534741" stroke-width="0.2431" stroke-miterlimit="10" d="M58.844,22.959
			c0.008,0.159-0.226,0.296-0.521,0.303l-5.338,0.142c-0.297,0.007-0.542-0.117-0.549-0.276l0,0
			c-0.008-0.159,0.223-0.295,0.52-0.303l5.338-0.14C58.59,22.677,58.836,22.8,58.844,22.959L58.844,22.959z"/>
		
			<line fill="none" stroke="#534741" stroke-width="0.8116" stroke-miterlimit="10" x1="55.48" y1="23.452" x2="55.937" y2="32.808"/>
		<path fill="#C69C6D" stroke="#534741" stroke-width="0.2416" stroke-miterlimit="10" d="M59.043,28.274
			c0.008,0.159-0.222,0.295-0.516,0.302l-5.271,0.138c-0.293,0.008-0.535-0.116-0.543-0.275l0,0
			c-0.008-0.159,0.222-0.295,0.514-0.302L58.5,28C58.793,27.992,59.034,28.114,59.043,28.274L59.043,28.274z"/>
	</g>
	<line fill="none" stroke="#333333" stroke-width="1.9991" stroke-miterlimit="10" x1="11.408" y1="84" x2="92.333" y2="83.5"/>
	<g>
		<polygon fill="#8C6239" stroke="#534741" stroke-miterlimit="10" points="21.591,63.9 18.92,73.234 18.915,87.399 24.749,87.402 
			24.421,73.235 		"/>
		<polygon fill="#C69C6D" stroke="#C69C6D" stroke-width="0.2578" stroke-miterlimit="10" points="21.633,63.901 21.193,67.675 
			21.191,73.4 22.15,73.401 22.097,67.675 		"/>
		<path fill="#C69C6D" stroke="#534741" stroke-width="0.2996" stroke-miterlimit="10" d="M25.15,73.318
			c0,0.23-0.251,0.416-0.563,0.417l-5.624-0.001c-0.312,0-0.563-0.188-0.563-0.416l0,0c0-0.231,0.251-0.418,0.563-0.418l5.623,0.001
			C24.898,72.901,25.15,73.088,25.15,73.318L25.15,73.318z"/>
		<line fill="none" stroke="#534741" stroke-miterlimit="10" x1="21.587" y1="73.901" x2="21.582" y2="87.4"/>
		<path fill="#C69C6D" stroke="#534741" stroke-width="0.2977" stroke-miterlimit="10" d="M25.084,80.985
			c0,0.23-0.249,0.418-0.556,0.417l-5.554-0.003c-0.308,0.001-0.556-0.186-0.556-0.417l0,0c0-0.229,0.249-0.417,0.556-0.416
			l5.554,0.003C24.836,80.568,25.084,80.755,25.084,80.985L25.084,80.985z"/>
	</g>
	<g>
		<polygon fill="#8C6239" stroke="#534741" stroke-width="0.881" stroke-miterlimit="10" points="80.642,64.196 79.569,73.47 
			81.091,87.668 85.628,87.849 83.846,73.639 		"/>
		<polygon fill="#C69C6D" stroke="#C69C6D" stroke-width="0.2271" stroke-miterlimit="10" points="80.674,64.198 80.737,67.966 
			81.353,73.706 82.099,73.735 81.441,67.994 		"/>
		<path fill="#C69C6D" stroke="#534741" stroke-width="0.2639" stroke-miterlimit="10" d="M84.423,73.745
			c0.023,0.23-0.151,0.41-0.395,0.399l-4.372-0.172c-0.242-0.01-0.457-0.205-0.481-0.435l0,0c-0.025-0.232,0.148-0.412,0.393-0.401
			l4.372,0.173C84.183,73.318,84.398,73.514,84.423,73.745L84.423,73.745z"/>
		
			<line fill="none" stroke="#534741" stroke-width="0.881" stroke-miterlimit="10" x1="81.715" y1="74.22" x2="83.165" y2="87.751"/>
		<path fill="#C69C6D" stroke="#534741" stroke-width="0.2623" stroke-miterlimit="10" d="M85.197,81.428
			c0.024,0.23-0.147,0.409-0.388,0.4l-4.319-0.172c-0.239-0.011-0.453-0.204-0.477-0.435l0,0c-0.024-0.232,0.149-0.41,0.387-0.401
			l4.319,0.173C84.958,81.003,85.173,81.197,85.197,81.428L85.197,81.428z"/>
	</g>
	<path fill="#B3B3B3" d="M38.228,59.876c0.272-2.043-2.546-4.271,4.138-4.902c6.683-0.633,8.159-1.793,9.331-1.925
		s2.127-1.397,5.627,0.817c3.501,2.214,5.093,5.061,5.093,5.061l-0.318,1.74C62.098,60.667,37.956,61.919,38.228,59.876z"/>
	<g>
		<polygon fill="#8C6239" stroke="#534741" stroke-width="0.6759" stroke-miterlimit="10" points="69.83,16.5 68.291,23.02 
			68.623,32.818 72.471,32.676 71.92,22.885 		"/>
		<polygon fill="#C69C6D" stroke="#C69C6D" stroke-width="0.1743" stroke-miterlimit="10" points="69.858,16.499 69.658,19.12 
			69.793,23.08 70.426,23.057 70.255,19.097 		"/>
		<path fill="#C69C6D" stroke="#534741" stroke-width="0.2025" stroke-miterlimit="10" d="M72.402,22.925
			c0.006,0.159-0.156,0.294-0.363,0.301l-3.709,0.141c-0.205,0.007-0.376-0.116-0.381-0.275l0,0
			c-0.006-0.159,0.156-0.293,0.362-0.301l3.709-0.14C72.227,22.642,72.396,22.766,72.402,22.925L72.402,22.925z"/>
		
			<line fill="none" stroke="#534741" stroke-width="0.6759" stroke-miterlimit="10" x1="70.064" y1="23.417" x2="70.383" y2="32.753"/>
		<path fill="#C69C6D" stroke="#534741" stroke-width="0.2012" stroke-miterlimit="10" d="M72.541,28.229
			c0.006,0.159-0.154,0.293-0.357,0.301l-3.664,0.137c-0.203,0.008-0.371-0.116-0.377-0.275l0,0
			c-0.006-0.159,0.154-0.295,0.357-0.301l3.664-0.136C72.367,27.947,72.535,28.069,72.541,28.229L72.541,28.229z"/>
	</g>
	<g>
		<polygon fill="#8C6239" stroke="#534741" stroke-width="0.9546" stroke-miterlimit="10" points="40.34,65.5 37.669,74.006 
			37.664,86.915 43.498,86.918 43.17,74.007 		"/>
		<polygon fill="#C69C6D" stroke="#C69C6D" stroke-width="0.2461" stroke-miterlimit="10" points="40.382,65.501 39.942,68.939 
			39.94,74.157 40.899,74.158 40.846,68.939 		"/>
		<path fill="#C69C6D" stroke="#534741" stroke-width="0.286" stroke-miterlimit="10" d="M43.899,74.083
			c0,0.21-0.251,0.379-0.563,0.38l-5.624-0.001c-0.312,0-0.563-0.171-0.563-0.379l0,0c0-0.211,0.251-0.381,0.563-0.381l5.623,0.001
			C43.647,73.703,43.899,73.873,43.899,74.083L43.899,74.083z"/>
		
			<line fill="none" stroke="#534741" stroke-width="0.9546" stroke-miterlimit="10" x1="40.336" y1="74.614" x2="40.331" y2="86.916"/>
		<path fill="#C69C6D" stroke="#534741" stroke-width="0.2842" stroke-miterlimit="10" d="M43.833,81.07
			c0,0.21-0.249,0.381-0.556,0.38l-5.554-0.003c-0.308,0.001-0.556-0.169-0.556-0.38l0,0c0-0.209,0.249-0.38,0.556-0.379
			l5.554,0.002C43.585,80.69,43.833,80.86,43.833,81.07L43.833,81.07z"/>
	</g>
	<g>
		<polygon fill="#8C6239" stroke="#534741" stroke-width="0.9527" stroke-miterlimit="10" points="62.811,63.88 59.774,72.97 
			58.845,87.056 64.141,87.477 64.771,73.364 		"/>
		<polygon fill="#C69C6D" stroke="#C69C6D" stroke-width="0.2456" stroke-miterlimit="10" points="62.848,61.89 62.203,65.61 
			61.826,71.304 62.696,71.374 63.023,65.676 		"/>
		<path fill="#C69C6D" stroke="#534741" stroke-width="0.2854" stroke-miterlimit="10" d="M65.427,71.505
			c-0.015,0.23-0.256,0.396-0.54,0.375l-5.106-0.404c-0.283-0.022-0.497-0.227-0.483-0.453l0,0c0.016-0.23,0.255-0.397,0.539-0.375
			l5.105,0.403C65.226,71.073,65.441,71.276,65.427,71.505L65.427,71.505z"/>
		
			<line fill="none" stroke="#534741" stroke-width="0.9527" stroke-miterlimit="10" x1="62.153" y1="71.831" x2="61.267" y2="85.254"/>
		<path fill="#C69C6D" stroke="#534741" stroke-width="0.2836" stroke-miterlimit="10" d="M64.865,79.124
			c-0.016,0.23-0.253,0.398-0.532,0.376l-5.043-0.4c-0.279-0.021-0.492-0.224-0.478-0.455l0,0c0.015-0.228,0.252-0.396,0.533-0.373
			l5.042,0.4C64.666,78.692,64.88,78.896,64.865,79.124L64.865,79.124z"/>
	</g>
	<path fill="#B3B3B3" d="M68.167,64.834c0,0,1.834-2.167,4.5-1.667s-0.5,3.166,1,3.833S73,70.667,73,70.667l-4.833,0.167
		c0,0-1.168-1.168-0.834-2.834S68.167,64.834,68.167,64.834z"/>
</g>
<g id="Calque_4">
</g>
<g id="Calque_6">
</g>
<g id="Calque_5">
</g>
</svg>
