<?xml version="1.0" encoding="utf-8"?>
<!-- Generator: Adobe Illustrator 15.1.0, SVG Export Plug-In . SVG Version: 6.00 Build 0)  -->
<!DOCTYPE svg PUBLIC "-//W3C//DTD SVG 1.1//EN" "http://www.w3.org/Graphics/SVG/1.1/DTD/svg11.dtd">
<svg version="1.1" id="Calque_4" xmlns="http://www.w3.org/2000/svg" xmlns:xlink="http://www.w3.org/1999/xlink" x="0px" y="0px"
	 width="100px" height="100px" viewBox="0 0 100 100" enable-background="new 0 0 100 100" xml:space="preserve">
<rect x="10.191" y="10.126" fill="#009245" stroke="#009245" stroke-width="1.0185" stroke-miterlimit="10" width="81.643" height="81.304"/>
<line fill="none" stroke="#333333" stroke-width="2.0233" stroke-miterlimit="10" x1="9.677" y1="91.51" x2="92.468" y2="91.008"/>
<g>
	<polygon fill="#8C6239" stroke="#534741" stroke-width="1.8334" stroke-miterlimit="10" points="27.722,21.055 21.863,41.305 
		18.998,72.904 27.675,74.154 30.048,42.48 	"/>
	<polygon fill="#C69C6D" stroke="#C69C6D" stroke-width="0.4727" stroke-miterlimit="10" points="27.972,16.586 26.56,24.909 
		25.398,37.68 26.822,37.886 27.9,25.102 	"/>
	<path fill="#C69C6D" stroke="#534741" stroke-width="0.5492" stroke-miterlimit="10" d="M31.304,38.341
		c-0.045,0.516-0.458,0.875-0.924,0.811l-8.366-1.203c-0.464-0.067-0.796-0.538-0.751-1.047l0,0
		c0.047-0.514,0.458-0.877,0.923-0.812l8.362,1.201C31.015,37.357,31.35,37.827,31.304,38.341L31.304,38.341z"/>
	
		<line fill="none" stroke="#534741" stroke-width="1.8334" stroke-miterlimit="10" x1="25.885" y1="38.883" x2="23.153" y2="68.996"/>
	<path fill="#C69C6D" stroke="#534741" stroke-width="0.5458" stroke-miterlimit="10" d="M29.656,55.429
		c-0.046,0.519-0.453,0.88-0.91,0.812l-8.261-1.189c-0.46-0.062-0.791-0.529-0.744-1.048l0,0c0.045-0.51,0.453-0.877,0.912-0.808
		l8.26,1.188C29.371,54.446,29.703,54.914,29.656,55.429L29.656,55.429z"/>
</g>
<g>
	<polygon fill="#8C6239" stroke="#534741" stroke-width="1.9841" stroke-miterlimit="10" points="56.638,25.558 46.947,43.771 
		38.863,74.32 48.4,78.514 55.946,47.721 	"/>
	<polygon fill="#C69C6D" stroke="#C69C6D" stroke-width="0.5115" stroke-miterlimit="10" points="57.606,21.186 54.741,29.008 
		51.471,41.353 53.036,42.043 56.217,29.656 	"/>
	<path fill="#C69C6D" stroke="#534741" stroke-width="0.5943" stroke-miterlimit="10" d="M57.991,44.018
		c-0.13,0.499-0.647,0.717-1.161,0.494l-9.196-4.039c-0.511-0.226-0.81-0.807-0.682-1.299l0,0c0.133-0.498,0.648-0.722,1.161-0.498
		l9.191,4.037C57.819,42.939,58.122,43.519,57.991,44.018L57.991,44.018z"/>
	
		<line fill="none" stroke="#534741" stroke-width="1.9841" stroke-miterlimit="10" x1="51.83" y1="42.719" x2="44.125" y2="71.834"/>
	<path fill="#C69C6D" stroke="#534741" stroke-width="0.5907" stroke-miterlimit="10" d="M53.509,60.504
		c-0.131,0.5-0.642,0.727-1.145,0.502l-9.081-3.99c-0.506-0.221-0.804-0.797-0.672-1.297l0,0c0.129-0.493,0.643-0.721,1.147-0.499
		l9.08,3.991C53.341,59.428,53.64,60.006,53.509,60.504L53.509,60.504z"/>
</g>
<g>
	<polygon fill="#8C6239" stroke="#534741" stroke-width="2.0801" stroke-miterlimit="10" points="76.257,20.625 73.473,41.937 
		76.994,73.723 88.151,72.93 84,41.183 	"/>
	<polygon fill="#C69C6D" stroke="#C69C6D" stroke-width="0.5363" stroke-miterlimit="10" points="75.568,16.167 75.671,24.693 
		77.089,37.541 78.919,37.413 77.395,24.57 	"/>
	<path fill="#C69C6D" stroke="#534741" stroke-width="0.6231" stroke-miterlimit="10" d="M84.641,36.812
		c0.06,0.519-0.376,0.97-0.977,1.014l-10.759,0.771c-0.599,0.043-1.118-0.344-1.176-0.855l0,0c-0.058-0.519,0.376-0.971,0.972-1.015
		l10.753-0.771C84.059,35.911,84.584,36.295,84.641,36.812L84.641,36.812z"/>
	
		<line fill="none" stroke="#534741" stroke-width="2.0801" stroke-miterlimit="10" x1="77.969" y1="38.613" x2="81.322" y2="68.906"/>
	<path fill="#C69C6D" stroke="#534741" stroke-width="0.6193" stroke-miterlimit="10" d="M86.424,54.023
		c0.057,0.521-0.369,0.975-0.96,1.014l-10.625,0.76c-0.59,0.045-1.107-0.336-1.167-0.859l0,0c-0.059-0.513,0.368-0.97,0.959-1.011
		l10.626-0.757C85.843,53.125,86.363,53.507,86.424,54.023L86.424,54.023z"/>
</g>
<polyline fill="#E6E6E6" points="92.184,59.039 92.483,89.975 9.967,90.615 9.56,48.524 92.076,47.883 92.184,59.039 "/>
<path fill="#808080" d="M84.117,82.299c0,2.496-2.13,4.518-4.76,4.518H68.898c-2.63,0-4.762-2.023-4.762-4.518l0,0
	c0-2.496,2.132-4.52,4.762-4.52h10.46C81.987,77.779,84.117,79.803,84.117,82.299L84.117,82.299z"/>
<path fill="#808080" d="M91.787,67.098l-2.607-0.037c-2.613-0.037-4.684-2.801-4.625-6.17l0,0c0.061-3.373,2.229-6.077,4.84-6.042
	l2.777,0.04"/>
<path fill="#808080" d="M10.934,74.117l2.606,0.104c2.61,0.104,4.593,2.92,4.425,6.287l0,0c-0.167,3.369-2.421,6.016-5.032,5.912
	l-2.774-0.109"/>
<path fill="#808080" d="M36.879,70.787c0.386-3.992-3.623-8.344,5.887-9.578c9.507-1.236,11.607-3.504,13.274-3.76
	c1.667-0.258,3.025-2.732,8.007,1.598c4.981,4.322,7.245,9.885,7.245,9.885l-0.454,3.4C70.839,72.332,36.493,74.777,36.879,70.787z"
	/>
<path fill="#808080" d="M10.359,54.351c0,0,15.851,0.108,14.433,3.04c-1.417,2.936,2.566,6.082,1.925,7.189
	c-0.642,1.105-3.849,6.08-8.02,4.146c-4.168-1.936-8.338-0.83-8.338-0.83"/>
<line fill="none" stroke="#534741" stroke-width="3.038" stroke-miterlimit="10" x1="9.805" y1="47.989" x2="92.596" y2="47.806"/>
<line fill="none" stroke="#333333" stroke-width="2.0233" stroke-miterlimit="10" x1="9.557" y1="50.088" x2="92.351" y2="49.587"/>
<g id="Calque_5_1_">
</g>
</svg>
