<?xml version="1.0" encoding="utf-8"?>
<!-- Generator: Adobe Illustrator 15.1.0, SVG Export Plug-In . SVG Version: 6.00 Build 0)  -->
<!DOCTYPE svg PUBLIC "-//W3C//DTD SVG 1.1//EN" "http://www.w3.org/Graphics/SVG/1.1/DTD/svg11.dtd">
<svg version="1.1" xmlns="http://www.w3.org/2000/svg" xmlns:xlink="http://www.w3.org/1999/xlink" x="0px" y="0px" width="100px"
	 height="100px" viewBox="0 0 100 100" enable-background="new 0 0 100 100" xml:space="preserve">
<g id="Calque_1">
	<rect x="-0.018" fill="#009245" stroke="#009245" stroke-width="1.2468" stroke-miterlimit="10" width="99.949" height="99.533"/>
	<polygon fill="#C69C6D" stroke="#C69C6D" stroke-width="0.2578" stroke-miterlimit="10" points="-8.833,5.833 -8.833,5.833 
		-9.167,5.833 -9.167,5.833 -9.167,5.833 -9.167,5.833 -8.833,5.833 -8.833,5.833 	"/>
	
		<line fill="none" stroke="#333333" stroke-width="2.4769" stroke-miterlimit="10" x1="-0.646" y1="99.631" x2="100.707" y2="99.018"/>
	<g>
		<polygon fill="#8C6239" stroke="#534741" stroke-width="2.2445" stroke-miterlimit="10" points="21.444,13.379 14.272,38.17 
			10.764,76.853 21.386,78.386 24.292,39.609 		"/>
		<polygon fill="#C69C6D" stroke="#C69C6D" stroke-width="0.5787" stroke-miterlimit="10" points="21.75,7.909 20.021,18.098 
			18.599,33.732 20.342,33.985 21.662,18.334 		"/>
		<path fill="#C69C6D" stroke="#534741" stroke-width="0.6723" stroke-miterlimit="10" d="M25.829,34.541
			c-0.055,0.632-0.561,1.071-1.131,0.992l-10.242-1.472c-0.568-0.082-0.975-0.658-0.92-1.282l0,0c0.058-0.63,0.56-1.075,1.13-0.994
			l10.237,1.471C25.475,33.337,25.885,33.911,25.829,34.541L25.829,34.541z"/>
		
			<line fill="none" stroke="#534741" stroke-width="2.2445" stroke-miterlimit="10" x1="19.195" y1="35.205" x2="15.851" y2="72.07"/>
		<path fill="#C69C6D" stroke="#534741" stroke-width="0.6682" stroke-miterlimit="10" d="M23.812,55.46
			c-0.056,0.634-0.554,1.078-1.114,0.995l-10.113-1.457c-0.563-0.078-0.968-0.649-0.911-1.282l0,0
			c0.055-0.625,0.554-1.075,1.116-0.99l10.113,1.456C23.463,54.258,23.869,54.83,23.812,55.46L23.812,55.46z"/>
	</g>
	<g>
		<polygon fill="#8C6239" stroke="#534741" stroke-width="2.4289" stroke-miterlimit="10" points="56.843,18.891 44.979,41.188 
			35.083,78.588 46.758,83.723 55.996,46.024 		"/>
		<polygon fill="#C69C6D" stroke="#C69C6D" stroke-width="0.6262" stroke-miterlimit="10" points="58.03,13.539 54.522,23.115 
			50.517,38.229 52.433,39.073 56.327,23.909 		"/>
		<path fill="#C69C6D" stroke="#534741" stroke-width="0.7276" stroke-miterlimit="10" d="M58.5,41.491
			c-0.159,0.611-0.794,0.878-1.421,0.605l-11.258-4.944c-0.625-0.276-0.992-0.988-0.835-1.59l0,0c0.163-0.61,0.794-0.884,1.42-0.61
			l11.253,4.942C58.289,40.17,58.66,40.88,58.5,41.491L58.5,41.491z"/>
		
			<line fill="none" stroke="#534741" stroke-width="2.4289" stroke-miterlimit="10" x1="50.958" y1="39.901" x2="41.524" y2="75.544"/>
		<path fill="#C69C6D" stroke="#534741" stroke-width="0.7231" stroke-miterlimit="10" d="M53.014,61.673
			c-0.162,0.614-0.788,0.889-1.403,0.615l-11.117-4.884c-0.619-0.27-0.984-0.977-0.822-1.589l0,0
			c0.158-0.604,0.786-0.884,1.404-0.61l11.116,4.886C52.807,60.356,53.173,61.064,53.014,61.673L53.014,61.673z"/>
	</g>
	<g>
		<polygon fill="#8C6239" stroke="#534741" stroke-width="2.5465" stroke-miterlimit="10" points="80.862,12.854 77.453,38.944 
			81.763,77.858 95.422,76.886 90.34,38.02 		"/>
		<polygon fill="#C69C6D" stroke="#C69C6D" stroke-width="0.6565" stroke-miterlimit="10" points="80.017,7.396 80.143,17.834 
			81.879,33.562 84.12,33.405 82.253,17.683 		"/>
		<path fill="#C69C6D" stroke="#534741" stroke-width="0.7628" stroke-miterlimit="10" d="M91.125,32.669
			c0.072,0.635-0.461,1.187-1.195,1.241l-13.172,0.945c-0.732,0.052-1.369-0.421-1.44-1.047l0,0
			c-0.07-0.635,0.459-1.189,1.191-1.243l13.164-0.944C90.411,31.566,91.054,32.036,91.125,32.669L91.125,32.669z"/>
		
			<line fill="none" stroke="#534741" stroke-width="2.5465" stroke-miterlimit="10" x1="82.957" y1="34.874" x2="87.062" y2="71.961"/>
		<path fill="#C69C6D" stroke="#534741" stroke-width="0.7581" stroke-miterlimit="10" d="M93.306,53.74
			c0.071,0.638-0.451,1.191-1.174,1.24l-13.007,0.932c-0.722,0.055-1.356-0.414-1.428-1.052l0,0c-0.073-0.63,0.45-1.188,1.173-1.238
			l13.008-0.927C92.596,52.638,93.233,53.107,93.306,53.74L93.306,53.74z"/>
	</g>
	<polyline fill="#E6E6E6" points="100.36,59.88 100.727,97.752 -0.292,98.537 -0.79,47.007 100.227,46.223 100.36,59.88 	"/>
	<path fill="#808080" d="M90.485,88.356c0,3.054-2.608,5.53-5.828,5.53H71.853c-3.22,0-5.829-2.477-5.829-5.53l0,0
		c0-3.057,2.609-5.534,5.829-5.534h12.805C87.877,82.822,90.485,85.3,90.485,88.356L90.485,88.356z"/>
	<path fill="#808080" d="M99.874,69.746L96.681,69.7c-3.199-0.044-5.734-3.427-5.662-7.554l0,0c0.074-4.129,2.729-7.439,5.926-7.396
		l3.399,0.049"/>
	<path fill="#808080" d="M0.892,78.339l3.191,0.128c3.195,0.126,5.622,3.573,5.417,7.696l0,0c-0.205,4.124-2.964,7.365-6.16,7.238
		l-3.396-0.136"/>
	<path fill="#808080" d="M32.655,74.262c0.473-4.887-4.436-10.214,7.206-11.725c11.639-1.514,14.21-4.289,16.25-4.603
		c2.042-0.316,3.703-3.344,9.801,1.954c6.099,5.294,8.871,12.103,8.871,12.103l-0.556,4.163
		C74.228,76.154,32.181,79.146,32.655,74.262z"/>
	<path fill="#808080" d="M0.188,54.14c0,0,19.405,0.133,17.669,3.722c-1.734,3.593,3.142,7.447,2.357,8.801
		c-0.786,1.354-4.712,7.445-9.818,5.077C5.293,69.37,0.188,70.723,0.188,70.723"/>
	
		<line fill="none" stroke="#534741" stroke-width="3.7191" stroke-miterlimit="10" x1="-0.49" y1="46.352" x2="100.864" y2="46.128"/>
	
		<line fill="none" stroke="#333333" stroke-width="2.4769" stroke-miterlimit="10" x1="-0.794" y1="48.921" x2="100.562" y2="48.309"/>
</g>
<g id="Calque_4">
</g>
<g id="Calque_6">
</g>
<g id="Calque_5">
</g>
</svg>
