<?xml version="1.0" encoding="utf-8"?>
<!-- Generator: Adobe Illustrator 15.0.0, SVG Export Plug-In . SVG Version: 6.00 Build 0)  -->
<!DOCTYPE svg PUBLIC "-//W3C//DTD SVG 1.1//EN" "http://www.w3.org/Graphics/SVG/1.1/DTD/svg11.dtd">
<svg version="1.1" id="Calque_4" xmlns="http://www.w3.org/2000/svg" xmlns:xlink="http://www.w3.org/1999/xlink" x="0px" y="0px"
	 width="127.561px" height="127.561px" viewBox="0 0 127.561 127.561" enable-background="new 0 0 127.561 127.561"
	 xml:space="preserve">
<g id="XMLID_1_">
	<g>
		<path fill="#3399FF" d="M124.027,40.277c0,0-30.342,33.38,0.729,53.246c-1.044-0.479-39.854-18.046-50.532-12.493
			c-10.81,5.628-43.605-0.159-47.155-4.689C25.892,69.146,19.808,9.119,12.03,7.084c0,0,14.704-2.345,20.616,4.38
			c5.922,6.725,24.338,5.787,28.567,4.53c4.229-1.248,30.98-9.436,42.815,3.536C106.219,22.344,124.027,40.277,124.027,40.277z"/>
	</g>
	<g>
	</g>
</g>
<polygon fill="#3399FF" points="32.781,126.031 20.281,126.281 2.531,8.531 9.778,7.037 "/>
<path fill="#3399FF" d="M13.885-1.649c0.452,2.584-1.277,5.045-3.861,5.497l-9.85,1.722C-2.411,6.023-4.872,4.294-5.324,1.71l0,0
	c-0.452-2.584,1.277-5.045,3.861-5.497l9.85-1.722C10.972-5.962,13.433-4.233,13.885-1.649L13.885-1.649z"/>
</svg>
