<?xml version="1.0" encoding="utf-8"?>
<!-- Generator: Adobe Illustrator 15.0.0, SVG Export Plug-In . SVG Version: 6.00 Build 0)  -->
<!DOCTYPE svg PUBLIC "-//W3C//DTD SVG 1.1//EN" "http://www.w3.org/Graphics/SVG/1.1/DTD/svg11.dtd">
<svg version="1.1" id="Calque_4" xmlns="http://www.w3.org/2000/svg" xmlns:xlink="http://www.w3.org/1999/xlink" x="0px" y="0px"
	 width="127.561px" height="127.561px" viewBox="0 0 127.561 127.561" enable-background="new 0 0 127.561 127.561"
	 xml:space="preserve">
<g id="XMLID_1_">
	<g>
		<path fill="#3399FF" d="M128.831,40.277c0,0-30.342,33.381,0.729,53.246c-1.044-0.479-39.854-18.046-50.532-12.493
			c-10.81,5.629-43.604-0.158-47.155-4.688c-1.177-7.195-7.261-67.222-15.039-69.257c0,0,14.704-2.345,20.616,4.38
			c5.922,6.725,24.338,5.787,28.567,4.53c4.229-1.248,30.979-9.437,42.814,3.535C111.024,22.344,128.831,40.277,128.831,40.277z"/>
	</g>
</g>
<polygon fill="#3399FF" points="32.781,126.031 20.281,126.281 2.531,8.531 9.778,7.037 "/>
<path fill="#3399FF" d="M12.885-2.649c0.452,2.584-1.277,5.045-3.861,5.497l-9.85,1.722C-3.411,5.023-5.872,3.294-6.324,0.71l0,0
	c-0.452-2.584,1.277-5.045,3.861-5.497l9.85-1.722C9.972-6.962,12.433-5.233,12.885-2.649L12.885-2.649z"/>
</svg>
