<?xml version="1.0" encoding="utf-8"?>
<!-- Generator: Adobe Illustrator 15.1.0, SVG Export Plug-In . SVG Version: 6.00 Build 0)  -->
<!DOCTYPE svg PUBLIC "-//W3C//DTD SVG 1.1//EN" "http://www.w3.org/Graphics/SVG/1.1/DTD/svg11.dtd">
<svg version="1.1" xmlns="http://www.w3.org/2000/svg" xmlns:xlink="http://www.w3.org/1999/xlink" x="0px" y="0px" width="100px"
	 height="100px" viewBox="0 0 100 100" enable-background="new 0 0 100 100" xml:space="preserve">
<g id="Calque_1">
	<polygon fill="#C69C6D" stroke="#C69C6D" stroke-width="0.2578" stroke-miterlimit="10" points="-8.833,5.833 -8.833,5.833 
		-9.167,5.833 -9.167,5.833 -9.167,5.833 -9.167,5.833 -8.833,5.833 -8.833,5.833 	"/>
	
		<rect x="10.36" y="8.498" fill="#603813" stroke="#603813" stroke-width="1.0174" stroke-miterlimit="10" width="81.562" height="81.225"/>
	<path fill="#A67C52" stroke="#603813" stroke-width="7.3951" stroke-miterlimit="10" d="M65.845,41.531
		c-16.762,7.185-46.89-2.968-51.134,21.042c-0.15,2.61,0.227,5.435,1.231,8.48c0.502,2.029,2.009,3.551,3.892,4.823
		c1.883,1.27,4.143,2.283,6.153,3.3C46.07,84.252,72.182,89.328,86.24,68.008c2.009-4.062,1.005-10.154-2.009-10.154
		c-14.061-1.013-33.141-3.044-41.174,8.123c-4.018,7.106,14.059,9.139,22.092,8.121c4.019-1.015,12.054-3.044,9.04-7.106
		c-3.013-5.075-13.056-2.031-19.082,1.017c2.009,3.046,6.026,3.046,8.77,2.761"/>
	<path fill="#A67C52" stroke="#603813" stroke-width="5.6308" stroke-miterlimit="10" d="M73.284,29.055
		c2.777,2.393,10.899-1.948,13.042,0.872c1.343,2.819,1.343,5.229,0.453,7.313c-0.889,2.087-2.665,3.851-4.883,5.38
		c-19.156,10.804-49.18,15.502-65.264-0.475c-5.361-3.758-3.216-12.218,2.144-16.918c3.217-1.88,5.361-4.7,9.65-4.7
		c10.722-0.939,22.518,3.761,26.804,12.219c1.075,1.881,2.144,3.76,0,5.641c-8.576,4.7-23.587,5.637-27.875-3.76
		c0-1.881,1.071-3.76,3.215-4.7c5.361-1.879,15.012-0.94,13.94,4.7c0,1.879-8.579,3.76-11.081-0.813"/>
	<g>
		<path fill="#333333" stroke="#000000" stroke-width="1.3961" stroke-miterlimit="10" d="M41.906,65.624
			c0,0,12.377,3.008,13.204,6.396c0.827,3.39,8.997-3.055,9.37-8c0.375-4.945,2.688-30.365-2.556-35.222
			c-5.246-4.856-15.252-14.487-16.897-12.251c-1.647,2.239-1.647,2.239-1.647,2.239S32.159,57.788,41.906,65.624z"/>
		<path fill="#333333" stroke="#000000" stroke-width="1.3961" stroke-miterlimit="10" d="M41.906,65.624
			c-9.628,10.546,11.402,6.983,13.205,6.396c1.802-0.586,4.45-0.378,9.368-8c0.376-4.946,2.688-30.366-2.557-35.223
			C56.678,23.941,46.67,14.31,45.025,16.545c-1.646,2.24-1.646,2.24-1.646,2.24S51.534,55.083,41.906,65.624z"/>
	</g>
	<path fill="#666666" stroke="#000000" stroke-width="1.1503" stroke-miterlimit="10" d="M37.755,78.539
		c0,0-13.652-6.809-17.995-4.199c-4.346,2.607-4.677-4.332-2.46-11.561c2.216-7.229,7.375-24.47,11.712-25.225
		c0.681-0.119,1.291-0.258,1.847-0.392c2.984-0.731,4.351-1.437,6.151,0.903c0.5,0.646,1.184,2.175,1.938,4.138
		c2.475,6.436,5.715,17.537,5.715,17.537S41.15,78.766,37.755,78.539z"/>
	<path fill="#999999" stroke="#1A1A1A" stroke-width="1.5066" stroke-miterlimit="10" d="M58.152,55.779
		c0,0,5.078-11.397,8.46-8.715c3.392,2.683,20.317,30.838,20.317,30.838s-7.192,3.688-16.083,3.017
		c-8.885-0.67-17.772-9.722-17.772-9.722L58.152,55.779z"/>
</g>
<g id="Calque_4" display="none">
</g>
<g id="Calque_6" display="none">
</g>
</svg>
