<?xml version="1.0" encoding="utf-8"?>
<!-- Generator: Adobe Illustrator 15.1.0, SVG Export Plug-In . SVG Version: 6.00 Build 0)  -->
<!DOCTYPE svg PUBLIC "-//W3C//DTD SVG 1.1//EN" "http://www.w3.org/Graphics/SVG/1.1/DTD/svg11.dtd">
<svg version="1.1" id="Calque_1" xmlns="http://www.w3.org/2000/svg" xmlns:xlink="http://www.w3.org/1999/xlink" x="0px" y="0px"
	 width="100px" height="100px" viewBox="0 0 100 100" enable-background="new 0 0 100 100" xml:space="preserve">
<rect x="12.282" y="10.48" fill="#603813" stroke="#603813" stroke-miterlimit="10" width="80" height="80"/>
<path fill="#A67C52" stroke="#603813" stroke-width="7.3235" stroke-miterlimit="10" d="M67.531,43.017
	C50.84,50.092,20.84,40.093,16.613,63.74c-0.148,2.57,0.227,5.352,1.227,8.352c0.5,2,2,3.5,3.875,4.75s4.125,2.25,6.127,3.252
	C47.84,85.092,73.84,90.092,87.84,69.092c2-4,1-10-2-10c-14-1-33-3-41,8c-4,7,14,9,22,8c4-1,12-3,9-7c-3-5-13-2-19,1
	c2,3,6,3,8.732,2.719"/>
<path fill="#A67C52" stroke="#603813" stroke-width="4.6834" stroke-miterlimit="10" d="M69.006,28.76
	c2.537,1.812,9.954-1.476,11.913,0.66c1.225,2.136,1.225,3.96,0.413,5.54c-0.812,1.58-2.435,2.916-4.459,4.074
	c-17.5,8.183-44.924,11.743-59.614-0.359c-4.897-2.847-2.938-9.254,1.959-12.814c2.938-1.424,4.896-3.559,8.813-3.559
	c9.795-0.712,20.568,2.847,24.485,9.254c0.979,1.424,1.958,2.848,0,4.271c-7.835,3.559-21.546,4.271-25.464-2.848
	c0-1.424,0.979-2.848,2.938-3.56c4.897-1.424,13.712-0.712,12.732,3.56c0,1.424-7.835,2.848-10.12-0.615"/>
<path fill="#808080" stroke="#000000" stroke-miterlimit="10" d="M32.392,54.869c0,0,0.666-17.666,8.333-17.666s7.667,0,7.667,0
	s2.333-10,7.333-8.333s9.333-6.666,20,3s7,11.667,7,11.667l-16,3.333l-0.667,4.333C66.058,51.203,43.392,60.869,32.392,54.869z"/>
<path fill="#333333" d="M35.756,40.762c0.135-1.386,11.066-7.701,14.834-5.721c3.768,1.98,5.416,5.061,5.416,5.061
	s-6.593,2.42-5.181,4.84C52.238,47.363,35.521,43.182,35.756,40.762z"/>
<g>
	<path fill="#666666" stroke="#000000" stroke-miterlimit="10" d="M61.792,54.135c0,0,8.288-4.036,10.518-2.678
		c2.229,1.357,3.273-5.605,0.877-8.298c-2.396-2.694-14.497-16.708-19.893-16.826c-5.396-0.118-15.881-0.532-15.598,1.351
		c0.283,1.882,0.283,1.882,0.283,1.882S52.389,54.52,61.792,54.135z"/>
	<path fill="#666666" stroke="#000000" stroke-miterlimit="10" d="M61.792,54.135c0,0,8.288-4.035,10.519-2.678
		c2.229,1.357,3.272-5.605,0.876-8.297c-2.396-2.694-14.497-16.708-19.894-16.826c-5.395-0.118-15.881-0.532-15.598,1.351
		c0.284,1.882,0.284,1.882,0.284,1.882S52.389,54.52,61.792,54.135z"/>
</g>
<g>
	<path fill="#4D4D4D" d="M70.786,68.389c0,0,7.266-7.406,9.73-6.361s2.031-7.912-0.876-10.57
		c-2.908-2.658-17.674-16.592-22.978-15.184c-5.304,1.409-15.648,3.917-14.978,6.177c0.67,2.259,0.67,2.259,0.67,2.259
		S61.667,71.58,70.786,68.389z"/>
	<path fill="#4D4D4D" d="M70.785,68.391c0,0,7.267-7.408,9.731-6.363c2.464,1.045,2.031-7.912-0.876-10.568
		c-2.907-2.658-17.675-16.593-22.978-15.185c-5.304,1.409-15.648,3.917-14.978,6.176c0.67,2.259,0.67,2.259,0.67,2.259
		S61.667,71.58,70.785,68.391z"/>
</g>
<g>
	<path fill="#666666" stroke="#1A1A1A" stroke-miterlimit="10" d="M48.061,64.008c0,0,8.057-4.482,10.356-3.248
		s2.963-5.775,0.423-8.334C56.3,49.868,43.454,36.534,38.06,36.71c-5.394,0.176-15.887,0.334-15.501,2.199
		c0.386,1.864,0.386,1.864,0.386,1.864S38.692,64.904,48.061,64.008z"/>
	<path fill="#666666" stroke="#1A1A1A" stroke-miterlimit="10" d="M48.061,64.008c0,0,8.057-4.482,10.356-3.248
		s2.963-5.773,0.423-8.332c-2.54-2.56-15.386-15.893-20.78-15.717c-5.394,0.176-15.887,0.334-15.501,2.199
		c0.386,1.864,0.386,1.864,0.386,1.864S38.692,64.904,48.061,64.008z"/>
</g>
<path fill="#B3B3B3" stroke="#000000" stroke-miterlimit="10" d="M43.277,65.545c0,0-12.137-7.613-17.43-6.875
	c-5.294,0.738-3.56-3.932,0.909-8.214c4.469-4.283,14.99-14.523,19.722-14.038c0.742,0.076,1.418,0.124,2.035,0.16
	c3.318,0.195,4.949,0.04,6.118,1.998c0.324,0.542,0.576,1.71,0.771,3.181c0.642,4.824,0.681,12.912,0.681,12.912
	S46.735,66.467,43.277,65.545z"/>
<path fill="none" stroke="#999999" stroke-width="1.8516" stroke-miterlimit="10" d="M68.188,35.562
	c2.236,2.323,5.396,4.836,6.936,7.962"/>
<g>
	
		<radialGradient id="SVGID_1_" cx="166.0879" cy="40.125" r="7.1992" gradientTransform="matrix(0.3019 0.2096 -0.7312 1.0531 17.636 -26.7256)" gradientUnits="userSpaceOnUse">
		<stop  offset="0.1" style="stop-color:#000000"/>
		<stop  offset="0.108" style="stop-color:#050401"/>
		<stop  offset="0.1576" style="stop-color:#201908"/>
		<stop  offset="0.2146" style="stop-color:#362A0E"/>
		<stop  offset="0.2812" style="stop-color:#473712"/>
		<stop  offset="0.3636" style="stop-color:#524015"/>
		<stop  offset="0.4792" style="stop-color:#594617"/>
		<stop  offset="0.8" style="stop-color:#5B4717"/>
		<stop  offset="1" style="stop-color:#000000"/>
	</radialGradient>
	<path opacity="0.25" fill="url(#SVGID_1_)" d="M36.266,48.833c-2.907,4.187-4.292,8.257-3.092,9.091s4.53-1.887,7.438-6.072
		c2.907-4.188,4.292-8.258,3.09-9.092C42.504,41.925,39.172,44.646,36.266,48.833z"/>
	
		<radialGradient id="SVGID_2_" cx="161.5625" cy="35.1465" r="0.2405" gradientTransform="matrix(0.3019 0.2096 -0.7312 1.0531 17.636 -26.7256)" gradientUnits="userSpaceOnUse">
		<stop  offset="0" style="stop-color:#D4E092"/>
		<stop  offset="0.0582" style="stop-color:#B0BA79"/>
		<stop  offset="0.1353" style="stop-color:#878F5D"/>
		<stop  offset="0.2184" style="stop-color:#636844"/>
		<stop  offset="0.3066" style="stop-color:#44482F"/>
		<stop  offset="0.4013" style="stop-color:#2B2E1E"/>
		<stop  offset="0.5049" style="stop-color:#181910"/>
		<stop  offset="0.622" style="stop-color:#0A0B07"/>
		<stop  offset="0.764" style="stop-color:#020302"/>
		<stop  offset="1" style="stop-color:#000000"/>
	</radialGradient>
	<path fill="url(#SVGID_2_)" d="M40.64,44.101c-0.097,0.139-0.144,0.275-0.104,0.303s0.151-0.063,0.249-0.203
		c0.097-0.139,0.144-0.276,0.104-0.304S40.738,43.96,40.64,44.101z"/>
	
		<radialGradient id="SVGID_3_" cx="157.7549" cy="30.958" r="0.2407" gradientTransform="matrix(0.3019 0.2096 -0.7312 1.0531 17.636 -26.7256)" gradientUnits="userSpaceOnUse">
		<stop  offset="0" style="stop-color:#D4E092"/>
		<stop  offset="0.0582" style="stop-color:#B0BA79"/>
		<stop  offset="0.1353" style="stop-color:#878F5D"/>
		<stop  offset="0.2184" style="stop-color:#636844"/>
		<stop  offset="0.3066" style="stop-color:#44482F"/>
		<stop  offset="0.4013" style="stop-color:#2B2E1E"/>
		<stop  offset="0.5049" style="stop-color:#181910"/>
		<stop  offset="0.622" style="stop-color:#0A0B07"/>
		<stop  offset="0.764" style="stop-color:#020302"/>
		<stop  offset="1" style="stop-color:#000000"/>
	</radialGradient>
	<path fill="url(#SVGID_3_)" d="M42.553,38.891c-0.096,0.14-0.143,0.276-0.103,0.304c0.039,0.027,0.152-0.063,0.249-0.203
		c0.096-0.139,0.142-0.274,0.103-0.302C42.763,38.662,42.65,38.751,42.553,38.891z"/>
	
		<radialGradient id="SVGID_4_" cx="158.0879" cy="31.3257" r="1.8" gradientTransform="matrix(0.3019 0.2096 -0.7312 1.0531 17.636 -26.7256)" gradientUnits="userSpaceOnUse">
		<stop  offset="0.05" style="stop-color:#000000"/>
		<stop  offset="0.0801" style="stop-color:#030702"/>
		<stop  offset="0.2895" style="stop-color:#15310F"/>
		<stop  offset="0.4784" style="stop-color:#235019"/>
		<stop  offset="0.6383" style="stop-color:#2B631F"/>
		<stop  offset="0.75" style="stop-color:#2E6A21"/>
		<stop  offset="0.7896" style="stop-color:#516D13"/>
		<stop  offset="0.8353" style="stop-color:#736F05"/>
		<stop  offset="0.86" style="stop-color:#807000"/>
		<stop  offset="0.8874" style="stop-color:#7C6D00"/>
		<stop  offset="0.9119" style="stop-color:#726300"/>
		<stop  offset="0.9353" style="stop-color:#5F5300"/>
		<stop  offset="0.9579" style="stop-color:#463D00"/>
		<stop  offset="0.9799" style="stop-color:#252000"/>
		<stop  offset="1" style="stop-color:#000000"/>
	</radialGradient>
	<path opacity="0.2" fill="url(#SVGID_4_)" d="M41.914,39.02c-0.727,1.047-1.072,2.065-0.772,2.274
		c0.3,0.208,1.133-0.472,1.859-1.519c0.729-1.047,1.072-2.063,0.772-2.271C43.474,37.295,42.641,37.975,41.914,39.02z"/>
	<line fill="none" x1="39.276" y1="48.062" x2="42.627" y2="38.942"/>
	
		<radialGradient id="SVGID_5_" cx="164.4219" cy="38.291" r="4.7993" gradientTransform="matrix(0.3019 0.2096 -0.7312 1.0531 17.636 -26.7256)" gradientUnits="userSpaceOnUse">
		<stop  offset="0" style="stop-color:#220504"/>
		<stop  offset="0.73" style="stop-color:#974026"/>
		<stop  offset="1" style="stop-color:#220504"/>
	</radialGradient>
	<path opacity="0.15" fill="url(#SVGID_5_)" d="M37.827,47.056c-1.938,2.79-2.862,5.504-2.062,6.059
		c0.801,0.557,3.021-1.256,4.959-4.047c1.938-2.791,2.86-5.504,2.061-6.062C41.984,42.452,39.765,44.264,37.827,47.056z"/>
	
		<radialGradient id="SVGID_6_" cx="164.4219" cy="38.291" r="2.3999" gradientTransform="matrix(0.3019 0.2096 -0.7312 1.0531 17.636 -26.7256)" gradientUnits="userSpaceOnUse">
		<stop  offset="0.15" style="stop-color:#FFFFFF"/>
		<stop  offset="0.2114" style="stop-color:#E3D1D1"/>
		<stop  offset="0.2918" style="stop-color:#C39A9B"/>
		<stop  offset="0.3613" style="stop-color:#AB7274"/>
		<stop  offset="0.4163" style="stop-color:#9C5A5C"/>
		<stop  offset="0.45" style="stop-color:#975153"/>
		<stop  offset="0.5685" style="stop-color:#6B3435"/>
		<stop  offset="0.6916" style="stop-color:#431B1A"/>
		<stop  offset="0.7898" style="stop-color:#2B0B0A"/>
		<stop  offset="0.85" style="stop-color:#220504"/>
		<stop  offset="0.8573" style="stop-color:#260705"/>
		<stop  offset="0.8648" style="stop-color:#330C08"/>
		<stop  offset="0.8725" style="stop-color:#47150C"/>
		<stop  offset="0.8802" style="stop-color:#642112"/>
		<stop  offset="0.888" style="stop-color:#8A311A"/>
		<stop  offset="0.8958" style="stop-color:#B74424"/>
		<stop  offset="0.9" style="stop-color:#D3502A"/>
		<stop  offset="0.9025" style="stop-color:#C84B28"/>
		<stop  offset="0.9142" style="stop-color:#9C391E"/>
		<stop  offset="0.9263" style="stop-color:#772916"/>
		<stop  offset="0.9389" style="stop-color:#581C10"/>
		<stop  offset="0.952" style="stop-color:#40120A"/>
		<stop  offset="0.9659" style="stop-color:#2F0B07"/>
		<stop  offset="0.9811" style="stop-color:#250605"/>
		<stop  offset="1" style="stop-color:#220504"/>
	</radialGradient>
	<path opacity="0.5" fill="url(#SVGID_6_)" d="M38.552,47.559c-0.969,1.395-1.43,2.752-1.03,3.029s1.51-0.628,2.479-2.023
		c0.968-1.396,1.429-2.753,1.029-3.03S39.521,46.163,38.552,47.559z"/>
	
		<radialGradient id="SVGID_7_" cx="164.4209" cy="38.291" r="1.999" gradientTransform="matrix(0.3019 0.2096 -0.7312 1.0531 17.636 -26.7256)" gradientUnits="userSpaceOnUse">
		<stop  offset="0.15" style="stop-color:#FFFFFF"/>
		<stop  offset="0.2824" style="stop-color:#C2C2C2"/>
		<stop  offset="0.4253" style="stop-color:#888888"/>
		<stop  offset="0.5636" style="stop-color:#575757"/>
		<stop  offset="0.6936" style="stop-color:#313131"/>
		<stop  offset="0.8134" style="stop-color:#161616"/>
		<stop  offset="0.9192" style="stop-color:#060606"/>
		<stop  offset="1" style="stop-color:#000000"/>
	</radialGradient>
	<path fill="url(#SVGID_7_)" d="M38.673,47.642c-0.809,1.163-1.193,2.294-0.858,2.524c0.334,0.232,1.259-0.523,2.064-1.686
		c0.809-1.163,1.193-2.294,0.859-2.525S39.479,46.479,38.673,47.642z"/>
	<polyline opacity="0.03" fill="none" stroke="#FFFFFF" stroke-width="1.3728" stroke-miterlimit="10" points="39.276,48.062 
		34.475,56.471 39.276,48.062 44.077,39.653 39.276,48.062 35.308,48.926 39.276,48.062 43.243,47.197 39.276,48.062 38.924,54.975 
		39.276,48.062 39.627,41.149 39.276,48.062 30.621,57.57 39.276,48.062 47.93,38.553 39.276,48.062 39.179,48.225 39.276,48.062 
		39.371,47.897 39.276,48.062 39.202,48.072 39.276,48.062 39.349,48.052 39.276,48.062 36.001,53.984 39.276,48.062 42.551,42.14 
		39.276,48.062 36.323,48.93 39.276,48.062 42.229,47.192 39.276,48.062 38.634,49.286 39.276,48.062 39.918,46.838 39.276,48.062 
		38.612,48.327 39.276,48.062 39.938,47.796 39.276,48.062 39.203,49.237 39.276,48.062 39.348,46.887 39.276,48.062 37.825,49.646 
		39.276,48.062 40.728,46.477 39.276,48.062 41.28,51.193 39.276,48.062 37.271,44.93 39.276,48.062 32.109,57.664 39.276,48.062 
		46.442,38.459 39.276,48.062 35.605,55.625 39.276,48.062 42.946,40.5 39.276,48.062 34.736,50.425 39.276,48.062 43.815,45.698 
		39.276,48.062 38.288,50.78 39.276,48.062 40.264,45.344 39.276,48.062 37.147,49.721 39.276,48.062 41.404,46.403 39.276,48.062 
		33.131,59.889 39.276,48.062 45.421,36.234 39.276,48.062 32.783,50.767 39.276,48.062 45.769,45.356 39.276,48.062 32.825,57.803 
		39.276,48.062 45.727,38.321 39.276,48.062 36.015,46.887 39.276,48.062 42.537,49.236 39.276,48.062 39.012,49.268 39.276,48.062 
		39.541,46.856 39.276,48.062 38.071,49.223 39.276,48.062 40.48,46.901 39.276,48.062 39.055,51.77 39.276,48.062 39.496,44.354 
		39.276,48.062 34.683,53.084 39.276,48.062 43.869,43.04 39.276,48.062 34.938,56.193 39.276,48.062 43.611,39.929 39.276,48.062 
		34.979,49.649 39.276,48.062 43.573,46.473 39.276,48.062 41.448,52.062 39.276,48.062 37.103,44.06 39.276,48.062 30.701,59.381 
		39.276,48.062 47.85,36.742 	"/>
	
		<radialGradient id="SVGID_8_" cx="157.7559" cy="30.958" r="3.5989" gradientTransform="matrix(0.3019 0.2096 -0.7312 1.0531 17.636 -26.7256)" gradientUnits="userSpaceOnUse">
		<stop  offset="0.64" style="stop-color:#000000"/>
		<stop  offset="0.718" style="stop-color:#000201"/>
		<stop  offset="0.7461" style="stop-color:#020902"/>
		<stop  offset="0.7661" style="stop-color:#041405"/>
		<stop  offset="0.7823" style="stop-color:#07250A"/>
		<stop  offset="0.796" style="stop-color:#0B3B10"/>
		<stop  offset="0.8" style="stop-color:#0C4312"/>
		<stop  offset="0.8114" style="stop-color:#1B300E"/>
		<stop  offset="0.8287" style="stop-color:#2D1A0A"/>
		<stop  offset="0.8452" style="stop-color:#370D08"/>
		<stop  offset="0.86" style="stop-color:#3B0807"/>
		<stop  offset="0.8724" style="stop-color:#250504"/>
		<stop  offset="0.8868" style="stop-color:#140302"/>
		<stop  offset="0.9048" style="stop-color:#090101"/>
		<stop  offset="0.93" style="stop-color:#020000"/>
		<stop  offset="1" style="stop-color:#000000"/>
	</radialGradient>
	<path opacity="0.5" fill="url(#SVGID_8_)" d="M41.54,38.187c-1.454,2.094-2.146,4.128-1.546,4.546
		c0.601,0.416,2.265-0.943,3.719-3.038c1.453-2.093,2.146-4.128,1.546-4.544C44.658,34.733,42.993,36.094,41.54,38.187z"/>
	
		<radialGradient id="SVGID_9_" cx="166.0352" cy="40.0659" r="0.179" gradientTransform="matrix(0.3019 0.2096 -0.7312 1.0531 17.636 -26.7256)" gradientUnits="userSpaceOnUse">
		<stop  offset="0.1" style="stop-color:#000000"/>
		<stop  offset="0.2464" style="stop-color:#00131B"/>
		<stop  offset="0.4262" style="stop-color:#002636"/>
		<stop  offset="0.6101" style="stop-color:#003349"/>
		<stop  offset="0.7989" style="stop-color:#003B54"/>
		<stop  offset="1" style="stop-color:#003E58"/>
	</radialGradient>
	<path fill="url(#SVGID_9_)" d="M38.412,50.23c-0.073,0.103-0.108,0.205-0.077,0.226c0.029,0.021,0.112-0.047,0.186-0.15
		c0.07-0.104,0.105-0.204,0.076-0.225C38.566,50.058,38.482,50.126,38.412,50.23z"/>
	
		<radialGradient id="SVGID_10_" cx="162.2754" cy="35.9292" r="0.2041" gradientTransform="matrix(0.3019 0.2096 -0.7312 1.0531 17.636 -26.7256)" gradientUnits="userSpaceOnUse">
		<stop  offset="0.1" style="stop-color:#000000"/>
		<stop  offset="0.2959" style="stop-color:#170707"/>
		<stop  offset="0.521" style="stop-color:#2A0D0D"/>
		<stop  offset="0.7529" style="stop-color:#351010"/>
		<stop  offset="1" style="stop-color:#391111"/>
	</radialGradient>
	<path fill="url(#SVGID_10_)" d="M40.294,45.081c-0.083,0.119-0.123,0.234-0.089,0.259c0.034,0.022,0.13-0.054,0.212-0.173
		c0.083-0.118,0.122-0.234,0.087-0.258C40.47,44.884,40.377,44.962,40.294,45.081z"/>
	
		<radialGradient id="SVGID_11_" cx="165.4854" cy="39.4614" r="0.0723" gradientTransform="matrix(0.3019 0.2096 -0.7312 1.0531 17.636 -26.7256)" gradientUnits="userSpaceOnUse">
		<stop  offset="0.1" style="stop-color:#ABC155"/>
		<stop  offset="0.1146" style="stop-color:#A5BA52"/>
		<stop  offset="0.2338" style="stop-color:#7A893D"/>
		<stop  offset="0.3561" style="stop-color:#545F2A"/>
		<stop  offset="0.4795" style="stop-color:#363D1B"/>
		<stop  offset="0.6043" style="stop-color:#1E220F"/>
		<stop  offset="0.7312" style="stop-color:#0D0F07"/>
		<stop  offset="0.8614" style="stop-color:#030402"/>
		<stop  offset="1" style="stop-color:#000000"/>
	</radialGradient>
	<path fill="url(#SVGID_11_)" d="M38.719,49.504c-0.029,0.042-0.043,0.08-0.028,0.088c0.011,0.01,0.043-0.017,0.072-0.059
		c0.029-0.043,0.043-0.083,0.031-0.092C38.781,49.434,38.749,49.461,38.719,49.504z"/>
	
		<radialGradient id="SVGID_12_" cx="165.0723" cy="39.0107" r="0.6145" gradientTransform="matrix(0.3019 0.2096 -0.7312 1.0531 17.636 -26.7256)" gradientUnits="userSpaceOnUse">
		<stop  offset="0.1" style="stop-color:#000000"/>
		<stop  offset="0.1144" style="stop-color:#020303"/>
		<stop  offset="0.2828" style="stop-color:#171E25"/>
		<stop  offset="0.4547" style="stop-color:#273440"/>
		<stop  offset="0.6294" style="stop-color:#334453"/>
		<stop  offset="0.8089" style="stop-color:#3A4D5E"/>
		<stop  offset="1" style="stop-color:#3C5062"/>
	</radialGradient>
	<path fill="url(#SVGID_12_)" d="M38.761,48.827c-0.247,0.356-0.365,0.704-0.263,0.775c0.103,0.07,0.387-0.161,0.635-0.518
		c0.247-0.357,0.366-0.705,0.263-0.774C39.293,48.239,39.01,48.469,38.761,48.827z"/>
	
		<radialGradient id="SVGID_13_" cx="163.8945" cy="37.7124" r="0.1768" gradientTransform="matrix(0.3019 0.2096 -0.7312 1.0531 17.636 -26.7256)" gradientUnits="userSpaceOnUse">
		<stop  offset="0.1" style="stop-color:#000000"/>
		<stop  offset="0.3407" style="stop-color:#0E000D"/>
		<stop  offset="0.6597" style="stop-color:#190018"/>
		<stop  offset="1" style="stop-color:#1D001B"/>
	</radialGradient>
	<path fill="url(#SVGID_13_)" d="M39.486,47.305c-0.069,0.102-0.104,0.201-0.074,0.222c0.029,0.02,0.11-0.047,0.181-0.147
		c0.071-0.103,0.104-0.202,0.076-0.223C39.639,47.137,39.56,47.202,39.486,47.305z"/>
</g>
<g>
	<line fill="none" x1="49.256" y1="57.408" x2="48.506" y2="58.805"/>
	<path fill="none" d="M48.505,57.408c0,1.16,0.336,2.098,0.751,2.098s0.751-0.938,0.751-2.098c0-1.162-0.336-2.1-0.751-2.1
		S48.505,56.246,48.505,57.408z"/>
	<ellipse fill="none" cx="49.256" cy="57.408" rx="0.901" ry="2.52"/>
	<polyline fill="none" points="49.256,57.408 53.008,56.822 49.256,57.408 45.504,57.992 49.256,57.408 49.465,67.896 
		49.256,57.408 49.047,46.919 49.256,57.408 49.494,57.697 49.256,57.408 49.018,57.117 49.256,57.408 49.151,58.074 49.256,57.408 
		49.36,56.74 49.256,57.408 52.401,61.949 49.256,57.408 46.11,52.867 49.256,57.408 47.632,66.201 49.256,57.408 50.88,48.614 
		49.256,57.408 53.21,62.547 49.256,57.408 45.302,52.268 49.256,57.408 47.418,68.463 49.256,57.408 51.094,46.352 49.256,57.408 
		50.48,62.855 49.256,57.408 48.031,51.959 49.256,57.408 47.307,60.832 49.256,57.408 51.205,53.982 49.256,57.408 49.566,58.553 
		49.256,57.408 48.945,56.262 49.256,57.408 48.847,58.277 49.256,57.408 49.665,56.537 49.256,57.408 49.698,57.447 49.256,57.408 
		48.813,57.367 49.256,57.408 49.242,58.643 49.256,57.408 49.27,56.172 49.256,57.408 51.449,57.363 49.256,57.408 47.062,57.453 
		49.256,57.408 49.271,63.539 49.256,57.408 49.24,51.275 49.256,57.408 50.871,57.676 49.256,57.408 47.641,57.139 49.256,57.408 
		49.16,61.922 49.256,57.408 49.352,52.893 49.256,57.408 51.762,60.088 49.256,57.408 46.75,54.727 49.256,57.408 48.297,64.412 
		49.256,57.408 50.215,50.404 49.256,57.408 49.309,57.496 49.256,57.408 49.203,57.318 49.256,57.408 49.224,57.557 49.256,57.408 
		49.288,57.26 49.256,57.408 50.571,61.422 49.256,57.408 47.94,53.393 49.256,57.408 47.819,61.086 49.256,57.408 50.692,53.729 
		49.256,57.408 52.083,56.547 49.256,57.408 46.429,58.27 49.256,57.408 49.563,65.309 49.256,57.408 48.948,49.506 49.256,57.408 
		51.945,65.939 49.256,57.408 46.566,48.876 49.256,57.408 46.204,64.926 49.256,57.408 52.308,49.889 49.256,57.408 52.897,55.359 
		49.256,57.408 45.614,59.457 49.256,57.408 49.989,67.586 49.256,57.408 48.522,47.229 	"/>
	
		<radialGradient id="SVGID_14_" cx="49.2559" cy="-67.21" r="1.8027" gradientTransform="matrix(1 0 0 2.7955 0 245.293)" gradientUnits="userSpaceOnUse">
		<stop  offset="0" style="stop-color:#220504"/>
		<stop  offset="0.73" style="stop-color:#974026"/>
		<stop  offset="1" style="stop-color:#220504"/>
	</radialGradient>
	<ellipse opacity="0.15" fill="url(#SVGID_14_)" cx="49.256" cy="57.408" rx="1.803" ry="5.039"/>
	
		<radialGradient id="SVGID_15_" cx="49.2559" cy="-67.21" r="0.9014" gradientTransform="matrix(1 0 0 2.7955 0 245.293)" gradientUnits="userSpaceOnUse">
		<stop  offset="0.15" style="stop-color:#FFFFFF"/>
		<stop  offset="0.2114" style="stop-color:#E3D1D1"/>
		<stop  offset="0.2918" style="stop-color:#C39A9B"/>
		<stop  offset="0.3613" style="stop-color:#AB7274"/>
		<stop  offset="0.4163" style="stop-color:#9C5A5C"/>
		<stop  offset="0.45" style="stop-color:#975153"/>
		<stop  offset="0.5685" style="stop-color:#6B3435"/>
		<stop  offset="0.6916" style="stop-color:#431B1A"/>
		<stop  offset="0.7898" style="stop-color:#2B0B0A"/>
		<stop  offset="0.85" style="stop-color:#220504"/>
		<stop  offset="0.8573" style="stop-color:#260705"/>
		<stop  offset="0.8648" style="stop-color:#330C08"/>
		<stop  offset="0.8725" style="stop-color:#47150C"/>
		<stop  offset="0.8802" style="stop-color:#642112"/>
		<stop  offset="0.888" style="stop-color:#8A311A"/>
		<stop  offset="0.8958" style="stop-color:#B74424"/>
		<stop  offset="0.9" style="stop-color:#D3502A"/>
		<stop  offset="0.9025" style="stop-color:#C84B28"/>
		<stop  offset="0.9142" style="stop-color:#9C391E"/>
		<stop  offset="0.9263" style="stop-color:#772916"/>
		<stop  offset="0.9389" style="stop-color:#581C10"/>
		<stop  offset="0.952" style="stop-color:#40120A"/>
		<stop  offset="0.9659" style="stop-color:#2F0B07"/>
		<stop  offset="0.9811" style="stop-color:#250605"/>
		<stop  offset="1" style="stop-color:#220504"/>
	</radialGradient>
	<ellipse opacity="0.5" fill="url(#SVGID_15_)" cx="49.256" cy="57.408" rx="0.901" ry="2.52"/>
	
		<radialGradient id="SVGID_16_" cx="49.2559" cy="-67.21" r="0.751" gradientTransform="matrix(1 0 0 2.7955 0 245.293)" gradientUnits="userSpaceOnUse">
		<stop  offset="0.15" style="stop-color:#FFFFFF"/>
		<stop  offset="0.2824" style="stop-color:#C2C2C2"/>
		<stop  offset="0.4253" style="stop-color:#888888"/>
		<stop  offset="0.5636" style="stop-color:#575757"/>
		<stop  offset="0.6936" style="stop-color:#313131"/>
		<stop  offset="0.8134" style="stop-color:#161616"/>
		<stop  offset="0.9192" style="stop-color:#060606"/>
		<stop  offset="1" style="stop-color:#000000"/>
	</radialGradient>
	<path fill="url(#SVGID_16_)" d="M48.505,57.408c0,1.16,0.336,2.098,0.751,2.098s0.751-0.938,0.751-2.098
		c0-1.162-0.336-2.1-0.751-2.1S48.505,56.246,48.505,57.408z"/>
	<polyline opacity="0.03" fill="none" stroke="#FFFFFF" stroke-width="3.344" stroke-miterlimit="10" points="49.256,57.408 
		53.008,56.822 49.256,57.408 45.504,57.992 49.256,57.408 49.465,67.896 49.256,57.408 49.047,46.919 49.256,57.408 49.494,57.697 
		49.256,57.408 49.018,57.117 49.256,57.408 49.151,58.074 49.256,57.408 49.36,56.74 49.256,57.408 52.401,61.949 49.256,57.408 
		46.11,52.867 49.256,57.408 47.632,66.201 49.256,57.408 50.88,48.614 49.256,57.408 53.21,62.547 49.256,57.408 45.302,52.268 
		49.256,57.408 47.418,68.463 49.256,57.408 51.094,46.352 49.256,57.408 50.48,62.855 49.256,57.408 48.031,51.959 49.256,57.408 
		47.307,60.832 49.256,57.408 51.205,53.982 49.256,57.408 49.566,58.553 49.256,57.408 48.945,56.262 49.256,57.408 48.847,58.277 
		49.256,57.408 49.665,56.537 49.256,57.408 49.698,57.447 49.256,57.408 48.813,57.367 49.256,57.408 49.242,58.643 49.256,57.408 
		49.27,56.172 49.256,57.408 51.449,57.363 49.256,57.408 47.062,57.453 49.256,57.408 49.271,63.539 49.256,57.408 49.24,51.275 
		49.256,57.408 50.871,57.676 49.256,57.408 47.641,57.139 49.256,57.408 49.16,61.922 49.256,57.408 49.352,52.893 49.256,57.408 
		51.762,60.088 49.256,57.408 46.75,54.727 49.256,57.408 48.297,64.412 49.256,57.408 50.215,50.404 49.256,57.408 49.309,57.496 
		49.256,57.408 49.203,57.318 49.256,57.408 49.224,57.557 49.256,57.408 49.288,57.26 49.256,57.408 50.571,61.422 49.256,57.408 
		47.94,53.393 49.256,57.408 47.819,61.086 49.256,57.408 50.692,53.729 49.256,57.408 52.083,56.547 49.256,57.408 46.429,58.27 
		49.256,57.408 49.563,65.309 49.256,57.408 48.948,49.506 49.256,57.408 51.945,65.939 49.256,57.408 46.566,48.876 49.256,57.408 
		46.204,64.926 49.256,57.408 52.308,49.889 49.256,57.408 52.897,55.359 49.256,57.408 45.614,59.457 49.256,57.408 49.989,67.586 
		49.256,57.408 48.522,47.229 	"/>
</g>
<g>
	<line fill="none" x1="50.49" y1="39.254" x2="52.632" y2="39.13"/>
	<ellipse fill="none" cx="50.49" cy="39.254" rx="1.81" ry="0.627"/>
	<ellipse fill="none" cx="50.49" cy="39.254" rx="2.17" ry="0.752"/>
	<polyline fill="none" points="50.49,39.254 52.336,39.688 50.49,39.254 48.645,38.82 50.49,39.254 49.237,39.894 50.49,39.254 
		51.743,38.615 50.49,39.254 52.445,41.949 50.49,39.254 48.535,36.56 50.49,39.254 42.715,39.932 50.49,39.254 58.266,38.577 
		50.49,39.254 50.773,39.274 50.49,39.254 50.207,39.234 50.49,39.254 50.433,39.353 50.49,39.254 50.548,39.156 50.49,39.254 
		51.648,42.267 50.49,39.254 49.332,36.242 50.49,39.254 41.798,39.656 50.49,39.254 59.183,38.853 50.49,39.254 56.326,40.986 
		50.49,39.254 44.654,37.523 50.49,39.254 45.494,41.277 50.49,39.254 55.486,37.232 50.49,39.254 55.104,39.381 50.49,39.254 
		45.876,39.127 50.49,39.254 50.124,40.854 50.49,39.254 50.856,37.655 50.49,39.254 59.673,40.058 50.49,39.254 41.308,38.451 
		50.49,39.254 48.171,42.437 50.49,39.254 52.81,36.072 50.49,39.254 52.266,41.731 50.49,39.254 48.715,36.778 50.49,39.254 
		43.344,39.869 50.49,39.254 57.637,38.64 50.49,39.254 50.73,39.503 50.49,39.254 50.25,39.005 50.49,39.254 49.771,39.338 
		50.49,39.254 51.209,39.171 50.49,39.254 50.783,39.665 50.49,39.254 50.197,38.844 50.49,39.254 49.305,39.355 50.49,39.254 
		51.675,39.153 50.49,39.254 58.195,41.46 50.49,39.254 42.785,37.049 50.49,39.254 44.126,41.925 50.49,39.254 56.854,36.584 
		50.49,39.254 50.917,40.295 50.49,39.254 50.063,38.213 50.49,39.254 47.487,39.402 50.49,39.254 53.492,39.107 50.49,39.254 
		51.837,41.064 50.49,39.254 49.144,37.445 50.49,39.254 45.27,39.721 50.49,39.254 55.712,38.788 50.49,39.254 52.098,39.813 
		50.49,39.254 48.883,38.695 50.49,39.254 48.877,39.812 50.49,39.254 52.104,38.697 50.49,39.254 52.486,39.627 50.49,39.254 
		48.494,38.882 50.49,39.254 49.414,39.946 50.49,39.254 51.566,38.562 	"/>
	
		<radialGradient id="SVGID_17_" cx="92.3135" cy="232.0801" r="3.0415" gradientTransform="matrix(1.4275 0 0 0.4948 -81.2871 -75.5789)" gradientUnits="userSpaceOnUse">
		<stop  offset="0" style="stop-color:#220504"/>
		<stop  offset="0.73" style="stop-color:#974026"/>
		<stop  offset="1" style="stop-color:#220504"/>
	</radialGradient>
	<ellipse opacity="0.15" fill="url(#SVGID_17_)" cx="50.49" cy="39.254" rx="4.342" ry="1.505"/>
	
		<radialGradient id="SVGID_18_" cx="92.3135" cy="232.0801" r="1.52" gradientTransform="matrix(1.4275 0 0 0.4948 -81.2871 -75.5789)" gradientUnits="userSpaceOnUse">
		<stop  offset="0.15" style="stop-color:#FFFFFF"/>
		<stop  offset="0.2114" style="stop-color:#E3D1D1"/>
		<stop  offset="0.2918" style="stop-color:#C39A9B"/>
		<stop  offset="0.3613" style="stop-color:#AB7274"/>
		<stop  offset="0.4163" style="stop-color:#9C5A5C"/>
		<stop  offset="0.45" style="stop-color:#975153"/>
		<stop  offset="0.5685" style="stop-color:#6B3435"/>
		<stop  offset="0.6916" style="stop-color:#431B1A"/>
		<stop  offset="0.7898" style="stop-color:#2B0B0A"/>
		<stop  offset="0.85" style="stop-color:#220504"/>
		<stop  offset="0.8573" style="stop-color:#260705"/>
		<stop  offset="0.8648" style="stop-color:#330C08"/>
		<stop  offset="0.8725" style="stop-color:#47150C"/>
		<stop  offset="0.8802" style="stop-color:#642112"/>
		<stop  offset="0.888" style="stop-color:#8A311A"/>
		<stop  offset="0.8958" style="stop-color:#B74424"/>
		<stop  offset="0.9" style="stop-color:#D3502A"/>
		<stop  offset="0.9025" style="stop-color:#C84B28"/>
		<stop  offset="0.9142" style="stop-color:#9C391E"/>
		<stop  offset="0.9263" style="stop-color:#772916"/>
		<stop  offset="0.9389" style="stop-color:#581C10"/>
		<stop  offset="0.952" style="stop-color:#40120A"/>
		<stop  offset="0.9659" style="stop-color:#2F0B07"/>
		<stop  offset="0.9811" style="stop-color:#250605"/>
		<stop  offset="1" style="stop-color:#220504"/>
	</radialGradient>
	<ellipse opacity="0.5" fill="url(#SVGID_18_)" cx="50.49" cy="39.254" rx="2.17" ry="0.752"/>
	
		<radialGradient id="SVGID_19_" cx="92.3135" cy="232.0801" r="1.2676" gradientTransform="matrix(1.4275 0 0 0.4948 -81.2871 -75.5789)" gradientUnits="userSpaceOnUse">
		<stop  offset="0.15" style="stop-color:#FFFFFF"/>
		<stop  offset="0.2824" style="stop-color:#C2C2C2"/>
		<stop  offset="0.4253" style="stop-color:#888888"/>
		<stop  offset="0.5636" style="stop-color:#575757"/>
		<stop  offset="0.6936" style="stop-color:#313131"/>
		<stop  offset="0.8134" style="stop-color:#161616"/>
		<stop  offset="0.9192" style="stop-color:#060606"/>
		<stop  offset="1" style="stop-color:#000000"/>
	</radialGradient>
	<ellipse fill="url(#SVGID_19_)" cx="50.49" cy="39.254" rx="1.81" ry="0.627"/>
	<polyline opacity="0.03" fill="none" stroke="#FFFFFF" stroke-width="1.6808" stroke-miterlimit="10" points="50.49,39.254 
		52.336,39.688 50.49,39.254 48.645,38.82 50.49,39.254 49.237,39.894 50.49,39.254 51.743,38.615 50.49,39.254 52.445,41.949 
		50.49,39.254 48.535,36.56 50.49,39.254 42.715,39.932 50.49,39.254 58.266,38.577 50.49,39.254 50.773,39.274 50.49,39.254 
		50.207,39.234 50.49,39.254 50.433,39.353 50.49,39.254 50.548,39.156 50.49,39.254 51.648,42.267 50.49,39.254 49.332,36.242 
		50.49,39.254 41.798,39.656 50.49,39.254 59.183,38.853 50.49,39.254 56.326,40.986 50.49,39.254 44.654,37.523 50.49,39.254 
		45.494,41.277 50.49,39.254 55.486,37.232 50.49,39.254 55.104,39.381 50.49,39.254 45.876,39.127 50.49,39.254 50.124,40.854 
		50.49,39.254 50.856,37.655 50.49,39.254 59.673,40.058 50.49,39.254 41.308,38.451 50.49,39.254 48.171,42.437 50.49,39.254 
		52.81,36.072 50.49,39.254 52.266,41.731 50.49,39.254 48.715,36.778 50.49,39.254 43.344,39.869 50.49,39.254 57.637,38.64 
		50.49,39.254 50.73,39.503 50.49,39.254 50.25,39.005 50.49,39.254 49.771,39.338 50.49,39.254 51.209,39.171 50.49,39.254 
		50.783,39.665 50.49,39.254 50.197,38.844 50.49,39.254 49.305,39.355 50.49,39.254 51.675,39.153 50.49,39.254 58.195,41.46 
		50.49,39.254 42.785,37.049 50.49,39.254 44.126,41.925 50.49,39.254 56.854,36.584 50.49,39.254 50.917,40.295 50.49,39.254 
		50.063,38.213 50.49,39.254 47.487,39.402 50.49,39.254 53.492,39.107 50.49,39.254 51.837,41.064 50.49,39.254 49.144,37.445 
		50.49,39.254 45.27,39.721 50.49,39.254 55.712,38.788 50.49,39.254 52.098,39.813 50.49,39.254 48.883,38.695 50.49,39.254 
		48.877,39.812 50.49,39.254 52.104,38.697 50.49,39.254 52.486,39.627 50.49,39.254 48.494,38.882 50.49,39.254 49.414,39.946 
		50.49,39.254 51.566,38.562 	"/>
</g>
<linearGradient id="SVGID_20_" gradientUnits="userSpaceOnUse" x1="54.5391" y1="53.7393" x2="78.418" y2="53.7393">
	<stop  offset="0" style="stop-color:#231F20"/>
	<stop  offset="0.5" style="stop-color:#231F20;stop-opacity:0"/>
	<stop  offset="1" style="stop-color:#231F20"/>
</linearGradient>
<path fill="url(#SVGID_20_)" stroke="#000000" stroke-width="1.367" stroke-miterlimit="10" d="M56.339,55.594l-1.8-16.208
	c0,0,26.782,18.222,23.619,22.416c-2.819,5.627-10.017,6.293-10.017,6.293s-5.104-0.857-7.636-3"/>
<path fill="#999999" stroke="#1A1A1A" stroke-width="0.9745" stroke-miterlimit="10" d="M46.263,53.5c0,0,2.925-8.28,4.875-6.332
	s11.7,22.402,11.7,22.402s-4.144,2.678-9.263,2.191c-5.119-0.488-10.237-7.062-10.237-7.062L46.263,53.5z"/>
<path fill="#333333" d="M58.681,59.062c0,0,1.965-4.901-0.42-6.859s-1.917,1.291-1.917,1.291l0.622,2.629L58.681,59.062z"/>
</svg>
