<?xml version="1.0" encoding="utf-8"?>
<!-- Generator: Adobe Illustrator 15.1.0, SVG Export Plug-In . SVG Version: 6.00 Build 0)  -->
<!DOCTYPE svg PUBLIC "-//W3C//DTD SVG 1.1//EN" "http://www.w3.org/Graphics/SVG/1.1/DTD/svg11.dtd">
<svg version="1.1" id="Calque_1" xmlns="http://www.w3.org/2000/svg" xmlns:xlink="http://www.w3.org/1999/xlink" x="0px" y="0px"
	 width="100px" height="100px" viewBox="0 0 100 100" enable-background="new 0 0 100 100" xml:space="preserve">
<g>
	
		<rect x="9.86" y="9.997" fill="#009245" stroke="#009245" stroke-width="1.0017" stroke-miterlimit="10" width="80.14" height="80.14"/>
	<polygon stroke="#000000" stroke-width="1.013" stroke-miterlimit="10" points="53.083,12.25 32.083,45 42.833,44.75 21.333,67.5 
		32.25,66.75 14.5,87.75 52.333,85.25 89,87.416 73.667,67 84.333,68 64.833,44.75 73.485,44.818 61.833,30.25 	"/>
	<g>
		<path fill="none" stroke="#FFFFFF" stroke-width="1.1813" stroke-miterlimit="10" d="M44.609,74.001
			c0.44-0.199,0.798-0.362,1.241-0.562"/>
		
			<rect x="45.438" y="62.559" fill="#603813" stroke="#000000" stroke-width="1.1813" stroke-miterlimit="10" width="9.938" height="26.961"/>
		<g>
			<polygon fill="#006837" points="50.06,11.25 58.047,28.835 70.973,43.856 50.06,41.29 29.145,43.856 42.07,28.835 			"/>
			<polygon fill="#006837" points="50.06,21.359 62.002,45.005 81.326,65.199 50.06,61.75 18.793,65.199 38.115,45.005 			"/>
			<polygon fill="#006837" points="49.06,30.348 63.374,60.252 86.539,85.797 49.06,81.434 11.581,85.797 34.744,60.252 			"/>
		</g>
		<polygon fill="none" stroke="#000000" stroke-width="1.3975" stroke-miterlimit="10" points="50.06,11.25 42.07,28.835 
			29.145,43.856 39.508,42.728 38.115,45.005 19.301,64.656 32.893,63.327 12.581,85.797 50.06,81.434 87.539,85.797 67.613,63.327 
			81.326,65.199 62.002,45.005 60.633,42.396 70.973,43.856 57.51,28.275 		"/>
	</g>
	<polyline fill="#00FF00" stroke="#00FF00" stroke-width="0.14" stroke-miterlimit="10" points="35.641,67.087 61.641,66.381 
		48.308,69.676 	"/>
	<polyline fill="#00FF00" stroke="#00FF00" stroke-width="0.1226" stroke-miterlimit="10" points="41.6,50.502 62.266,49.822 
		51.667,53 	"/>
	<polyline fill="#00FF00" stroke="#00FF00" stroke-width="0.0989" stroke-miterlimit="10" points="42.418,33.508 57.98,32.919 
		50,35.667 	"/>
</g>
</svg>
