<?xml version="1.0" encoding="utf-8"?>
<!-- Generator: Adobe Illustrator 15.0.0, SVG Export Plug-In . SVG Version: 6.00 Build 0)  -->
<!DOCTYPE svg PUBLIC "-//W3C//DTD SVG 1.1//EN" "http://www.w3.org/Graphics/SVG/1.1/DTD/svg11.dtd">
<svg version="1.1" xmlns="http://www.w3.org/2000/svg" xmlns:xlink="http://www.w3.org/1999/xlink" x="0px" y="0px"
	 width="127.561px" height="127.561px" viewBox="0 0 127.561 127.561" enable-background="new 0 0 127.561 127.561"
	 xml:space="preserve">
<g id="Calque_2">
	<g id="XMLID_3_">
		<g>
			<path fill="#3399FF" d="M116.68,119.629l0.17,7.932l-96.403-0.144c0,0,0,0,0.196-7.788
				c36.517-13.761,32.158-62.667,32.158-62.667c0.829-0.02,5.874-0.029,31.355,0C84.139,104.674,116.68,119.629,116.68,119.629z"/>
		</g>
		<g>
			<line fill="none" stroke="#3399FF" stroke-miterlimit="10" x1="52.659" y1="56.961" x2="52.802" y2="56.961"/>
			<path fill="none" stroke="#3399FF" stroke-miterlimit="10" d="M52.802,56.961c0,0,4.358,48.907-32.158,62.667
				c-0.196,7.788-0.196,7.788-0.196,7.788l96.403,0.144l-0.17-7.932c0,0-32.541-14.955-32.523-62.667
				C58.675,56.932,53.63,56.942,52.802,56.961z"/>
		</g>
	</g>
	<g id="XMLID_1_">
		<g>
			<path fill="#3399FF" d="M69.13,1.384c11.632,0,21.062,8.452,21.062,18.869c0,10.425-9.43,18.876-21.062,18.876
				c-11.622,0-21.052-8.452-21.052-18.876C48.077,9.836,57.508,1.384,69.13,1.384z"/>
		</g>
		<g>
			<path fill="none" stroke="#3399FF" stroke-miterlimit="10" d="M90.191,20.253c0,10.425-9.43,18.876-21.062,18.876
				c-11.622,0-21.052-8.452-21.052-18.876c0-10.417,9.43-18.869,21.052-18.869C80.761,1.384,90.191,9.836,90.191,20.253z"/>
		</g>
	</g>
</g>
<g id="Calque_3">
	<rect x="35.376" y="42.149" fill="#3399FF" stroke="#3399FF" stroke-miterlimit="10" width="65.733" height="7.789"/>
</g>
</svg>
