<?xml version="1.0" encoding="utf-8"?>
<!-- Generator: Adobe Illustrator 15.0.0, SVG Export Plug-In . SVG Version: 6.00 Build 0)  -->
<!DOCTYPE svg PUBLIC "-//W3C//DTD SVG 1.1//EN" "http://www.w3.org/Graphics/SVG/1.1/DTD/svg11.dtd">
<svg version="1.1" id="Calque_1" xmlns="http://www.w3.org/2000/svg" xmlns:xlink="http://www.w3.org/1999/xlink" x="0px" y="0px"
	 width="512px" height="512px" viewBox="0 0 512 512" enable-background="new 0 0 512 512" xml:space="preserve">
<g>
	<g id="XMLID_2_">
		<g>
			<linearGradient id="SVGID_1_" gradientUnits="userSpaceOnUse" x1="81.999" y1="49.875" x2="98.38" y2="49.875">
				<stop  offset="0" style="stop-color:#B98500"/>
				<stop  offset="0.0857" style="stop-color:#BB8704"/>
				<stop  offset="0.1663" style="stop-color:#C28D0F"/>
				<stop  offset="0.2447" style="stop-color:#CE9622"/>
				<stop  offset="0.3218" style="stop-color:#DEA43D"/>
				<stop  offset="0.3974" style="stop-color:#F3B65F"/>
				<stop  offset="0.4356" style="stop-color:#FFC073"/>
				<stop  offset="0.6205" style="stop-color:#FED28E"/>
				<stop  offset="1" style="stop-color:#FAFFD0"/>
			</linearGradient>
			<path fill="url(#SVGID_1_)" d="M88.954,50.103l-6.955-0.149c1.414-0.26,3.162-0.334,5.058-0.297
				C87.727,49.768,88.359,49.917,88.954,50.103z"/>
			<linearGradient id="SVGID_2_" gradientUnits="userSpaceOnUse" x1="87.0571" y1="77.7178" x2="111.04" y2="77.7178">
				<stop  offset="0" style="stop-color:#FAFFD0"/>
				<stop  offset="0.4826" style="stop-color:#FED28E"/>
				<stop  offset="0.7178" style="stop-color:#FFC073"/>
				<stop  offset="0.7426" style="stop-color:#F3B65F"/>
				<stop  offset="0.7915" style="stop-color:#DEA43D"/>
				<stop  offset="0.8415" style="stop-color:#CE9622"/>
				<stop  offset="0.8923" style="stop-color:#C28D0F"/>
				<stop  offset="0.9444" style="stop-color:#BB8704"/>
				<stop  offset="1" style="stop-color:#B98500"/>
			</linearGradient>
			<path fill="url(#SVGID_2_)" d="M110.154,66.914c0.186,1.153,0.334,2.306,0.483,3.421c0.074,0.669,0.149,1.376,0.223,2.046
				c0,0.037,0,0.074,0,0.074c0.855,11.269-1.451,22.167-4.649,32.581l-0.632-0.261c-8.145-0.632-13.873,0.149-18.522,0.558
				c4.798-1.339,8.554-5.802,11.046-11.641c3.682-8.777,4.537-20.679,1.971-29.94c-1.86-6.62-5.504-11.901-11.121-13.649
				l6.323,0.111c0.037,0,0.074,0,0.111,0c3.236,0.298,6.249,0.632,8.331,0.632l0.112-0.074c3.236,5.653,5.43,12.05,6.248,15.77
				c0,0.037,0,0.074,0,0.112C110.117,66.728,110.117,66.839,110.154,66.914z"/>
			<linearGradient id="SVGID_3_" gradientUnits="userSpaceOnUse" x1="41.1611" y1="258.1904" x2="379.043" y2="258.1904">
				<stop  offset="0" style="stop-color:#B98500"/>
				<stop  offset="0.0857" style="stop-color:#BB8704"/>
				<stop  offset="0.1663" style="stop-color:#C28D0F"/>
				<stop  offset="0.2447" style="stop-color:#CE9622"/>
				<stop  offset="0.3218" style="stop-color:#DEA43D"/>
				<stop  offset="0.3974" style="stop-color:#F3B65F"/>
				<stop  offset="0.4356" style="stop-color:#FFC073"/>
				<stop  offset="0.6205" style="stop-color:#FED28E"/>
				<stop  offset="1" style="stop-color:#FAFFD0"/>
			</linearGradient>
			<path fill="url(#SVGID_3_)" d="M95.388,50.214c-0.037,0-0.074,0-0.111,0c-2.752-0.26-5.653-0.521-8.22-0.558
				c-1.896-0.297-3.979-0.223-6.285,0.297c-1.228,0.223-2.492,0.595-3.794,1.116c-24.956,9.67-24.77,55.268-10.265,73.194
				c10.079,12.422,18.559,12.683,25.365,6.955c0.372-0.223,0.744-0.409,1.116-0.595c14.691-7.55,31.465-10.339,43.999-13.984
				c32.878-9.559,68.434-9.856,102.427-6.249c23.877,2.566,47.755,5.133,71.41,7.401c9.111,0.855,18.707,3.347,28.266,5.169
				c-0.186,0.075-0.298,0.186-0.335,0.409c0.112-0.297,1.079-0.223,2.194-0.037c0.075,0,0.149,0.037,0.224,0.037
				c0.186,0.037,0.372,0.075,0.558,0.075c0.037,0,0.037,0.037,0.074,0.037c1.339,0.483,2.79,1.153,3.385,1.19
				c2.641,6.137,0.781,17.183-1.748,22.911c-2.269,5.058-10.823,14.17,2.641,11.269c0.483,11.716-2.641,23.877,1.004,35.221
				c3.199,10.005,3.422,18.782,4.501,29.717c0.93,9.707,1.748,22.241,5.058,31.613c1.637,4.575,6.435,10.265,5.653,14.839
				c-0.669,3.868-6.657,9.187-8.554,12.832c3.905,1.636,7.55,2.9,11.864,3.161c-1.116,2.641-6.435,3.979-7.179,6.583
				c-0.743,2.678,2.641,5.839,3.348,8.331c3.756,13.835-6.918,7.773-16.401,13.538c2.156,0.372,5.169,1.302,7.141,2.306
				c4.798,2.38,14.728,3.087,16.959,7.178c1.786,3.311-1.339,9.075-1.189,12.125c0.335,6.397-0.446,2.864,3.719,8.592
				c7.811,10.748-1.785,7.476-1.859,18.372c-0.074,9.745,8.22,20.791,8.592,31.577c0.669,19.34-2.046,41.022-6.472,59.507
				c-4.277,17.927-18.262,24.361-35.37,23.282c-25.588-1.599-50.172-12.235-76.058-13.724c-25.18-1.45-51.549-2.529-76.691-0.223
				c-22.018,2.008-44.63,1.45-66.686,3.719c-12.943,1.339-31.353,6.248-50.396,5.579c0.037,0,0.112-0.037,0.149-0.037
				c12.05-3.757,21.794-15.919,27.15-26.778c7.959,4.239,12.05-7.142,11.009-14.729c0.037,1.004,0.149,2.083,0.037,3.087
				c-12.906-13.352-12.013-23.803-14.021-41.544c-0.707-6.434-1.859-13.054-3.013-19.638c0.075,0,0.112-0.074,0.186-0.111
				c-0.111-0.111-0.186-0.223-0.26-0.297c-1.265-7.327-2.529-14.654-3.236-21.646c1.042,1.637,3.124,2.306,4.5,3.496
				c0.446-1.934,0.893-1.748,1.041-3.422c6.695-0.632,18.076-2.641,22.092-8.368c-8.814,0.187-17.778,0.409-26.704,0.596
				c-0.93-6.062,1.748-11.939,1.488-17.48c-0.483-9.67-1.711-8.592,6.435-15.695c-7.253,0.595-11.902-3.757-17.22,1.6
				c-0.595-7.067,10.116-25.254-2.827-22.353c1.228-4.575-1.488-14.431,0.781-18.485c2.343-4.202,12.459-6.248,17.443-8.368
				c-5.095,1.748-21.311,4.835-24.881,0.074c-4.687-6.285,2.417-17.517-6.62-23.282c5.728-5.244,29.084-7.29,36.039-2.715
				c-10.116-9.967-25.328-13.129-38.605-7.662c2.975-6.769-0.075-21.906-1.004-29.605c-1.153-9.707-4.277-17.294-9.447-24.956
				c-1.116,0.038-2.529-0.111-3.719-0.148c15.1-5.802,37.267-2.417,54.041-7.215c-17.853-0.669-36.337-2.343-54.673-3.125
				c-0.297-19.488-1.042-38.792-2.008-57.536c-0.93-18.187,0.149-36.486,11.158-51.139c6.992-9.298,19.898-17.146,32.32-16.848
				c1.451,0.074,2.938,0.223,4.389,0.483c2.529,0.483,5.021,1.376,7.401,2.678c0.037,0.037,0.037,0.037,0.075,0.074
				c2.678,2.157,5.058,5.393,7.066,8.889l-0.112,0.074C101.637,50.846,98.624,50.512,95.388,50.214z"/>
			<linearGradient id="SVGID_4_" gradientUnits="userSpaceOnUse" x1="83.2954" y1="49.9351" x2="96.2026" y2="49.9351">
				<stop  offset="0" style="stop-color:#B98500"/>
				<stop  offset="0.0857" style="stop-color:#BB8704"/>
				<stop  offset="0.1663" style="stop-color:#C28D0F"/>
				<stop  offset="0.2447" style="stop-color:#CE9622"/>
				<stop  offset="0.3218" style="stop-color:#DEA43D"/>
				<stop  offset="0.3974" style="stop-color:#F3B65F"/>
				<stop  offset="0.4356" style="stop-color:#FFC073"/>
				<stop  offset="0.6205" style="stop-color:#FED28E"/>
				<stop  offset="1" style="stop-color:#FAFFD0"/>
			</linearGradient>
			<path fill="url(#SVGID_4_)" d="M95.277,50.214l-6.323-0.111c-0.595-0.186-1.228-0.335-1.897-0.446
				C89.624,49.693,92.524,49.954,95.277,50.214z"/>
			<linearGradient id="SVGID_5_" gradientUnits="userSpaceOnUse" x1="84.8999" y1="84.0879" x2="389.9883" y2="84.0879">
				<stop  offset="0" style="stop-color:#B98500"/>
				<stop  offset="0.0857" style="stop-color:#BB8704"/>
				<stop  offset="0.1663" style="stop-color:#C28D0F"/>
				<stop  offset="0.2447" style="stop-color:#CE9622"/>
				<stop  offset="0.3218" style="stop-color:#DEA43D"/>
				<stop  offset="0.3974" style="stop-color:#F3B65F"/>
				<stop  offset="0.4356" style="stop-color:#FFC073"/>
				<stop  offset="0.6205" style="stop-color:#FED28E"/>
				<stop  offset="1" style="stop-color:#FAFFD0"/>
			</linearGradient>
			<path fill="url(#SVGID_5_)" d="M84.9,38.647c14.17-0.855,37.044,1.45,47.644,1.971c40.502,2.045,80.967,7.736,121.805,5.579
				c24.659-1.302,50.656-2.529,75.575-5.542c9.372-1.153,25.551-5.021,35.072-1.934c5.095,1.674,13.092,8.74,6.62,13.761
				c3.31,1.413,6.918,4.352,9.335,6.694c-4.277,3.534-2.454,9.149-5.43,13.836c4.909,0.074,10.005-0.372,14.468,2.194
				c-5.133,15.732-3.794,46.044-23.841,49.279c-6.769,1.116-13.909,0.632-21.088-0.521c-0.111-0.186-0.186-0.372-0.297-0.521
				c-0.112,0.372-1.19,0.26-2.381,0.074c-0.148-0.037-0.297-0.037-0.446-0.074c-0.037,0-0.037,0-0.074-0.038
				c-0.037,0.038-0.074,0.038-0.074,0c-1.042-0.372-2.009-0.632-2.492-0.446c-9.559-1.822-19.154-4.314-28.266-5.169
				c-23.654-2.269-47.532-4.835-71.41-7.401c-33.994-3.607-69.549-3.31-102.427,6.249c-12.534,3.645-29.308,6.434-43.999,13.984
				l-0.111-0.223c4.463-3.607,7.699-10.19,9.819-15.546c0.148-0.334,0.26-0.669,0.409-1.004c5.059-12.385,7.773-27.113,7.848-35.109
				c0-1.897-0.074-4.017-0.297-6.286c0,0,0-0.037,0-0.074c-0.074-0.669-0.149-1.339-0.223-2.046
				c-0.149-1.116-0.297-2.269-0.483-3.421c-0.037-0.075-0.037-0.149-0.075-0.26c0-0.038,0-0.075,0-0.112
				c-1.785-9.856-5.839-20.381-13.091-24.547c-0.075-0.037-0.149-0.074-0.223-0.112c-0.038-0.037-0.038-0.037-0.075-0.074
				c-2.306-1.822-4.76-2.864-7.401-2.678C87.838,38.871,86.351,38.722,84.9,38.647z"/>
			<linearGradient id="SVGID_6_" gradientUnits="userSpaceOnUse" x1="56.8037" y1="92.3882" x2="106.2114" y2="92.3882">
				<stop  offset="0" style="stop-color:#B98500"/>
				<stop  offset="0.0857" style="stop-color:#BB8704"/>
				<stop  offset="0.1663" style="stop-color:#C28D0F"/>
				<stop  offset="0.2447" style="stop-color:#CE9622"/>
				<stop  offset="0.3218" style="stop-color:#DEA43D"/>
				<stop  offset="0.3974" style="stop-color:#F3B65F"/>
				<stop  offset="0.4356" style="stop-color:#FFC073"/>
				<stop  offset="0.6205" style="stop-color:#FED28E"/>
				<stop  offset="1" style="stop-color:#FAFFD0"/>
			</linearGradient>
			<path fill="url(#SVGID_6_)" d="M81.999,49.954l6.955,0.149c5.616,1.748,9.261,7.029,11.121,13.649l-0.521,0.112
				c-5.914,0.595-15.174,1.525-21.162,4.575c-0.446,0.223-0.855,0.446-1.228,0.707c-0.372,0.149-0.744,0.409-1.116,0.744
				c-1.934,1.339-3.719,3.385-5.132,6.025c-5.839,10.86-1.971,28.898,12.348,29.791c1.302,0.074,2.566-0.037,3.756-0.372h0.037
				c4.649-0.409,10.377-1.19,18.522-0.558l0.632,0.261c-0.372,1.302-0.781,2.566-1.19,3.831c-0.446,1.339-1.004,3.05-1.711,4.984
				c-0.148,0.334-0.26,0.669-0.409,1.004c-2.678,6.286-5.951,11.902-9.856,15.509c-0.149,0.186-0.335,0.335-0.484,0.483
				c-0.148,0.186-0.334,0.298-0.483,0.372c-6.806,5.728-15.286,5.467-25.365-6.955C52.208,106.337,52.022,60.74,76.978,51.069
				c1.302-0.521,2.566-0.893,3.794-1.116H81.999z"/>
			<linearGradient id="SVGID_7_" gradientUnits="userSpaceOnUse" x1="92.0781" y1="130.8096" x2="93.1938" y2="130.8096">
				<stop  offset="0" style="stop-color:#B98500"/>
				<stop  offset="0.0857" style="stop-color:#BB8704"/>
				<stop  offset="0.1663" style="stop-color:#C28D0F"/>
				<stop  offset="0.2447" style="stop-color:#CE9622"/>
				<stop  offset="0.3218" style="stop-color:#DEA43D"/>
				<stop  offset="0.3974" style="stop-color:#F3B65F"/>
				<stop  offset="0.4356" style="stop-color:#FFC073"/>
				<stop  offset="0.6205" style="stop-color:#FED28E"/>
				<stop  offset="1" style="stop-color:#FAFFD0"/>
			</linearGradient>
			<path fill="url(#SVGID_7_)" d="M93.083,130.4l0.111,0.223c-0.372,0.186-0.744,0.372-1.116,0.595
				c0.149-0.074,0.335-0.186,0.483-0.372C92.748,130.698,92.934,130.586,93.083,130.4z"/>
			<linearGradient id="SVGID_8_" gradientUnits="userSpaceOnUse" x1="78.3916" y1="79.9863" x2="101.5513" y2="79.9863">
				<stop  offset="0" style="stop-color:#B98500"/>
				<stop  offset="0.0857" style="stop-color:#BB8704"/>
				<stop  offset="0.1663" style="stop-color:#C28D0F"/>
				<stop  offset="0.2447" style="stop-color:#CE9622"/>
				<stop  offset="0.3218" style="stop-color:#DEA43D"/>
				<stop  offset="0.3974" style="stop-color:#F3B65F"/>
				<stop  offset="0.4356" style="stop-color:#FFC073"/>
				<stop  offset="0.6205" style="stop-color:#FED28E"/>
				<stop  offset="1" style="stop-color:#FAFFD0"/>
			</linearGradient>
			<path fill="url(#SVGID_8_)" d="M95.351,81.53c0.112-11.752-9.112-16.773-16.959-13.091c5.988-3.05,15.249-3.98,21.162-4.575
				l0.521-0.112c2.566,9.261,1.711,21.163-1.971,29.94c-2.492,0.93-8.108,1.711-12.422,2.529c2.976-1.227,5.914-3.868,7.773-7.327
				C94.607,86.7,95.314,84.208,95.351,81.53z"/>
			<linearGradient id="SVGID_9_" gradientUnits="userSpaceOnUse" x1="68.3018" y1="86.4893" x2="98.1035" y2="86.4893">
				<stop  offset="0" style="stop-color:#FAFFD0"/>
				<stop  offset="0.4826" style="stop-color:#FED28E"/>
				<stop  offset="0.7178" style="stop-color:#FFC073"/>
				<stop  offset="0.7426" style="stop-color:#F3B65F"/>
				<stop  offset="0.7915" style="stop-color:#DEA43D"/>
				<stop  offset="0.8415" style="stop-color:#CE9622"/>
				<stop  offset="0.8923" style="stop-color:#C28D0F"/>
				<stop  offset="0.9444" style="stop-color:#BB8704"/>
				<stop  offset="1" style="stop-color:#B98500"/>
			</linearGradient>
			<path fill="url(#SVGID_9_)" d="M85.644,96.221c0-0.037,0.037,0,0.037,0c4.314-0.818,9.93-1.599,12.422-2.529
				c-2.492,5.839-6.249,10.302-11.046,11.641H87.02c-1.19,0.335-2.455,0.446-3.756,0.372c-14.319-0.893-18.187-18.931-12.348-29.791
				c1.413-2.641,3.198-4.687,5.132-6.025c0.335-0.26,0.707-0.521,1.116-0.744c0.372-0.26,0.781-0.483,1.228-0.707
				c7.848-3.682,17.071,1.339,16.959,13.091c-0.037,2.678-0.744,5.17-1.896,7.364l-0.261-0.112c0-0.074-5.765-1.748-7.141-2.157
				v-0.446c6.025,1.562,8.405-12.088,0.037-13.055c-6.583-0.744-10.005,8.071-10.265,13.055c-0.372,7.624,2.678,10.711,6.509,10.711
				c0.037,0,0.074,0,0.111,0C83.45,96.853,84.528,96.63,85.644,96.221z"/>
			<linearGradient id="SVGID_10_" gradientUnits="userSpaceOnUse" x1="75.7944" y1="84.9854" x2="93.4546" y2="84.9854">
				<stop  offset="0" style="stop-color:#FAFFD0"/>
				<stop  offset="0.4826" style="stop-color:#FED28E"/>
				<stop  offset="0.7178" style="stop-color:#FFC073"/>
				<stop  offset="0.7426" style="stop-color:#F3B65F"/>
				<stop  offset="0.7915" style="stop-color:#DEA43D"/>
				<stop  offset="0.8415" style="stop-color:#CE9622"/>
				<stop  offset="0.8923" style="stop-color:#C28D0F"/>
				<stop  offset="0.9444" style="stop-color:#BB8704"/>
				<stop  offset="1" style="stop-color:#B98500"/>
			</linearGradient>
			<path fill="url(#SVGID_10_)" d="M93.194,88.782l0.261,0.112c-1.86,3.459-4.798,6.1-7.773,7.327c0,0-0.037-0.037-0.037,0
				c-1.19,0.223-2.306,0.446-3.199,0.669c-0.037,0-0.074,0-0.111,0c-3.831,0-6.881-3.087-6.509-10.711
				c0.26-4.984,3.682-13.798,10.265-13.055c8.368,0.967,5.988,14.617-0.037,13.055v0.446C87.429,87.035,93.194,88.708,93.194,88.782
				z"/>
			<linearGradient id="SVGID_11_" gradientUnits="userSpaceOnUse" x1="66.7505" y1="402.3496" x2="82.9541" y2="402.3496">
				<stop  offset="0" style="stop-color:#FAFFD0"/>
				<stop  offset="0.4826" style="stop-color:#FED28E"/>
				<stop  offset="0.7178" style="stop-color:#FFC073"/>
				<stop  offset="0.7426" style="stop-color:#F3B65F"/>
				<stop  offset="0.7915" style="stop-color:#DEA43D"/>
				<stop  offset="0.8415" style="stop-color:#CE9622"/>
				<stop  offset="0.8923" style="stop-color:#C28D0F"/>
				<stop  offset="0.9444" style="stop-color:#BB8704"/>
				<stop  offset="1" style="stop-color:#B98500"/>
			</linearGradient>
			<path fill="url(#SVGID_11_)" d="M73.966,404.173c1.302-6.062,3.421-16.142-3.757-17.592c3.868-0.074,10.488,2.641,10.897,4.574
				l0.669-0.111c1.488,8.257,1.376,17.853,0.707,26.964c-3.868-1.189-10.376-0.669-15.732,0.112
				c1.079-0.893,2.083-2.231,2.975-3.757C71.92,410.793,73.52,406.256,73.966,404.173z"/>
			<linearGradient id="SVGID_12_" gradientUnits="userSpaceOnUse" x1="58.1206" y1="413.3477" x2="69.7666" y2="413.3477">
				<stop  offset="0" style="stop-color:#B98500"/>
				<stop  offset="0.0857" style="stop-color:#BB8704"/>
				<stop  offset="0.1663" style="stop-color:#C28D0F"/>
				<stop  offset="0.2447" style="stop-color:#CE9622"/>
				<stop  offset="0.3218" style="stop-color:#DEA43D"/>
				<stop  offset="0.3974" style="stop-color:#F3B65F"/>
				<stop  offset="0.4356" style="stop-color:#FFC073"/>
				<stop  offset="0.6205" style="stop-color:#FED28E"/>
				<stop  offset="1" style="stop-color:#FAFFD0"/>
			</linearGradient>
			<path fill="url(#SVGID_12_)" d="M59.981,416.26c-8.071-13.835,12.943-7.624,9.373-2.119l0.372,0.223
				c-0.893,1.525-1.896,2.864-2.975,3.757c-1.637,0.223-3.125,0.483-4.463,0.706C61.506,418.38,60.725,417.524,59.981,416.26z"/>
			<linearGradient id="SVGID_13_" gradientUnits="userSpaceOnUse" x1="341.3779" y1="123.4082" x2="341.9355" y2="123.4082">
				<stop  offset="0" style="stop-color:#B98500"/>
				<stop  offset="0.0857" style="stop-color:#BB8704"/>
				<stop  offset="0.1663" style="stop-color:#C28D0F"/>
				<stop  offset="0.2447" style="stop-color:#CE9622"/>
				<stop  offset="0.3218" style="stop-color:#DEA43D"/>
				<stop  offset="0.3974" style="stop-color:#F3B65F"/>
				<stop  offset="0.4356" style="stop-color:#FFC073"/>
				<stop  offset="0.6205" style="stop-color:#FED28E"/>
				<stop  offset="1" style="stop-color:#FAFFD0"/>
			</linearGradient>
			<path fill="url(#SVGID_13_)" d="M341.936,123.446c-0.186,0-0.372-0.038-0.558-0.075c0.148,0,0.261,0.037,0.409,0.037
				c0,0.038,0.037,0.038,0.074,0C341.898,123.446,341.898,123.446,341.936,123.446z"/>
			<linearGradient id="SVGID_14_" gradientUnits="userSpaceOnUse" x1="36.8228" y1="423.6191" x2="105.7388" y2="423.6191">
				<stop  offset="0" style="stop-color:#FAFFD0"/>
				<stop  offset="0.4826" style="stop-color:#FED28E"/>
				<stop  offset="0.7178" style="stop-color:#FFC073"/>
				<stop  offset="0.7426" style="stop-color:#F3B65F"/>
				<stop  offset="0.7915" style="stop-color:#DEA43D"/>
				<stop  offset="0.8415" style="stop-color:#CE9622"/>
				<stop  offset="0.8923" style="stop-color:#C28D0F"/>
				<stop  offset="0.9444" style="stop-color:#BB8704"/>
				<stop  offset="1" style="stop-color:#B98500"/>
			</linearGradient>
			<path fill="url(#SVGID_14_)" d="M67.271,472.979c-17.815,5.467-26.481-14.542-28.898-30.163
				c-2.566-16.588-2.752-38.159,5.802-52.553c4.537-7.624,14.542-14.84,23.133-15.137c3.422-2.641,16.253,1.934,21.274-1.786
				c1.153,6.584,2.306,13.204,3.013,19.638c2.008,17.741,1.116,28.192,14.021,41.544c0.112-1.004,0-2.083-0.037-3.087
				c1.042,7.587-3.05,18.968-11.009,14.729c-5.356,10.859-15.1,23.021-27.15,26.778C67.383,472.941,67.308,472.979,67.271,472.979z
				 M82.482,418.008c0.67-9.111,0.781-18.707-0.707-26.964l-0.669,0.111c-0.409-1.934-7.029-4.648-10.897-4.574
				c-0.037,0-0.037,0-0.037,0c-0.297-0.037-0.558-0.074-0.855-0.112c-7.29-0.669-14.616,9.41-16.736,14.952
				c-4.538,11.864-1.971,33.212,2.79,44.593c3.459,8.294,11.083,13.799,19.303,7.216c6.434-5.207,5.021-12.088,6.025-19.303
				C81.367,429.092,82.036,423.624,82.482,418.008z"/>
			<linearGradient id="SVGID_15_" gradientUnits="userSpaceOnUse" x1="50.2119" y1="421.291" x2="82.4824" y2="421.291">
				<stop  offset="0" style="stop-color:#B98500"/>
				<stop  offset="0.0857" style="stop-color:#BB8704"/>
				<stop  offset="0.1663" style="stop-color:#C28D0F"/>
				<stop  offset="0.2447" style="stop-color:#CE9622"/>
				<stop  offset="0.3218" style="stop-color:#DEA43D"/>
				<stop  offset="0.3974" style="stop-color:#F3B65F"/>
				<stop  offset="0.4356" style="stop-color:#FFC073"/>
				<stop  offset="0.6205" style="stop-color:#FED28E"/>
				<stop  offset="1" style="stop-color:#FAFFD0"/>
			</linearGradient>
			<path fill="url(#SVGID_15_)" d="M70.172,386.581c0,0,0,0,0.037,0c7.178,1.45,5.059,11.529,3.757,17.592
				c-0.446,2.083-2.046,6.62-4.24,10.19l-0.372-0.223c3.57-5.505-17.443-11.716-9.373,2.119c0.744,1.265,1.525,2.12,2.306,2.566
				c1.488,0.967,3.013,0.521,4.463-0.706c5.355-0.781,11.864-1.302,15.732-0.112c-0.446,5.616-1.116,11.084-1.785,15.919
				c-1.004,7.215,0.409,14.096-6.025,19.303c-8.22,6.583-15.844,1.078-19.303-7.216c-4.761-11.381-7.327-32.729-2.79-44.593
				c2.12-5.542,9.447-15.621,16.736-14.952C69.614,386.507,69.875,386.544,70.172,386.581z"/>
		</g>
		<g>
			<path fill="none" stroke="#604C3F" stroke-miterlimit="10" d="M70.209,386.581c7.178,1.45,5.059,11.529,3.757,17.592
				c-0.446,2.083-2.046,6.62-4.24,10.19c-0.893,1.525-1.896,2.864-2.975,3.757c-1.451,1.227-2.976,1.673-4.463,0.706
				c-0.781-0.446-1.562-1.302-2.306-2.566c-8.071-13.835,12.943-7.624,9.373-2.119c-0.484,0.743-1.376,1.45-2.827,2.119"/>
			<path fill="none" stroke="#604C3F" stroke-miterlimit="10" d="M96.69,41.809c-2.38-1.302-4.872-2.194-7.401-2.678
				c-1.451-0.26-2.938-0.409-4.389-0.483c-12.422-0.298-25.328,7.55-32.32,16.848c-11.009,14.653-12.087,32.952-11.158,51.139
				c0.967,18.745,1.711,38.048,2.008,57.536c18.336,0.781,36.82,2.455,54.673,3.125c-16.774,4.798-38.94,1.413-54.041,7.215
				c1.19,0.037,2.604,0.186,3.719,0.148c5.17,7.662,8.294,15.249,9.447,24.956c0.93,7.699,3.979,22.836,1.004,29.605
				c13.277-5.467,28.489-2.306,38.605,7.662c-6.955-4.575-30.312-2.529-36.039,2.715c9.038,5.765,1.934,16.997,6.62,23.282
				c3.57,4.761,19.786,1.674,24.881-0.074c-4.983,2.12-15.1,4.166-17.443,8.368c-2.269,4.055,0.446,13.91-0.781,18.485
				c12.943-2.901,2.231,15.285,2.827,22.353c5.318-5.356,9.967-1.005,17.22-1.6c-8.146,7.104-6.918,6.025-6.435,15.695
				c0.26,5.541-2.417,11.418-1.488,17.48c8.926-0.187,17.89-0.409,26.704-0.596c-4.017,5.728-15.397,7.736-22.092,8.368
				c-0.148,1.674-0.595,1.488-1.041,3.422c-1.376-1.19-3.459-1.859-4.5-3.496c0.707,6.992,1.971,14.319,3.236,21.646
				c0.037,0.148,0.074,0.26,0.074,0.408c1.153,6.584,2.306,13.204,3.013,19.638c2.008,17.741,1.116,28.192,14.021,41.544
				c0.112-1.004,0-2.083-0.037-3.087c1.042,7.587-3.05,18.968-11.009,14.729c-5.356,10.859-15.1,23.021-27.15,26.778
				c-0.037,0-0.112,0.037-0.149,0.037c-17.815,5.467-26.481-14.542-28.898-30.163c-2.566-16.588-2.752-38.159,5.802-52.553
				c4.537-7.624,14.542-14.84,23.133-15.137c5.728-0.224,10.86,2.641,13.203,10.6c0.521,1.674,0.93,3.459,1.265,5.318
				c1.488,8.257,1.376,17.853,0.707,26.964c-0.446,5.616-1.116,11.084-1.785,15.919c-1.004,7.215,0.409,14.096-6.025,19.303
				c-8.22,6.583-15.844,1.078-19.303-7.216c-4.761-11.381-7.327-32.729-2.79-44.593c2.12-5.542,9.447-15.621,16.736-14.952
				c0.298,0.038,0.558,0.075,0.855,0.112"/>
			<path fill="none" stroke="#604C3F" stroke-miterlimit="10" d="M110.079,66.542c-1.785-9.856-5.839-20.381-13.091-24.547
				c-0.075-0.037-0.149-0.074-0.223-0.112"/>
			<path fill="none" stroke="#604C3F" stroke-miterlimit="10" d="M110.154,66.914c-0.037-0.075-0.037-0.186-0.075-0.26"/>
			<path fill="none" stroke="#604C3F" stroke-miterlimit="10" d="M110.86,72.381c-0.074-0.669-0.149-1.339-0.223-2.046"/>
			<path fill="none" stroke="#604C3F" stroke-miterlimit="10" d="M103.31,113.85c5.059-12.385,7.773-27.113,7.848-35.109
				c0-1.897-0.074-4.017-0.297-6.286"/>
			<path fill="none" stroke="#604C3F" stroke-miterlimit="10" d="M92.562,130.847c0.149-0.148,0.335-0.297,0.484-0.483
				c3.905-3.607,7.178-9.224,9.856-15.509"/>
			<path fill="none" stroke="#604C3F" stroke-miterlimit="10" d="M87.057,49.656c-1.896-0.297-3.979-0.223-6.285,0.297
				c-1.228,0.223-2.492,0.595-3.794,1.116c-24.956,9.67-24.77,55.268-10.265,73.194c10.079,12.422,18.559,12.683,25.365,6.955"/>
			<path fill="none" stroke="#604C3F" stroke-miterlimit="10" d="M87.057,105.333c4.798-1.339,8.554-5.802,11.046-11.641
				c3.682-8.777,4.537-20.679,1.971-29.94c-1.86-6.62-5.504-11.901-11.121-13.649"/>
			<path fill="none" stroke="#604C3F" stroke-miterlimit="10" d="M77.164,69.145c-0.372,0.149-0.744,0.409-1.116,0.744
				c-1.934,1.339-3.719,3.385-5.132,6.025c-5.839,10.86-1.971,28.898,12.348,29.791c1.302,0.074,2.566-0.037,3.756-0.372"/>
			<path fill="none" stroke="#604C3F" stroke-miterlimit="10" d="M85.681,96.221c2.976-1.227,5.914-3.868,7.773-7.327
				c1.153-2.194,1.859-4.686,1.896-7.364c0.112-11.752-9.112-16.773-16.959-13.091"/>
			<path fill="none" stroke="#604C3F" stroke-miterlimit="10" d="M82.445,96.89c1.004-0.037,2.083-0.26,3.199-0.669"/>
			<path fill="none" stroke="#604C3F" stroke-miterlimit="10" d="M86.053,86.179c6.025,1.562,8.405-12.088,0.037-13.055
				c-6.583-0.744-10.005,8.071-10.265,13.055c-0.372,7.624,2.678,10.711,6.509,10.711"/>
			<path fill="none" stroke="#604C3F" stroke-miterlimit="10" d="M342.01,123.483c1.339,0.483,2.79,1.153,3.385,1.19
				c0.187,0,0.298-0.037,0.298-0.148"/>
			<path fill="none" stroke="#604C3F" stroke-miterlimit="10" d="M341.154,123.334c-1.115-0.186-2.082-0.26-2.194,0.037
				c0.037-0.223,0.149-0.334,0.335-0.409c0.483-0.186,1.45,0.075,2.492,0.446"/>
			<path fill="none" stroke="#604C3F" stroke-miterlimit="10" d="M341.787,123.408c-0.148,0-0.261-0.037-0.409-0.037"/>
			<path fill="none" stroke="#604C3F" stroke-miterlimit="10" d="M341.787,123.408c0,0.038,0.037,0.038,0.074,0
				c0.037,0.038,0.037,0.038,0.074,0.038"/>
			<path fill="none" stroke="#604C3F" stroke-miterlimit="10" d="M344.763,123.446c-0.112,0.372-1.19,0.26-2.381,0.074
				c-0.148-0.037-0.297-0.037-0.446-0.074"/>
			<path fill="none" stroke="#604C3F" stroke-miterlimit="10" d="M66.825,472.979c0.149,0,0.297,0,0.446,0
				c19.042,0.669,37.453-4.24,50.396-5.579c22.055-2.269,44.668-1.711,66.686-3.719c25.142-2.307,51.511-1.228,76.691,0.223
				c25.886,1.488,50.47,12.125,76.058,13.724c17.108,1.079,31.093-5.355,35.37-23.282c4.426-18.484,7.141-40.167,6.472-59.507
				c-0.372-10.786-8.666-21.832-8.592-31.577c0.074-10.896,9.67-7.624,1.859-18.372c-4.165-5.728-3.384-2.194-3.719-8.592
				c-0.149-3.05,2.976-8.814,1.189-12.125c-2.231-4.091-12.161-4.798-16.959-7.178c-1.972-1.004-4.984-1.934-7.141-2.306
				c9.483-5.765,20.157,0.297,16.401-13.538c-0.707-2.492-4.091-5.653-3.348-8.331c0.744-2.604,6.062-3.942,7.179-6.583
				c-4.314-0.261-7.959-1.525-11.864-3.161c1.896-3.646,7.885-8.964,8.554-12.832c0.781-4.574-4.017-10.265-5.653-14.839
				c-3.31-9.373-4.128-21.906-5.058-31.613c-1.079-10.935-1.302-19.712-4.501-29.717c-3.645-11.344-0.521-23.505-1.004-35.221
				c-13.464,2.901-4.909-6.211-2.641-11.269c2.529-5.728,4.389-16.774,1.748-22.911c-0.111-0.26-0.223-0.483-0.335-0.707
				c-0.111-0.186-0.186-0.372-0.297-0.521"/>
			<path fill="none" stroke="#604C3F" stroke-miterlimit="10" d="M60.948,419.05c0.409-0.074,0.855-0.149,1.339-0.224
				c1.339-0.223,2.827-0.483,4.463-0.706c5.355-0.781,11.864-1.302,15.732-0.112c0.372,0.112,0.744,0.261,1.079,0.409"/>
			<path fill="none" stroke="#604C3F" stroke-miterlimit="10" d="M68.684,456.874c6.583-2.604,14.952-10.19,22.018-7.141"/>
			<path fill="none" stroke="#604C3F" stroke-miterlimit="10" d="M66.527,376.278c0.111-0.483,0.409-0.893,0.781-1.152
				c3.422-2.641,16.253,1.934,21.274-1.786c0.075,0,0.112-0.074,0.186-0.111c-0.111-0.111-0.186-0.223-0.26-0.297
				c-0.781-0.633-1.451,0.111-2.455-0.372"/>
			<path fill="none" stroke="#604C3F" stroke-miterlimit="10" d="M81.627,97.114c0.223-0.075,0.446-0.149,0.707-0.224
				c0.037,0,0.074,0,0.111,0c0.893-0.223,2.008-0.446,3.199-0.669c0-0.037,0.037,0,0.037,0c4.314-0.818,9.93-1.599,12.422-2.529
				c0.111,0,0.186-0.037,0.26-0.074"/>
			<path fill="none" stroke="#604C3F" stroke-miterlimit="10" d="M76.048,69.889c0.335-0.26,0.707-0.521,1.116-0.744
				c0.372-0.26,0.781-0.483,1.228-0.707c5.988-3.05,15.249-3.98,21.162-4.575"/>
			<path fill="none" stroke="#604C3F" stroke-miterlimit="10" d="M95.388,50.214c3.236,0.298,6.249,0.632,8.331,0.632"/>
			<path fill="none" stroke="#604C3F" stroke-miterlimit="10" d="M80.251,50.4c0.521-0.186,1.116-0.334,1.748-0.446
				c1.414-0.26,3.162-0.334,5.058-0.297c2.566,0.037,5.467,0.297,8.22,0.558"/>
			<line fill="none" stroke="#604C3F" stroke-miterlimit="10" x1="102.715" y1="50.363" x2="95.388" y2="50.214"/>
			<path fill="none" stroke="#604C3F" stroke-miterlimit="10" d="M85.123,105.482c0.632-0.037,1.265-0.112,1.897-0.149h0.037
				c4.649-0.409,10.377-1.19,18.522-0.558"/>
			<path fill="none" stroke="#604C3F" stroke-miterlimit="10" d="M92.078,131.219c0.372-0.223,0.744-0.409,1.116-0.595
				c14.691-7.55,31.465-10.339,43.999-13.984c32.878-9.559,68.434-9.856,102.427-6.249c23.877,2.566,47.755,5.133,71.41,7.401
				c9.111,0.855,18.707,3.347,28.266,5.169c0.633,0.149,1.228,0.261,1.859,0.372c0.075,0,0.149,0.037,0.224,0.037
				c0.186,0.037,0.372,0.075,0.558,0.075c0.037,0,0.037,0.037,0.074,0.037c0.112,0.037,0.261,0.037,0.372,0.037
				c0.893,0.186,1.785,0.335,2.678,0.446c7.179,1.153,14.319,1.637,21.088,0.521c20.047-3.235,18.708-33.547,23.841-49.279
				c-4.463-2.566-9.559-2.12-14.468-2.194c2.976-4.687,1.152-10.302,5.43-13.836c-2.417-2.343-6.025-5.281-9.335-6.694
				c6.472-5.021-1.525-12.087-6.62-13.761c-9.521-3.087-25.7,0.781-35.072,1.934c-24.919,3.013-50.916,4.24-75.575,5.542
				c-40.837,2.157-81.302-3.533-121.805-5.579c-10.6-0.521-33.473-2.827-47.644-1.971c-3.049,0.186-5.653,0.521-7.699,1.041"/>
			<path fill="none" stroke="#604C3F" stroke-miterlimit="10" d="M87.913,133.599c1.153-0.707,2.343-1.413,3.533-2.045"/>
			<path fill="none" stroke="#604C3F" stroke-miterlimit="10" d="M88.396,39.205c0.298-0.037,0.595-0.074,0.893-0.074
				c2.641-0.186,5.095,0.855,7.401,2.678c0.037,0.037,0.037,0.037,0.075,0.074c2.678,2.157,5.058,5.393,7.066,8.889
				c3.236,5.653,5.43,12.05,6.248,15.77c0,0.037,0,0.074,0,0.112c0.038,0.111,0.038,0.186,0.075,0.26
				c0.186,1.153,0.334,2.306,0.483,3.421c0.074,0.669,0.149,1.376,0.223,2.046c0,0.037,0,0.074,0,0.074
				c0.855,11.269-1.451,22.167-4.649,32.581c-0.372,1.302-0.781,2.566-1.19,3.831c-0.446,1.339-1.004,3.05-1.711,4.984
				c-0.148,0.334-0.26,0.669-0.409,1.004c-2.12,5.356-5.356,11.939-9.819,15.546c-0.149,0.186-0.335,0.298-0.521,0.446
				c-0.148,0.186-0.334,0.298-0.483,0.372c-0.223,0.112-0.446,0.223-0.632,0.335C91.223,131.74,91,131.888,90.739,132"/>
			<path fill="none" stroke="#604C3F" stroke-miterlimit="10" d="M86.053,86.625c1.376,0.409,7.141,2.083,7.141,2.157
				c-0.037,0-0.074,0-0.186-0.037"/>
			<path fill="none" stroke="#604C3F" stroke-miterlimit="10" d="M68.684,386.804c0.409-0.148,0.93-0.223,1.488-0.223
				c0,0,0,0,0.037,0c3.868-0.074,10.488,2.641,10.897,4.574"/>
		</g>
	</g>
</g>
<g>
	<g id="XMLID_4_">
		<g>
			<path fill="#C7B299" d="M300.709,147.332c-0.568-1.192-1.091-2.265-1.546-3.182C299.934,142.326,300.42,143.891,300.709,147.332z
				"/>
			<path fill="#C7B299" d="M299.163,144.15c-0.112,0.279-0.231,0.628-0.359,1.058c-0.219-1.342-0.457-2.441-0.713-3.223
				C298.371,142.536,298.734,143.269,299.163,144.15z"/>
			<path fill="#C7B299" d="M300.709,147.332c0.48,5.681,0.407,16.471,0.121,25.523c-0.357-10.04-1.006-21.454-2.026-27.647
				c0.128-0.429,0.247-0.779,0.359-1.058C299.618,145.067,300.141,146.14,300.709,147.332z"/>
			<path fill="#C7B299" d="M305.141,307.831l-0.004,0.009L305.141,307.831z"/>
			<path fill="#C7B299" d="M317.813,284.209c-1.482,7.655-12.956,17.159-12.673,23.622l-0.004,0.009l0.004-0.009l13.759-13.926
				l-3.369,61.521c0,0-12.114,6.708-11.708,14.649l12.858-10.556l-0.109,27.38c0,0-17.876,26.152-19.576,34.469
				c0.003,0.006-0.001,0.016-0.004,0.024c-0.095,0.446-0.136,0.842-0.122,1.17c-0.209-5.893-2.896-74.479-2.896-74.479
				s3.816-87.993,3.523-94.467c-0.269-6.477,3.314-55.929,3.602-62.112c0.108-2.38,0.026-9.999-0.268-18.65
				c0.286-9.052,0.359-19.842-0.121-25.523c4.407,9.177,11.768,25.341,11.651,30.706c-0.153,7.649,4.951,46.149,5.103,51.153
				C317.604,234.198,319.292,276.548,317.813,284.209z"/>
			<path fill="#C7B299" d="M299.954,187.394c-1.065,6.484-5.872,61.981-6.708,67.868c-0.839,5.896-4.305,36.07-4.171,45.635
				c0.115,9.571-0.509,49.28-1.408,64.291c-0.866,15.014,0.851,61.148,1.955,66.299c0,0-22.1-45.591-30.744-48.566
				c-1.841-0.646,4.184-6.53,0.818-22.077c-1.57-7.27,1.395-38.996,3.046-41.654c0,0,14.094,24.91,16.865,30.911
				c0,0-10.151-31.992-15.259-37.104c0,0,6.434-66.244,8.778-71.705c0,0,3.596,3.488,6.282,7.268
				c1.66,4.564,3.075,8.031,2.838,5.899c-0.193-1.708-1.381-3.845-2.838-5.899c-2.131-5.832-4.667-13.457-4.667-13.457
				s2.516-4.776,1.591-14.277c-0.838-8.935,10.622-32.444,15.645-42.486c5.034-10.047,2.947-18.286,6.628-32.416
				c0.066-0.261,0.134-0.5,0.198-0.714c1.021,6.193,1.669,17.607,2.026,27.647C300.609,179.641,300.271,185.449,299.954,187.394z"/>
			<path fill="#C7B299" d="M299.954,187.394c0.317-1.944,0.655-7.752,0.876-14.539c0.294,8.652,0.376,16.271,0.268,18.65
				c-0.287,6.183-3.87,55.635-3.602,62.112c0.293,6.474-3.523,94.467-3.523,94.467s2.688,68.587,2.896,74.479
				c-0.014-0.328,0.027-0.724,0.122-1.17c0.307,9.634,0.982,27.853,1.82,33.16c1.091,6.909,5.501,38.832,7.067,44.123
				c0.094,0.328,0.175,0.555,0.253,0.669c1.269,1.983-1.762-0.646-1.762-0.646l-1.427-6.278l0.112-0.036
				c-1.331-3.75-8.479-23.646-11.158-25.356c0,0-1.487-26.618-2.255-35.542h-0.021c-1.104-5.15-2.821-51.285-1.955-66.299
				c0.899-15.011,1.523-54.72,1.408-64.291c-0.134-9.564,3.332-39.739,4.171-45.635
				C294.082,249.375,298.889,193.878,299.954,187.394z"/>
			<path fill="#C7B299" d="M304.37,498.699c-1.655-1.636-12.477-31.662-12.477-31.662l0.004-0.009
				c2.68,1.71,9.827,21.606,11.158,25.356l-0.112,0.036L304.37,498.699z"/>
		</g>
		<g>
		</g>
	</g>
</g>
<g>
	<g id="XMLID_3_">
		<g>
			<linearGradient id="SVGID_16_" gradientUnits="userSpaceOnUse" x1="329.7607" y1="204.5879" x2="502.1715" y2="197.6999">
				<stop  offset="0.0123" style="stop-color:#E77800"/>
				<stop  offset="0.0497" style="stop-color:#EB8515"/>
				<stop  offset="0.1143" style="stop-color:#F19732"/>
				<stop  offset="0.1864" style="stop-color:#F6A64A"/>
				<stop  offset="0.2678" style="stop-color:#FAB25C"/>
				<stop  offset="0.364" style="stop-color:#FDBA69"/>
				<stop  offset="0.4889" style="stop-color:#FFBF71"/>
				<stop  offset="0.7485" style="stop-color:#FFC073"/>
				<stop  offset="0.7705" style="stop-color:#F3B65F"/>
				<stop  offset="0.8142" style="stop-color:#DEA43D"/>
				<stop  offset="0.8587" style="stop-color:#CE9622"/>
				<stop  offset="0.904" style="stop-color:#C28D0F"/>
				<stop  offset="0.9505" style="stop-color:#BB8704"/>
				<stop  offset="1" style="stop-color:#B98500"/>
			</linearGradient>
			<path fill="url(#SVGID_16_)" d="M338.185,393.916c-0.371,0.554-0.641,1.072-0.799,1.523
				c2.881-8.278,35.994-104.617,35.994-104.617s53.902-120.25,56.988-129.355s35.635-76.011,39.441-84.451
				c3.084-6.826,17.526-46.209,21.338-63.858c0.569-2.602,0.898-4.729,0.933-6.211c1.337,9.094,6.638,47.378,2.75,56.639
				c-4.417,10.536-17.376,66.3-19.862,73.309c-2.485,7.009-22.898,66.521-29.401,76.456c-6.513,9.926-29.675,17.761-32.771,26.855
				l29.186-12.903l-38.787,83.73c0,0-22.644,3.671-26.34,14.872l25.905-8.639l-15.071,37.896
				C387.688,355.162,345.228,383.244,338.185,393.916z"/>
			<linearGradient id="SVGID_17_" gradientUnits="userSpaceOnUse" x1="294.6689" y1="212.9043" x2="498.5508" y2="204.759">
				<stop  offset="0.0123" style="stop-color:#E77800"/>
				<stop  offset="0.0497" style="stop-color:#EB8515"/>
				<stop  offset="0.1143" style="stop-color:#F19732"/>
				<stop  offset="0.1864" style="stop-color:#F6A64A"/>
				<stop  offset="0.2678" style="stop-color:#FAB25C"/>
				<stop  offset="0.364" style="stop-color:#FDBA69"/>
				<stop  offset="0.4889" style="stop-color:#FFBF71"/>
				<stop  offset="0.7485" style="stop-color:#FFC073"/>
				<stop  offset="0.7705" style="stop-color:#F3B65F"/>
				<stop  offset="0.8142" style="stop-color:#DEA43D"/>
				<stop  offset="0.8587" style="stop-color:#CE9622"/>
				<stop  offset="0.904" style="stop-color:#C28D0F"/>
				<stop  offset="0.9505" style="stop-color:#BB8704"/>
				<stop  offset="1" style="stop-color:#B98500"/>
			</linearGradient>
			<path fill="url(#SVGID_17_)" d="M405.963,155.532c0.638-2.45-0.052-5.955-1.228-9.471
				C404.853,153.142,405.184,158.588,405.963,155.532z M354.186,311.613c-9.533,20.406-31.964,85.178-33.046,92.825
				c0,0-9.837-73.511-21.765-81.653c-2.556-1.752,10.106-7.106,13.306-30.232c1.484-10.812,23.412-53.426,27.439-56.342
				c0,0,8.562,41.095,9.619,50.718c0,0,1.499-49.091-3.717-58.558c0,0,46.175-88.863,52.825-95.345c0,0,3.753,6.532,5.887,13.025
				c-0.166-9.079,0.017-20.854,0.017-20.854s6.536-5.452,10.281-19.058c3.53-12.779,34.327-40.043,47.663-51.629
				c13.356-11.587,26.097-38.336,28.027-41.863c0.184-0.339,0.19-0.163,0.059,0.433c-1.294,5.729-15.84,50.016-20.526,57.704
				c-5.183,8.495-42.951,83.213-47.468,90.987c-4.527,7.774-26.404,48.014-31.394,61.339S363.73,291.208,354.186,311.613z"/>
			<linearGradient id="SVGID_18_" gradientUnits="userSpaceOnUse" x1="297.7334" y1="264.3291" x2="500.8575" y2="256.2141">
				<stop  offset="0.0123" style="stop-color:#FFCB17"/>
				<stop  offset="0.0144" style="stop-color:#FFCE21"/>
				<stop  offset="0.0228" style="stop-color:#FFD643"/>
				<stop  offset="0.0322" style="stop-color:#FFDE61"/>
				<stop  offset="0.0425" style="stop-color:#FFE479"/>
				<stop  offset="0.0541" style="stop-color:#FFE98B"/>
				<stop  offset="0.0678" style="stop-color:#FFEC98"/>
				<stop  offset="0.0857" style="stop-color:#FFEEA0"/>
				<stop  offset="0.1227" style="stop-color:#FFEFA2"/>
				<stop  offset="0.1906" style="stop-color:#F4DE89"/>
				<stop  offset="0.3182" style="stop-color:#E2C35F"/>
				<stop  offset="0.4488" style="stop-color:#D3AD3D"/>
				<stop  offset="0.581" style="stop-color:#C89B22"/>
				<stop  offset="0.7153" style="stop-color:#C08F0F"/>
				<stop  offset="0.8532" style="stop-color:#BB8704"/>
				<stop  offset="1" style="stop-color:#B98500"/>
			</linearGradient>
			<path fill="url(#SVGID_18_)" d="M310.071,506.236c0.91,3.331-2.399-1.717-2.399-1.717l1.18-9.37l0.207,0.002
				c-0.045-5.779-0.44-36.686-3.715-40.347l-0.001-0.01c0,0,12.172-37.625,15.828-50.348l-0.031-0.009
				c1.082-7.647,23.513-72.419,33.046-92.825c9.545-20.405,32.219-75.18,37.208-88.505s26.866-53.564,31.394-61.339
				c4.517-7.773,42.285-82.492,47.468-90.987c4.687-7.688,19.232-51.975,20.526-57.704l0.366,0.079
				c-3.812,17.649-18.254,57.033-21.338,63.858c-3.807,8.439-36.355,75.346-39.441,84.451S373.38,290.822,373.38,290.822
				s-33.113,96.339-35.994,104.617c0.158-0.451,0.428-0.97,0.799-1.523c-4.774,13.513-13.627,39.05-15.192,46.8
				c-2.031,10.088-12.519,56.409-12.952,64.486C310.008,505.69,310.021,506.042,310.071,506.236z"/>
			<path fill="#534741" d="M307.672,504.52c-1.676-3.041-2.328-49.715-2.328-49.715c3.274,3.661,3.67,34.567,3.715,40.347
				l-0.207-0.002L307.672,504.52z"/>
		</g>
		<g>
			<path fill="none" stroke="#000000" stroke-miterlimit="10" d="M337.181,396.018c0,0,0-0.011,0.01-0.021v-0.01
				c0.028-0.053,0.094-0.242,0.195-0.547c2.881-8.278,35.994-104.617,35.994-104.617s53.902-120.25,56.988-129.355
				s35.635-76.011,39.441-84.451c3.084-6.826,17.526-46.209,21.338-63.858c0.569-2.602,0.898-4.729,0.933-6.211"/>
			<path fill="none" stroke="#000000" stroke-miterlimit="10" d="M492.08,6.946c1.337,9.094,6.638,47.378,2.75,56.639
				c-4.417,10.536-17.376,66.3-19.862,73.309c-2.485,7.009-22.898,66.521-29.401,76.456c-6.513,9.926-29.675,17.761-32.771,26.855
				l29.186-12.903l-38.787,83.73c0,0-22.644,3.671-26.34,14.872l25.905-8.639l-15.071,37.896c0,0-42.46,28.082-49.503,38.754
				c-0.371,0.554-0.641,1.072-0.799,1.523"/>
			<path fill="none" stroke="#000000" stroke-miterlimit="10" d="M491.795,5c0,0,0.111,0.7,0.285,1.946
				C492.097,6.055,492.008,5.385,491.795,5z"/>
			<path fill="none" stroke="#000000" stroke-miterlimit="10" d="M404.734,146.051c-0.166-9.079,0.017-20.854,0.017-20.854
				s6.536-5.452,10.281-19.058c3.53-12.779,34.327-40.043,47.663-51.629c13.356-11.587,26.097-38.336,28.027-41.863
				c0.184-0.339,0.19-0.163,0.059,0.433c-1.294,5.729-15.84,50.016-20.526,57.704c-5.183,8.495-42.951,83.213-47.468,90.987
				c-4.527,7.774-26.404,48.014-31.394,61.339s-27.663,68.1-37.208,88.505c-9.533,20.406-31.964,85.178-33.046,92.825
				c0,0-9.837-73.511-21.765-81.653c-2.556-1.752,10.106-7.106,13.306-30.232c1.484-10.812,23.412-53.426,27.439-56.342
				c0,0,8.562,41.095,9.619,50.718c0,0,1.499-49.091-3.717-58.558c0,0,46.175-88.863,52.825-95.345
				C398.848,133.026,402.601,139.558,404.734,146.051"/>
			<path fill="none" stroke="#000000" stroke-miterlimit="10" d="M404.735,146.061c1.176,3.517,1.865,7.021,1.228,9.471
				C405.184,158.588,404.853,153.142,404.735,146.061z"/>
			<line fill="none" stroke="#000000" stroke-miterlimit="10" x1="404.735" y1="146.061" x2="404.734" y2="146.051"/>
			<path fill="none" stroke="#000000" stroke-miterlimit="10" d="M309.064,496.083c0,0-0.003-0.331-0.006-0.932
				c-0.045-5.779-0.44-36.686-3.715-40.347l-0.001-0.01c0,0,12.172-37.625,15.828-50.348c0.227-0.807,0.426-1.519,0.579-2.105"/>
			<path fill="none" stroke="#000000" stroke-miterlimit="10" d="M341.24,385.341c0,0-1.231,3.416-3.056,8.575
				c-4.774,13.513-13.627,39.05-15.192,46.8c-2.031,10.088-12.519,56.409-12.952,64.486c-0.032,0.488-0.019,0.84,0.031,1.034
				c0.91,3.331-2.399-1.717-2.399-1.717l1.18-9.37"/>
			<path fill="none" stroke="#000000" stroke-miterlimit="10" d="M305.344,454.805c0,0,0.652,46.674,2.328,49.715"/>
		</g>
	</g>
</g>
</svg>
