<?xml version="1.0" encoding="utf-8"?>
<!-- Generator: Adobe Illustrator 15.1.0, SVG Export Plug-In . SVG Version: 6.00 Build 0)  -->
<!DOCTYPE svg PUBLIC "-//W3C//DTD SVG 1.1//EN" "http://www.w3.org/Graphics/SVG/1.1/DTD/svg11.dtd">
<svg version="1.1" xmlns="http://www.w3.org/2000/svg" xmlns:xlink="http://www.w3.org/1999/xlink" x="0px" y="0px" width="100px"
	 height="100px" viewBox="0 0 100 100" enable-background="new 0 0 100 100" xml:space="preserve">
<g id="Calque_1">
	<polygon fill="#C69C6D" stroke="#C69C6D" stroke-width="0.2578" stroke-miterlimit="10" points="-8.833,5.833 -8.833,5.833 
		-9.167,5.833 -9.167,5.833 -9.167,5.833 -9.167,5.833 -8.833,5.833 -8.833,5.833 	"/>
</g>
<g id="Calque_4">
</g>
<g id="Calque_6">
</g>
<g id="Calque_5">
	<path fill="#2E3192" stroke="#2E3192" stroke-width="1.2437" stroke-miterlimit="10" d="M99.536,41.258
		c-0.1-0.478,0.056-0.996,0.464-1.287V0H0v24.562c0.013,0.02,0.02,0.043,0.032,0.063c0.731,0.387,0.807,1.464,0.235,2.004
		C0.256,26.926,0.157,27.161,0,27.337V99h100V83.58c-0.07-0.106-0.142-0.217-0.168-0.347c-0.087-0.447-0.003-0.753,0.168-1.135
		V45.664c-0.08-0.159-0.135-0.343-0.135-0.563c0-0.57,0.043-1.108,0.135-1.625v-0.08C98.973,43.17,98.822,41.827,99.536,41.258z"/>
	<path fill="#F7F7F9" stroke="#0000FF" stroke-width="2.048" stroke-miterlimit="10" d="M0.64,23.584
		c0.002,0.069-0.011,0.132-0.019,0.199c1.93,0.061,4.696,0.046,7.862-0.29L0.64,23.584z"/>
	<path fill="#F7F7F9" stroke="#0000FF" stroke-width="2.048" stroke-miterlimit="10" d="M33.736,1.527
		C32.911,17.904,18.775,22.4,8.483,23.493l55.106-0.641C32.526,22.852,33.61,3.025,33.736,1.527z"/>
	<path fill="#F7F7F9" stroke="#0000FF" stroke-width="2.048" stroke-miterlimit="10" d="M45.443,42.884
		c0,0,4.688,0.511,10.673-0.125L45.443,42.884z"/>
	<path fill="#F7F7F9" stroke="#0000FF" stroke-width="2.048" stroke-miterlimit="10" d="M99,41.11c0-0.005,0-0.01-0.003-0.015
		c-19.752-4.069-18.943-19.008-18.835-20.302C79.339,37.171,65.201,41.667,54.909,42.76l43.664-0.508
		C98.519,41.823,98.661,41.385,99,41.11z"/>
	<path fill="#F7F7F9" stroke="#0000FF" stroke-width="2.048" stroke-miterlimit="10" d="M0,66.961l55.105-0.641
		c-31.062,0-29.978-19.829-29.853-21.326C24.428,61.371,10.292,65.867,0,66.961z"/>
	<path fill="#F7F7F9" stroke="#0000FF" stroke-width="2.048" stroke-miterlimit="10" d="M35.553,86.584
		c0,0,4.688,0.513,10.674-0.124L35.553,86.584z"/>
	<path fill="#F7F7F9" stroke="#0000FF" stroke-width="2.048" stroke-miterlimit="10" d="M96.988,85.73
		c-27.626-1.379-26.63-19.794-26.51-21.235c-0.823,16.377-14.96,20.872-25.252,21.965L97,85.859
		C96.994,85.814,96.992,85.771,96.988,85.73z"/>
	<path fill="none" stroke="#0000FF" stroke-width="3.7001" stroke-miterlimit="10" d="M74.689,12.884"/>
</g>
</svg>
