<?xml version="1.0" encoding="utf-8"?>
<!-- Generator: Adobe Illustrator 15.1.0, SVG Export Plug-In . SVG Version: 6.00 Build 0)  -->
<!DOCTYPE svg PUBLIC "-//W3C//DTD SVG 1.1//EN" "http://www.w3.org/Graphics/SVG/1.1/DTD/svg11.dtd">
<svg version="1.1" id="Calque_4" xmlns="http://www.w3.org/2000/svg" xmlns:xlink="http://www.w3.org/1999/xlink" x="0px" y="0px"
	 width="100px" height="100px" viewBox="0 0 100 100" enable-background="new 0 0 100 100" xml:space="preserve">
<g id="Calque_5_1_">
	<path fill="#2E3192" stroke="#2E3192" stroke-width="1.0158" stroke-miterlimit="10" d="M90.787,43.469
		c-0.082-0.391,0.046-0.813,0.38-1.051V9.77H9.487v20.062c0.011,0.017,0.017,0.035,0.026,0.051c0.598,0.316,0.659,1.196,0.192,1.637
		c-0.009,0.242-0.09,0.435-0.218,0.578v58.533h81.68V78.037c-0.057-0.086-0.117-0.178-0.137-0.283
		c-0.071-0.365-0.003-0.615,0.137-0.928V47.067c-0.065-0.129-0.11-0.28-0.11-0.459c0-0.465,0.035-0.904,0.11-1.328v-0.065
		C90.329,45.03,90.205,43.933,90.787,43.469z"/>
	<path fill="#F7F7F9" stroke="#0000FF" stroke-width="1.6728" stroke-miterlimit="10" d="M10.01,29.033
		c0.002,0.056-0.009,0.107-0.016,0.163c1.577,0.05,3.835,0.038,6.422-0.237L10.01,29.033z"/>
	<path fill="#F7F7F9" stroke="#0000FF" stroke-width="1.6728" stroke-miterlimit="10" d="M37.042,11.016
		c-0.673,13.377-12.22,17.05-20.626,17.942l45.01-0.524C36.054,28.435,36.939,12.24,37.042,11.016z"/>
	<path fill="#F7F7F9" stroke="#0000FF" stroke-width="1.6728" stroke-miterlimit="10" d="M46.605,44.797
		c0,0,3.829,0.417,8.719-0.103L46.605,44.797z"/>
	<path fill="#F7F7F9" stroke="#0000FF" stroke-width="1.6728" stroke-miterlimit="10" d="M90.35,43.348c0-0.004,0-0.008-0.002-0.012
		c-16.133-3.324-15.473-15.525-15.385-16.583c-0.672,13.377-12.22,17.049-20.626,17.942l35.665-0.415
		C89.958,43.931,90.073,43.572,90.35,43.348z"/>
	<path fill="#F7F7F9" stroke="#0000FF" stroke-width="1.6728" stroke-miterlimit="10" d="M9.487,64.463l45.01-0.523
		c-25.371,0-24.485-16.196-24.384-17.418C29.44,59.896,17.894,63.57,9.487,64.463z"/>
	<path fill="#F7F7F9" stroke="#0000FF" stroke-width="1.6728" stroke-miterlimit="10" d="M38.527,80.49c0,0,3.829,0.42,8.718-0.102
		L38.527,80.49z"/>
	<path fill="#F7F7F9" stroke="#0000FF" stroke-width="1.6728" stroke-miterlimit="10" d="M88.707,79.793
		c-22.565-1.125-21.752-16.168-21.652-17.344c-0.673,13.377-12.221,17.047-20.627,17.939l42.289-0.49
		C88.712,79.861,88.71,79.826,88.707,79.793z"/>
	<path fill="none" stroke="#0000FF" stroke-width="3.0222" stroke-miterlimit="10" d="M70.493,20.292"/>
</g>
</svg>
