<?xml version="1.0" encoding="utf-8"?>
<!-- Generator: Adobe Illustrator 15.1.0, SVG Export Plug-In . SVG Version: 6.00 Build 0)  -->
<!DOCTYPE svg PUBLIC "-//W3C//DTD SVG 1.1//EN" "http://www.w3.org/Graphics/SVG/1.1/DTD/svg11.dtd">
<svg version="1.1" xmlns="http://www.w3.org/2000/svg" xmlns:xlink="http://www.w3.org/1999/xlink" x="0px" y="0px" width="100px"
	 height="100px" viewBox="0 0 100 100" enable-background="new 0 0 100 100" xml:space="preserve">
<g id="Calque_1">
	<polygon fill="#C69C6D" stroke="#C69C6D" stroke-width="0.2578" stroke-miterlimit="10" points="-8.833,5.833 -8.833,5.833 
		-9.167,5.833 -9.167,5.833 -9.167,5.833 -9.167,5.833 -8.833,5.833 -8.833,5.833 	"/>
	<rect x="10.443" y="10.721" fill="#2E3192" stroke="#2E3192" stroke-miterlimit="10" width="80" height="80"/>
	<path fill="none" stroke="#0000FF" stroke-width="3" stroke-miterlimit="10" d="M71,30.167"/>
	<g>
		
			<line fill="none" stroke="#0000FF" stroke-width="3.9741" stroke-miterlimit="10" x1="10.348" y1="18.432" x2="18.83" y2="18.432"/>
		
			<line fill="none" stroke="#0000FF" stroke-width="3.9741" stroke-miterlimit="10" x1="36.095" y1="18.432" x2="44.577" y2="18.432"/>
		<path fill="none" stroke="#0000FF" stroke-width="3.9741" stroke-miterlimit="10" d="M17.464,18.415
			c1.588-3.087,5.469-5.263,10.003-5.255c4.454,0.008,8.272,2.124,9.899,5.132"/>
	</g>
	<g>
		
			<line fill="none" stroke="#0000FF" stroke-width="3.9741" stroke-miterlimit="10" x1="37.681" y1="33.403" x2="46.163" y2="33.403"/>
		
			<line fill="none" stroke="#0000FF" stroke-width="3.9741" stroke-miterlimit="10" x1="63.428" y1="33.403" x2="71.91" y2="33.403"/>
		<path fill="none" stroke="#0000FF" stroke-width="3.9741" stroke-miterlimit="10" d="M44.798,33.385
			c1.588-3.087,5.47-5.262,10.003-5.254c4.454,0.007,8.271,2.123,9.898,5.131"/>
	</g>
	<g>
		
			<line fill="none" stroke="#0000FF" stroke-width="3.9741" stroke-miterlimit="10" x1="56.214" y1="17.937" x2="64.696" y2="17.937"/>
		
			<line fill="none" stroke="#0000FF" stroke-width="3.9741" stroke-miterlimit="10" x1="81.961" y1="17.937" x2="90.443" y2="17.937"/>
		<path fill="none" stroke="#0000FF" stroke-width="3.9741" stroke-miterlimit="10" d="M63.33,17.92
			c1.589-3.087,5.471-5.263,10.004-5.255c4.453,0.008,8.271,2.124,9.898,5.131"/>
	</g>
	<g>
		
			<line fill="none" stroke="#0000FF" stroke-width="3.9741" stroke-miterlimit="10" x1="10.547" y1="75.023" x2="19.029" y2="75.023"/>
		
			<line fill="none" stroke="#0000FF" stroke-width="3.9741" stroke-miterlimit="10" x1="36.294" y1="75.023" x2="44.776" y2="75.023"/>
		<path fill="none" stroke="#0000FF" stroke-width="3.9741" stroke-miterlimit="10" d="M17.664,75.006
			c1.588-3.088,5.469-5.264,10.003-5.256c4.454,0.008,8.272,2.124,9.899,5.131"/>
	</g>
	<g>
		
			<line fill="none" stroke="#0000FF" stroke-width="3.9741" stroke-miterlimit="10" x1="35.88" y1="89.006" x2="44.362" y2="89.006"/>
		
			<line fill="none" stroke="#0000FF" stroke-width="3.9741" stroke-miterlimit="10" x1="61.627" y1="89.006" x2="70.109" y2="89.006"/>
		<path fill="none" stroke="#0000FF" stroke-width="3.9741" stroke-miterlimit="10" d="M42.997,88.988
			c1.588-3.086,5.469-5.262,10.003-5.254c4.454,0.008,8.271,2.123,9.898,5.131"/>
	</g>
	<g>
		
			<line fill="none" stroke="#0000FF" stroke-width="3.9741" stroke-miterlimit="10" x1="56.413" y1="74.527" x2="64.896" y2="74.527"/>
		
			<line fill="none" stroke="#0000FF" stroke-width="3.9741" stroke-miterlimit="10" x1="82.16" y1="74.527" x2="90.643" y2="74.527"/>
		<path fill="none" stroke="#0000FF" stroke-width="3.9741" stroke-miterlimit="10" d="M63.529,74.51
			c1.589-3.086,5.471-5.262,10.004-5.254c4.453,0.008,8.271,2.123,9.898,5.131"/>
	</g>
	<g>
		
			<line fill="none" stroke="#0000FF" stroke-width="3.9741" stroke-miterlimit="10" x1="10.38" y1="47.056" x2="18.862" y2="47.056"/>
		
			<line fill="none" stroke="#0000FF" stroke-width="3.9741" stroke-miterlimit="10" x1="36.127" y1="47.056" x2="44.61" y2="47.056"/>
		<path fill="none" stroke="#0000FF" stroke-width="3.9741" stroke-miterlimit="10" d="M17.497,47.038
			c1.588-3.087,5.469-5.262,10.003-5.255c4.454,0.008,8.272,2.124,9.899,5.132"/>
	</g>
	<g>
		
			<line fill="none" stroke="#0000FF" stroke-width="3.9741" stroke-miterlimit="10" x1="30.714" y1="61.026" x2="39.196" y2="61.026"/>
		
			<line fill="none" stroke="#0000FF" stroke-width="3.9741" stroke-miterlimit="10" x1="56.461" y1="61.026" x2="64.943" y2="61.026"/>
		<path fill="none" stroke="#0000FF" stroke-width="3.9741" stroke-miterlimit="10" d="M37.831,61.009
			c1.588-3.086,5.469-5.263,10.003-5.255c4.454,0.008,8.272,2.123,9.899,5.131"/>
	</g>
	<g>
		
			<line fill="none" stroke="#0000FF" stroke-width="3.9741" stroke-miterlimit="10" x1="56.246" y1="46.561" x2="64.729" y2="46.561"/>
		
			<line fill="none" stroke="#0000FF" stroke-width="3.9741" stroke-miterlimit="10" x1="81.994" y1="46.561" x2="90.477" y2="46.561"/>
		<path fill="none" stroke="#0000FF" stroke-width="3.9741" stroke-miterlimit="10" d="M63.363,46.544
			c1.588-3.087,5.47-5.263,10.003-5.255c4.454,0.008,8.272,2.124,9.899,5.131"/>
	</g>
	<line fill="#0000FF" stroke="#0000FF" stroke-width="2" stroke-miterlimit="10" x1="51.916" y1="36.75" x2="59.25" y2="36.75"/>
	<line fill="#F2F2F2" stroke="#0000FF" stroke-width="2" stroke-miterlimit="10" x1="68.416" y1="22.417" x2="75.75" y2="22.417"/>
	<line fill="#F2F2F2" stroke="#0000FF" stroke-width="2" stroke-miterlimit="10" x1="69.75" y1="50.834" x2="77.084" y2="50.834"/>
	<line fill="#F2F2F2" stroke="#0000FF" stroke-width="2" stroke-miterlimit="10" x1="71.666" y1="78.668" x2="79" y2="78.668"/>
	<line fill="#F2F2F2" stroke="#0000FF" stroke-width="2" stroke-miterlimit="10" x1="45.417" y1="65.501" x2="52.75" y2="65.501"/>
	<line fill="#F2F2F2" stroke="#0000FF" stroke-width="2" stroke-miterlimit="10" x1="20" y1="82.501" x2="27.333" y2="82.501"/>
	<line fill="#F2F2F2" stroke="#0000FF" stroke-width="2" stroke-miterlimit="10" x1="22.75" y1="52.167" x2="30.083" y2="52.167"/>
	<line fill="#F2F2F2" stroke="#0000FF" stroke-width="2" stroke-miterlimit="10" x1="22.667" y1="23.583" x2="30" y2="23.583"/>
</g>
<g id="Calque_4">
</g>
<g id="Calque_6">
</g>
<g id="Calque_5">
</g>
</svg>
